G04 #@! TF.GenerationSoftware,KiCad,Pcbnew,8.0.1-8.0.1-0~ubuntu20.04.1*
G04 #@! TF.CreationDate,2024-06-12T16:16:25+01:00*
G04 #@! TF.ProjectId,smolpad,736d6f6c-7061-4642-9e6b-696361645f70,rev?*
G04 #@! TF.SameCoordinates,Original*
G04 #@! TF.FileFunction,Soldermask,Top*
G04 #@! TF.FilePolarity,Negative*
%FSLAX46Y46*%
G04 Gerber Fmt 4.6, Leading zero omitted, Abs format (unit mm)*
G04 Created by KiCad (PCBNEW 8.0.1-8.0.1-0~ubuntu20.04.1) date 2024-06-12 16:16:25*
%MOMM*%
%LPD*%
G01*
G04 APERTURE LIST*
%ADD10R,0.250000X2.800000*%
%ADD11R,0.250000X2.250000*%
%ADD12R,0.250000X2.450000*%
%ADD13C,1.050000*%
%ADD14C,1.200000*%
%ADD15R,0.700000X3.400000*%
%ADD16R,1.600000X3.800000*%
%ADD17R,1.600000X3.000000*%
%ADD18R,1.600000X1.800000*%
%ADD19R,1.600000X2.600000*%
%ADD20C,0.990600*%
%ADD21C,0.787400*%
G04 APERTURE END LIST*
G36*
G01*
X39250000Y-37612500D02*
X39250000Y-37337500D01*
G75*
G02*
X39387500Y-37200000I137500J0D01*
G01*
X39662500Y-37200000D01*
G75*
G02*
X39800000Y-37337500I0J-137500D01*
G01*
X39800000Y-37612500D01*
G75*
G02*
X39662500Y-37750000I-137500J0D01*
G01*
X39387500Y-37750000D01*
G75*
G02*
X39250000Y-37612500I0J137500D01*
G01*
G37*
G36*
G01*
X40200000Y-37612500D02*
X40200000Y-37337500D01*
G75*
G02*
X40337500Y-37200000I137500J0D01*
G01*
X40612500Y-37200000D01*
G75*
G02*
X40750000Y-37337500I0J-137500D01*
G01*
X40750000Y-37612500D01*
G75*
G02*
X40612500Y-37750000I-137500J0D01*
G01*
X40337500Y-37750000D01*
G75*
G02*
X40200000Y-37612500I0J137500D01*
G01*
G37*
G36*
G01*
X40200000Y-36662500D02*
X40200000Y-36387500D01*
G75*
G02*
X40337500Y-36250000I137500J0D01*
G01*
X40612500Y-36250000D01*
G75*
G02*
X40750000Y-36387500I0J-137500D01*
G01*
X40750000Y-36662500D01*
G75*
G02*
X40612500Y-36800000I-137500J0D01*
G01*
X40337500Y-36800000D01*
G75*
G02*
X40200000Y-36662500I0J137500D01*
G01*
G37*
G36*
G01*
X39250000Y-36662500D02*
X39250000Y-36387500D01*
G75*
G02*
X39387500Y-36250000I137500J0D01*
G01*
X39662500Y-36250000D01*
G75*
G02*
X39800000Y-36387500I0J-137500D01*
G01*
X39800000Y-36662500D01*
G75*
G02*
X39662500Y-36800000I-137500J0D01*
G01*
X39387500Y-36800000D01*
G75*
G02*
X39250000Y-36662500I0J137500D01*
G01*
G37*
D10*
X37250000Y-29625000D03*
D11*
X37750000Y-29900000D03*
X38250000Y-29900000D03*
D12*
X38750000Y-29800000D03*
D11*
X39250000Y-29900000D03*
X39750000Y-29900000D03*
X40250000Y-29900000D03*
X40750000Y-29900000D03*
D12*
X41250000Y-29800000D03*
D11*
X41750000Y-29900000D03*
X42250000Y-29900000D03*
D10*
X42750000Y-29625000D03*
D13*
X34200000Y-41200000D03*
D14*
X45800000Y-36740000D03*
X45800000Y-43260000D03*
D15*
X39350000Y-42300000D03*
X41800000Y-42300000D03*
D16*
X33800000Y-36100000D03*
D17*
X33800000Y-44500000D03*
D18*
X46200000Y-34975000D03*
D19*
X46200000Y-40000000D03*
D18*
X46200000Y-45025000D03*
D20*
X50400000Y-40210000D03*
X49384000Y-35130000D03*
X51416000Y-35130000D03*
D21*
X51035000Y-38940000D03*
X49765000Y-38940000D03*
X51035000Y-37670000D03*
X49765000Y-37670000D03*
X51035000Y-36400000D03*
X49765000Y-36400000D03*
M02*
