G04 #@! TF.GenerationSoftware,KiCad,Pcbnew,8.0.1-8.0.1-0~ubuntu20.04.1*
G04 #@! TF.CreationDate,2024-06-12T16:16:25+01:00*
G04 #@! TF.ProjectId,smolpad,736d6f6c-7061-4642-9e6b-696361645f70,rev?*
G04 #@! TF.SameCoordinates,Original*
G04 #@! TF.FileFunction,Copper,L1,Top*
G04 #@! TF.FilePolarity,Positive*
%FSLAX46Y46*%
G04 Gerber Fmt 4.6, Leading zero omitted, Abs format (unit mm)*
G04 Created by KiCad (PCBNEW 8.0.1-8.0.1-0~ubuntu20.04.1) date 2024-06-12 16:16:25*
%MOMM*%
%LPD*%
G01*
G04 APERTURE LIST*
G04 #@! TA.AperFunction,SMDPad,CuDef*
%ADD10R,0.250000X2.800000*%
G04 #@! TD*
G04 #@! TA.AperFunction,SMDPad,CuDef*
%ADD11R,0.250000X2.250000*%
G04 #@! TD*
G04 #@! TA.AperFunction,SMDPad,CuDef*
%ADD12R,0.250000X2.450000*%
G04 #@! TD*
G04 #@! TA.AperFunction,SMDPad,CuDef*
%ADD13R,0.700000X3.400000*%
G04 #@! TD*
G04 #@! TA.AperFunction,SMDPad,CuDef*
%ADD14R,1.600000X3.800000*%
G04 #@! TD*
G04 #@! TA.AperFunction,SMDPad,CuDef*
%ADD15R,1.600000X3.000000*%
G04 #@! TD*
G04 #@! TA.AperFunction,SMDPad,CuDef*
%ADD16R,1.600000X1.800000*%
G04 #@! TD*
G04 #@! TA.AperFunction,SMDPad,CuDef*
%ADD17R,1.600000X2.600000*%
G04 #@! TD*
G04 #@! TA.AperFunction,ConnectorPad*
%ADD18C,0.787400*%
G04 #@! TD*
G04 #@! TA.AperFunction,ViaPad*
%ADD19C,0.500000*%
G04 #@! TD*
G04 #@! TA.AperFunction,ViaPad*
%ADD20C,0.600000*%
G04 #@! TD*
G04 #@! TA.AperFunction,Conductor*
%ADD21C,0.200000*%
G04 #@! TD*
G04 APERTURE END LIST*
G04 #@! TA.AperFunction,SMDPad,CuDef*
G36*
G01*
X39250000Y-37612500D02*
X39250000Y-37337500D01*
G75*
G02*
X39387500Y-37200000I137500J0D01*
G01*
X39662500Y-37200000D01*
G75*
G02*
X39800000Y-37337500I0J-137500D01*
G01*
X39800000Y-37612500D01*
G75*
G02*
X39662500Y-37750000I-137500J0D01*
G01*
X39387500Y-37750000D01*
G75*
G02*
X39250000Y-37612500I0J137500D01*
G01*
G37*
G04 #@! TD.AperFunction*
G04 #@! TA.AperFunction,SMDPad,CuDef*
G36*
G01*
X40200000Y-37612500D02*
X40200000Y-37337500D01*
G75*
G02*
X40337500Y-37200000I137500J0D01*
G01*
X40612500Y-37200000D01*
G75*
G02*
X40750000Y-37337500I0J-137500D01*
G01*
X40750000Y-37612500D01*
G75*
G02*
X40612500Y-37750000I-137500J0D01*
G01*
X40337500Y-37750000D01*
G75*
G02*
X40200000Y-37612500I0J137500D01*
G01*
G37*
G04 #@! TD.AperFunction*
G04 #@! TA.AperFunction,SMDPad,CuDef*
G36*
G01*
X40200000Y-36662500D02*
X40200000Y-36387500D01*
G75*
G02*
X40337500Y-36250000I137500J0D01*
G01*
X40612500Y-36250000D01*
G75*
G02*
X40750000Y-36387500I0J-137500D01*
G01*
X40750000Y-36662500D01*
G75*
G02*
X40612500Y-36800000I-137500J0D01*
G01*
X40337500Y-36800000D01*
G75*
G02*
X40200000Y-36662500I0J137500D01*
G01*
G37*
G04 #@! TD.AperFunction*
G04 #@! TA.AperFunction,SMDPad,CuDef*
G36*
G01*
X39250000Y-36662500D02*
X39250000Y-36387500D01*
G75*
G02*
X39387500Y-36250000I137500J0D01*
G01*
X39662500Y-36250000D01*
G75*
G02*
X39800000Y-36387500I0J-137500D01*
G01*
X39800000Y-36662500D01*
G75*
G02*
X39662500Y-36800000I-137500J0D01*
G01*
X39387500Y-36800000D01*
G75*
G02*
X39250000Y-36662500I0J137500D01*
G01*
G37*
G04 #@! TD.AperFunction*
D10*
X37250000Y-29625000D03*
D11*
X37750000Y-29900000D03*
X38250000Y-29900000D03*
D12*
X38750000Y-29800000D03*
D11*
X39250000Y-29900000D03*
X39750000Y-29900000D03*
X40250000Y-29900000D03*
X40750000Y-29900000D03*
D12*
X41250000Y-29800000D03*
D11*
X41750000Y-29900000D03*
X42250000Y-29900000D03*
D10*
X42750000Y-29625000D03*
D13*
X39350000Y-42300000D03*
X41800000Y-42300000D03*
D14*
X33800000Y-36100000D03*
D15*
X33800000Y-44500000D03*
D16*
X46200000Y-34975000D03*
D17*
X46200000Y-40000000D03*
D16*
X46200000Y-45025000D03*
D18*
X51035000Y-38940000D03*
X49765000Y-38940000D03*
X51035000Y-37670000D03*
X49765000Y-37670000D03*
X51035000Y-36400000D03*
X49765000Y-36400000D03*
D19*
X41800000Y-36400000D03*
X40323397Y-34300000D03*
X38400000Y-37400000D03*
X35900000Y-36300000D03*
D20*
X35300000Y-46100000D03*
D19*
X36100000Y-34300000D03*
X44400000Y-35200000D03*
X42869787Y-46150000D03*
X44540990Y-45350000D03*
X43351719Y-45643462D03*
X45000000Y-42325000D03*
X43800000Y-37200000D03*
X48800000Y-38252538D03*
X49200000Y-40000000D03*
X52200000Y-38400000D03*
X39307193Y-39292807D03*
X44150000Y-39650000D03*
X41200000Y-32400000D03*
X38333452Y-32186186D03*
X38165092Y-40537780D03*
X38150000Y-39838909D03*
X39000000Y-32400000D03*
X45600000Y-38249998D03*
X46000000Y-42000000D03*
X42100000Y-34300000D03*
X35400000Y-35400000D03*
X37450000Y-37860000D03*
X38700000Y-45300000D03*
D21*
X52261300Y-35730475D02*
X52261300Y-34661300D01*
X51591775Y-36400000D02*
X52261300Y-35730475D01*
X52261300Y-34661300D02*
X51800000Y-34200000D01*
X46200000Y-40000000D02*
X46750000Y-40550000D01*
X45031538Y-46193462D02*
X42493462Y-46193462D01*
X51035000Y-36400000D02*
X51591775Y-36400000D01*
X46750000Y-44475000D02*
X46200000Y-45025000D01*
X48103386Y-37702538D02*
X47402538Y-37702538D01*
X51800000Y-34200000D02*
X48600000Y-34200000D01*
X46750000Y-35525000D02*
X46200000Y-34975000D01*
X42493462Y-46193462D02*
X42000000Y-45700000D01*
X48509703Y-37296221D02*
X48103386Y-37702538D01*
X47402538Y-37702538D02*
X46750000Y-37050000D01*
X46750000Y-37050000D02*
X46750000Y-35525000D01*
X48600000Y-34200000D02*
X48509703Y-34290297D01*
X46200000Y-45025000D02*
X45031538Y-46193462D01*
X46750000Y-40550000D02*
X46750000Y-44475000D01*
X48509703Y-34290297D02*
X48509703Y-37296221D01*
X43525000Y-37475000D02*
X43800000Y-37200000D01*
X51035000Y-38940000D02*
X51428699Y-39333699D01*
X44299998Y-37699998D02*
X43800000Y-37200000D01*
X43351719Y-45643462D02*
X43645181Y-45350000D01*
X44700000Y-37774998D02*
X44700000Y-42025000D01*
X40475000Y-37475000D02*
X43525000Y-37475000D01*
X44700000Y-42025000D02*
X45000000Y-42325000D01*
X49055300Y-41055300D02*
X48500000Y-40500000D01*
X48500000Y-38900000D02*
X48000000Y-38400000D01*
X45899998Y-37699998D02*
X44775000Y-37699998D01*
X48500000Y-40500000D02*
X48500000Y-38900000D01*
X51428699Y-40376736D02*
X50750135Y-41055300D01*
X43645181Y-45350000D02*
X44540990Y-45350000D01*
X44775000Y-37699998D02*
X44299998Y-37699998D01*
X46600000Y-38400000D02*
X45899998Y-37699998D01*
X51428699Y-39333699D02*
X51428699Y-40376736D01*
X44775000Y-37699998D02*
X44700000Y-37774998D01*
X48000000Y-38400000D02*
X46600000Y-38400000D01*
X50750135Y-41055300D02*
X49055300Y-41055300D01*
X49765000Y-37670000D02*
X49382538Y-37670000D01*
X49382538Y-37670000D02*
X48800000Y-38252538D01*
X49200000Y-39505000D02*
X49765000Y-38940000D01*
X49200000Y-40000000D02*
X49200000Y-39505000D01*
X39307193Y-39292807D02*
X39814386Y-39800000D01*
X51470000Y-37670000D02*
X52200000Y-38400000D01*
X39814386Y-39800000D02*
X44000000Y-39800000D01*
X44000000Y-39800000D02*
X44150000Y-39650000D01*
X51035000Y-37670000D02*
X51470000Y-37670000D01*
X41250000Y-32350000D02*
X41250000Y-29800000D01*
X38750000Y-31769638D02*
X38333452Y-32186186D01*
X41200000Y-32400000D02*
X41250000Y-32350000D01*
X38750000Y-29800000D02*
X38750000Y-31769638D01*
X41165686Y-33200000D02*
X40250000Y-32284314D01*
X36900000Y-37565686D02*
X39165686Y-35300000D01*
X38700000Y-39600000D02*
X37510000Y-38410000D01*
X39165686Y-35300000D02*
X40500000Y-35300000D01*
X38165092Y-40537780D02*
X38659687Y-40537780D01*
X36900000Y-38087818D02*
X36900000Y-37565686D01*
X40550000Y-35250000D02*
X42493503Y-35250000D01*
X38659687Y-40537780D02*
X38700000Y-40497467D01*
X38700000Y-40497467D02*
X38700000Y-39600000D01*
X40250000Y-32284314D02*
X40250000Y-29900000D01*
X42343504Y-33200000D02*
X41165686Y-33200000D01*
X43050000Y-34693504D02*
X43050000Y-33906497D01*
X37222182Y-38410000D02*
X36900000Y-38087818D01*
X37510000Y-38410000D02*
X37222182Y-38410000D01*
X40500000Y-35300000D02*
X40550000Y-35250000D01*
X43050000Y-33906497D02*
X42343504Y-33200000D01*
X42493503Y-35250000D02*
X43050000Y-34693504D01*
X39050000Y-34850000D02*
X42327818Y-34850000D01*
X42177818Y-33600000D02*
X41000000Y-33600000D01*
X41000000Y-33600000D02*
X39750000Y-32350000D01*
X36500000Y-38565686D02*
X36500000Y-37400000D01*
X39750000Y-32350000D02*
X39750000Y-29900000D01*
X42650000Y-34527818D02*
X42650000Y-34072182D01*
X37650000Y-39715686D02*
X36500000Y-38565686D01*
X38026777Y-39715686D02*
X37650000Y-39715686D01*
X38150000Y-39838909D02*
X38026777Y-39715686D01*
X42327818Y-34850000D02*
X42650000Y-34527818D01*
X36500000Y-37400000D02*
X39050000Y-34850000D01*
X42650000Y-34072182D02*
X42177818Y-33600000D01*
X39250000Y-29900000D02*
X39250000Y-32150000D01*
X39250000Y-32150000D02*
X39000000Y-32400000D01*
X45100000Y-38400000D02*
X45100000Y-41600000D01*
X45100000Y-41600000D02*
X45500000Y-42000000D01*
X45600000Y-38249998D02*
X45250002Y-38249998D01*
X45250002Y-38249998D02*
X45100000Y-38400000D01*
X45500000Y-42000000D02*
X46000000Y-42000000D01*
X39945579Y-33900000D02*
X37500000Y-33900000D01*
X42100000Y-34300000D02*
X41100000Y-34300000D01*
X41100000Y-34300000D02*
X40550000Y-33750000D01*
X40550000Y-33750000D02*
X40095579Y-33750000D01*
X37500000Y-33900000D02*
X36000000Y-35400000D01*
X36000000Y-35400000D02*
X35400000Y-35400000D01*
X40095579Y-33750000D02*
X39945579Y-33900000D01*
X39050000Y-37950000D02*
X39525000Y-37475000D01*
X37450000Y-37860000D02*
X37540000Y-37950000D01*
X37540000Y-37950000D02*
X39050000Y-37950000D01*
X39000000Y-43000000D02*
X39350000Y-42650000D01*
X39350000Y-42650000D02*
X39350000Y-42300000D01*
X38700000Y-45300000D02*
X39000000Y-45000000D01*
X39000000Y-45000000D02*
X39000000Y-43000000D01*
G04 #@! TA.AperFunction,Conductor*
G36*
X40442712Y-34069407D02*
G01*
X40454525Y-34079496D01*
X40755525Y-34380496D01*
X40783302Y-34435013D01*
X40773731Y-34495445D01*
X40730466Y-34538710D01*
X40685521Y-34549500D01*
X39089562Y-34549500D01*
X39010438Y-34549500D01*
X38963661Y-34562033D01*
X38934007Y-34569979D01*
X38865493Y-34609536D01*
X36315489Y-37159540D01*
X36315488Y-37159539D01*
X36259539Y-37215489D01*
X36219980Y-37284007D01*
X36219978Y-37284011D01*
X36199500Y-37360435D01*
X36199500Y-38605250D01*
X36219977Y-38681671D01*
X36219978Y-38681673D01*
X36219979Y-38681675D01*
X36255943Y-38743967D01*
X36259540Y-38750197D01*
X37465489Y-39956146D01*
X37465491Y-39956147D01*
X37465492Y-39956148D01*
X37465493Y-39956149D01*
X37534008Y-39995706D01*
X37534006Y-39995706D01*
X37534010Y-39995707D01*
X37534012Y-39995708D01*
X37610438Y-40016186D01*
X37672081Y-40016186D01*
X37730272Y-40035093D01*
X37762134Y-40074059D01*
X37767118Y-40084972D01*
X37808060Y-40132223D01*
X37831877Y-40188582D01*
X37818018Y-40248177D01*
X37808060Y-40261883D01*
X37782210Y-40291716D01*
X37728394Y-40409554D01*
X37709959Y-40537777D01*
X37709959Y-40537782D01*
X37728394Y-40666005D01*
X37767249Y-40751083D01*
X37782210Y-40783843D01*
X37831609Y-40840853D01*
X37867044Y-40881748D01*
X37953454Y-40937280D01*
X37976023Y-40951784D01*
X38100320Y-40988280D01*
X38100322Y-40988280D01*
X38229862Y-40988280D01*
X38229864Y-40988280D01*
X38354161Y-40951784D01*
X38463141Y-40881747D01*
X38471197Y-40872450D01*
X38523592Y-40840853D01*
X38546017Y-40838280D01*
X38700500Y-40838280D01*
X38758691Y-40857187D01*
X38794655Y-40906687D01*
X38799500Y-40937280D01*
X38799500Y-42734521D01*
X38780593Y-42792712D01*
X38770506Y-42804522D01*
X38759540Y-42815488D01*
X38719980Y-42884007D01*
X38719978Y-42884011D01*
X38699500Y-42960435D01*
X38699500Y-44756517D01*
X38680593Y-44814708D01*
X38631093Y-44850672D01*
X38628391Y-44851507D01*
X38510933Y-44885995D01*
X38510926Y-44885998D01*
X38401952Y-44956031D01*
X38317117Y-45053938D01*
X38263302Y-45171774D01*
X38244867Y-45299997D01*
X38244867Y-45300002D01*
X38263302Y-45428225D01*
X38317117Y-45546061D01*
X38317118Y-45546063D01*
X38401515Y-45643464D01*
X38401952Y-45643968D01*
X38510926Y-45714001D01*
X38510931Y-45714004D01*
X38635228Y-45750500D01*
X38635230Y-45750500D01*
X38764770Y-45750500D01*
X38764772Y-45750500D01*
X38889069Y-45714004D01*
X38998049Y-45643967D01*
X39082882Y-45546063D01*
X39136697Y-45428226D01*
X39155133Y-45300000D01*
X39155133Y-45299997D01*
X39155508Y-45297388D01*
X39182503Y-45242480D01*
X39183401Y-45241568D01*
X39240460Y-45184511D01*
X39251442Y-45165489D01*
X39280021Y-45115989D01*
X39300500Y-45039562D01*
X39300500Y-44299500D01*
X39319407Y-44241309D01*
X39368907Y-44205345D01*
X39399500Y-44200500D01*
X39719747Y-44200500D01*
X39719748Y-44200500D01*
X39778231Y-44188867D01*
X39844552Y-44144552D01*
X39888867Y-44078231D01*
X39894915Y-44047824D01*
X40949999Y-44047824D01*
X40956401Y-44107370D01*
X40956403Y-44107381D01*
X41006646Y-44242088D01*
X41006647Y-44242090D01*
X41092807Y-44357184D01*
X41092815Y-44357192D01*
X41207909Y-44443352D01*
X41207911Y-44443353D01*
X41342618Y-44493596D01*
X41342629Y-44493598D01*
X41402176Y-44500000D01*
X41549999Y-44500000D01*
X41550000Y-44499999D01*
X42050000Y-44499999D01*
X42050001Y-44500000D01*
X42197824Y-44500000D01*
X42257370Y-44493598D01*
X42257381Y-44493596D01*
X42392088Y-44443353D01*
X42392090Y-44443352D01*
X42507184Y-44357192D01*
X42507192Y-44357184D01*
X42593352Y-44242090D01*
X42593353Y-44242088D01*
X42643596Y-44107381D01*
X42643598Y-44107370D01*
X42650000Y-44047824D01*
X42650000Y-42550001D01*
X42649999Y-42550000D01*
X42050001Y-42550000D01*
X42050000Y-42550001D01*
X42050000Y-44499999D01*
X41550000Y-44499999D01*
X41550000Y-42550001D01*
X41549999Y-42550000D01*
X40950001Y-42550000D01*
X40950000Y-42550001D01*
X40950000Y-44047824D01*
X40949999Y-44047824D01*
X39894915Y-44047824D01*
X39900500Y-44019748D01*
X39900500Y-40580252D01*
X39888867Y-40521769D01*
X39844552Y-40455448D01*
X39837147Y-40450500D01*
X39778233Y-40411134D01*
X39778231Y-40411133D01*
X39778228Y-40411132D01*
X39778227Y-40411132D01*
X39719758Y-40399501D01*
X39719748Y-40399500D01*
X39719747Y-40399500D01*
X39099500Y-40399500D01*
X39041309Y-40380593D01*
X39005345Y-40331093D01*
X39000500Y-40300500D01*
X39000500Y-39804521D01*
X39019407Y-39746330D01*
X39068907Y-39710366D01*
X39127387Y-39709531D01*
X39242421Y-39743307D01*
X39291714Y-39743307D01*
X39349905Y-39762214D01*
X39361718Y-39772303D01*
X39573926Y-39984511D01*
X39573925Y-39984511D01*
X39629875Y-40040460D01*
X39698393Y-40080019D01*
X39698397Y-40080021D01*
X39774821Y-40100499D01*
X39774823Y-40100500D01*
X41001567Y-40100500D01*
X41059758Y-40119407D01*
X41095722Y-40168907D01*
X41095722Y-40230093D01*
X41080820Y-40258830D01*
X41006645Y-40357912D01*
X40956403Y-40492618D01*
X40956401Y-40492629D01*
X40950000Y-40552175D01*
X40950000Y-42049999D01*
X40950001Y-42050000D01*
X42649999Y-42050000D01*
X42650000Y-42049999D01*
X42650000Y-40552175D01*
X42643598Y-40492629D01*
X42643596Y-40492618D01*
X42593354Y-40357912D01*
X42519180Y-40258830D01*
X42499443Y-40200915D01*
X42517517Y-40142460D01*
X42566498Y-40105792D01*
X42598433Y-40100500D01*
X44039564Y-40100500D01*
X44045998Y-40099653D01*
X44046230Y-40101415D01*
X44077887Y-40101792D01*
X44078218Y-40099492D01*
X44085226Y-40100499D01*
X44085228Y-40100500D01*
X44085230Y-40100500D01*
X44214770Y-40100500D01*
X44214772Y-40100500D01*
X44272611Y-40083517D01*
X44333768Y-40085264D01*
X44382221Y-40122626D01*
X44399500Y-40178507D01*
X44399500Y-42064564D01*
X44419977Y-42140985D01*
X44419977Y-42140986D01*
X44419979Y-42140989D01*
X44452186Y-42196774D01*
X44459540Y-42209511D01*
X44459541Y-42209512D01*
X44516503Y-42266474D01*
X44544280Y-42320991D01*
X44544491Y-42322389D01*
X44563302Y-42453225D01*
X44587540Y-42506297D01*
X44617118Y-42571063D01*
X44641652Y-42599377D01*
X44701952Y-42668968D01*
X44777996Y-42717838D01*
X44810931Y-42739004D01*
X44935228Y-42775500D01*
X44935232Y-42775500D01*
X44942235Y-42776507D01*
X44941914Y-42778738D01*
X44990139Y-42794407D01*
X45026103Y-42843907D01*
X45026103Y-42905093D01*
X45023412Y-42912386D01*
X44982185Y-43011914D01*
X44982183Y-43011920D01*
X44949500Y-43176230D01*
X44949500Y-43343769D01*
X44982183Y-43508079D01*
X44982185Y-43508085D01*
X45046297Y-43662864D01*
X45047875Y-43665816D01*
X45048143Y-43667321D01*
X45048158Y-43667356D01*
X45048150Y-43667359D01*
X45058629Y-43726049D01*
X45039816Y-43771810D01*
X44956647Y-43882909D01*
X44956646Y-43882911D01*
X44906403Y-44017618D01*
X44906401Y-44017629D01*
X44900000Y-44077175D01*
X44900000Y-44863905D01*
X44881093Y-44922096D01*
X44831593Y-44958060D01*
X44770407Y-44958060D01*
X44747478Y-44947190D01*
X44730062Y-44935997D01*
X44730056Y-44935995D01*
X44605764Y-44899500D01*
X44605762Y-44899500D01*
X44476218Y-44899500D01*
X44476215Y-44899500D01*
X44351923Y-44935995D01*
X44351916Y-44935998D01*
X44242941Y-45006032D01*
X44242940Y-45006033D01*
X44234885Y-45015330D01*
X44182490Y-45046927D01*
X44160065Y-45049500D01*
X43605616Y-45049500D01*
X43529193Y-45069978D01*
X43470375Y-45103937D01*
X43470374Y-45103937D01*
X43460672Y-45109538D01*
X43460670Y-45109539D01*
X43406243Y-45163966D01*
X43351726Y-45191743D01*
X43336240Y-45192962D01*
X43286944Y-45192962D01*
X43162652Y-45229457D01*
X43162645Y-45229460D01*
X43053671Y-45299493D01*
X42968836Y-45397400D01*
X42915021Y-45515236D01*
X42896586Y-45643459D01*
X42896586Y-45643464D01*
X42915021Y-45771687D01*
X42967927Y-45887532D01*
X42968837Y-45889525D01*
X43041015Y-45972824D01*
X43053671Y-45987430D01*
X43162645Y-46057463D01*
X43162650Y-46057466D01*
X43286947Y-46093962D01*
X43286949Y-46093962D01*
X43416489Y-46093962D01*
X43416491Y-46093962D01*
X43540788Y-46057466D01*
X43649768Y-45987429D01*
X43734601Y-45889525D01*
X43788416Y-45771688D01*
X43793631Y-45735410D01*
X43820627Y-45680504D01*
X43874741Y-45651950D01*
X43891624Y-45650500D01*
X44160065Y-45650500D01*
X44218256Y-45669407D01*
X44234885Y-45684670D01*
X44242940Y-45693966D01*
X44242941Y-45693967D01*
X44330906Y-45750499D01*
X44351921Y-45764004D01*
X44476218Y-45800500D01*
X44476220Y-45800500D01*
X44605760Y-45800500D01*
X44605762Y-45800500D01*
X44730059Y-45764004D01*
X44747476Y-45752810D01*
X44806650Y-45737255D01*
X44863667Y-45759453D01*
X44896747Y-45810925D01*
X44900000Y-45836094D01*
X44900000Y-45972824D01*
X44899999Y-45972824D01*
X44906401Y-46032370D01*
X44906403Y-46032381D01*
X44956646Y-46167088D01*
X44956647Y-46167090D01*
X45012104Y-46241171D01*
X45031841Y-46299086D01*
X45013767Y-46357541D01*
X44964786Y-46394208D01*
X44932851Y-46399500D01*
X35123294Y-46399500D01*
X35065103Y-46380593D01*
X35029139Y-46331093D01*
X35029139Y-46269907D01*
X35040256Y-46248468D01*
X35039959Y-46248306D01*
X35043353Y-46242088D01*
X35093596Y-46107381D01*
X35093598Y-46107370D01*
X35100000Y-46047824D01*
X35100000Y-44750001D01*
X35099999Y-44750000D01*
X33649000Y-44750000D01*
X33590809Y-44731093D01*
X33554845Y-44681593D01*
X33550000Y-44651000D01*
X33550000Y-44249999D01*
X34050000Y-44249999D01*
X34050001Y-44250000D01*
X35099999Y-44250000D01*
X35100000Y-44249999D01*
X35100000Y-42952175D01*
X35093598Y-42892629D01*
X35093596Y-42892618D01*
X35043353Y-42757911D01*
X35043352Y-42757909D01*
X34957192Y-42642815D01*
X34957184Y-42642807D01*
X34842090Y-42556647D01*
X34842088Y-42556646D01*
X34707381Y-42506403D01*
X34707370Y-42506401D01*
X34647824Y-42500000D01*
X34050001Y-42500000D01*
X34050000Y-42500001D01*
X34050000Y-44249999D01*
X33550000Y-44249999D01*
X33550000Y-42500001D01*
X33549999Y-42500000D01*
X32952173Y-42500000D01*
X32910081Y-42504525D01*
X32850203Y-42491945D01*
X32809155Y-42446573D01*
X32800500Y-42406092D01*
X32800500Y-41276382D01*
X33424500Y-41276382D01*
X33454302Y-41426204D01*
X33454302Y-41426206D01*
X33512759Y-41567334D01*
X33512759Y-41567335D01*
X33555049Y-41630626D01*
X33597630Y-41694352D01*
X33705648Y-41802370D01*
X33832663Y-41887239D01*
X33973795Y-41945698D01*
X34123620Y-41975500D01*
X34123621Y-41975500D01*
X34276379Y-41975500D01*
X34276380Y-41975500D01*
X34426205Y-41945698D01*
X34567337Y-41887239D01*
X34694352Y-41802370D01*
X34802370Y-41694352D01*
X34887239Y-41567337D01*
X34945698Y-41426205D01*
X34975500Y-41276380D01*
X34975500Y-41123620D01*
X34945698Y-40973795D01*
X34897397Y-40857187D01*
X34887240Y-40832665D01*
X34887240Y-40832664D01*
X34835212Y-40754800D01*
X34802370Y-40705648D01*
X34694352Y-40597630D01*
X34567337Y-40512761D01*
X34567336Y-40512760D01*
X34567334Y-40512759D01*
X34426205Y-40454302D01*
X34276382Y-40424500D01*
X34276380Y-40424500D01*
X34123620Y-40424500D01*
X34123617Y-40424500D01*
X33973795Y-40454302D01*
X33973793Y-40454302D01*
X33832665Y-40512759D01*
X33705648Y-40597630D01*
X33705644Y-40597633D01*
X33597633Y-40705644D01*
X33597630Y-40705648D01*
X33512759Y-40832664D01*
X33512759Y-40832665D01*
X33454302Y-40973793D01*
X33454302Y-40973795D01*
X33424500Y-41123617D01*
X33424500Y-41276382D01*
X32800500Y-41276382D01*
X32800500Y-38593907D01*
X32819407Y-38535716D01*
X32868907Y-38499752D01*
X32910084Y-38495474D01*
X32952178Y-38500000D01*
X33549999Y-38500000D01*
X33550000Y-38499999D01*
X34050000Y-38499999D01*
X34050001Y-38500000D01*
X34647824Y-38500000D01*
X34707370Y-38493598D01*
X34707381Y-38493596D01*
X34842088Y-38443353D01*
X34842090Y-38443352D01*
X34957184Y-38357192D01*
X34957192Y-38357184D01*
X35043352Y-38242090D01*
X35043353Y-38242088D01*
X35093596Y-38107381D01*
X35093598Y-38107370D01*
X35100000Y-38047824D01*
X35100000Y-36350001D01*
X35099999Y-36350000D01*
X34050001Y-36350000D01*
X34050000Y-36350001D01*
X34050000Y-38499999D01*
X33550000Y-38499999D01*
X33550000Y-35949000D01*
X33568907Y-35890809D01*
X33618407Y-35854845D01*
X33649000Y-35850000D01*
X35099999Y-35850000D01*
X35111469Y-35838530D01*
X35165985Y-35810752D01*
X35209365Y-35813543D01*
X35210927Y-35814001D01*
X35210931Y-35814004D01*
X35335228Y-35850500D01*
X35335230Y-35850500D01*
X35464770Y-35850500D01*
X35464772Y-35850500D01*
X35589069Y-35814004D01*
X35698049Y-35743967D01*
X35706105Y-35734670D01*
X35758500Y-35703073D01*
X35780925Y-35700500D01*
X36039563Y-35700500D01*
X36039563Y-35700499D01*
X36115989Y-35680021D01*
X36184511Y-35640460D01*
X36240460Y-35584511D01*
X37595475Y-34229496D01*
X37649992Y-34201719D01*
X37665479Y-34200500D01*
X39985142Y-34200500D01*
X39985142Y-34200499D01*
X40061568Y-34180021D01*
X40130090Y-34140460D01*
X40186039Y-34084511D01*
X40191054Y-34079496D01*
X40245571Y-34051719D01*
X40261058Y-34050500D01*
X40384521Y-34050500D01*
X40442712Y-34069407D01*
G37*
G04 #@! TD.AperFunction*
G04 #@! TA.AperFunction,Conductor*
G36*
X47149795Y-41808052D02*
G01*
X47190845Y-41853424D01*
X47199500Y-41893907D01*
X47199500Y-43531092D01*
X47180593Y-43589283D01*
X47131093Y-43625247D01*
X47089919Y-43629525D01*
X47047826Y-43625000D01*
X46715191Y-43625000D01*
X46657000Y-43606093D01*
X46621036Y-43556593D01*
X46618093Y-43506688D01*
X46650500Y-43343767D01*
X46650500Y-43176233D01*
X46617816Y-43011918D01*
X46553703Y-42857137D01*
X46460626Y-42717838D01*
X46342162Y-42599374D01*
X46278215Y-42556646D01*
X46251298Y-42538660D01*
X46213419Y-42490610D01*
X46211017Y-42429472D01*
X46245010Y-42378598D01*
X46252766Y-42373068D01*
X46298049Y-42343967D01*
X46382882Y-42246063D01*
X46436697Y-42128226D01*
X46445850Y-42064564D01*
X46455133Y-42000002D01*
X46455133Y-41999996D01*
X46442638Y-41913089D01*
X46453071Y-41852799D01*
X46496950Y-41810157D01*
X46540630Y-41800000D01*
X47047822Y-41800000D01*
X47089916Y-41795474D01*
X47149795Y-41808052D01*
G37*
G04 #@! TD.AperFunction*
G04 #@! TA.AperFunction,Conductor*
G36*
X52758691Y-33619407D02*
G01*
X52794655Y-33668907D01*
X52799500Y-33699500D01*
X52799500Y-38173167D01*
X52780593Y-38231358D01*
X52731093Y-38267322D01*
X52669907Y-38267322D01*
X52620407Y-38231358D01*
X52610447Y-38214294D01*
X52591026Y-38171769D01*
X52582882Y-38153937D01*
X52498049Y-38056033D01*
X52498048Y-38056032D01*
X52498047Y-38056031D01*
X52389073Y-37985998D01*
X52389070Y-37985996D01*
X52389069Y-37985996D01*
X52368713Y-37980019D01*
X52264774Y-37949500D01*
X52264772Y-37949500D01*
X52215479Y-37949500D01*
X52157288Y-37930593D01*
X52145475Y-37920504D01*
X51901738Y-37676767D01*
X51654511Y-37429540D01*
X51654508Y-37429538D01*
X51654507Y-37429537D01*
X51637949Y-37419978D01*
X51637949Y-37419977D01*
X51637945Y-37419976D01*
X51604430Y-37400626D01*
X51585990Y-37389979D01*
X51585745Y-37389878D01*
X51585534Y-37389716D01*
X51580369Y-37386734D01*
X51580761Y-37386054D01*
X51545087Y-37358680D01*
X51533537Y-37343628D01*
X51483431Y-37278328D01*
X51463008Y-37220653D01*
X51464632Y-37200019D01*
X51467264Y-37185818D01*
X51063996Y-36782549D01*
X51036219Y-36728033D01*
X51035000Y-36712546D01*
X51035000Y-36400001D01*
X51035000Y-36400000D01*
X51034999Y-36400000D01*
X50722454Y-36400000D01*
X50664263Y-36381093D01*
X50652451Y-36371004D01*
X50251355Y-35969909D01*
X50231595Y-35972511D01*
X50171434Y-35961360D01*
X50158414Y-35952905D01*
X50064664Y-35880968D01*
X50064663Y-35880967D01*
X49935033Y-35827273D01*
X49888508Y-35787536D01*
X49874224Y-35728041D01*
X49897639Y-35671514D01*
X49902916Y-35665805D01*
X49954541Y-35614180D01*
X50602733Y-35614180D01*
X51034999Y-36046447D01*
X51818642Y-36830089D01*
X51818643Y-36830089D01*
X51855931Y-36765505D01*
X51913985Y-36586834D01*
X51933622Y-36400000D01*
X51913985Y-36213165D01*
X51855930Y-36034492D01*
X51855930Y-36034491D01*
X51776688Y-35897242D01*
X51763966Y-35837393D01*
X51788852Y-35781498D01*
X51807416Y-35765430D01*
X51891420Y-35709301D01*
X51995301Y-35605420D01*
X52076920Y-35483269D01*
X52133140Y-35347542D01*
X52161800Y-35203455D01*
X52161800Y-35056545D01*
X52133140Y-34912458D01*
X52105030Y-34844594D01*
X52076921Y-34776733D01*
X52076921Y-34776732D01*
X52042354Y-34725000D01*
X51995301Y-34654580D01*
X51891420Y-34550699D01*
X51769269Y-34469080D01*
X51769268Y-34469079D01*
X51769266Y-34469078D01*
X51633542Y-34412860D01*
X51489457Y-34384200D01*
X51489455Y-34384200D01*
X51342545Y-34384200D01*
X51342542Y-34384200D01*
X51198458Y-34412860D01*
X51198456Y-34412860D01*
X51062733Y-34469078D01*
X51062732Y-34469078D01*
X50940580Y-34550699D01*
X50940576Y-34550702D01*
X50836702Y-34654576D01*
X50836699Y-34654580D01*
X50755078Y-34776732D01*
X50755078Y-34776733D01*
X50698860Y-34912456D01*
X50698860Y-34912458D01*
X50670200Y-35056542D01*
X50670200Y-35203457D01*
X50698860Y-35347541D01*
X50698860Y-35347543D01*
X50740234Y-35447429D01*
X50745035Y-35508426D01*
X50713065Y-35560595D01*
X50689037Y-35575755D01*
X50602733Y-35614179D01*
X50602733Y-35614180D01*
X49954541Y-35614180D01*
X49963293Y-35605428D01*
X49963301Y-35605420D01*
X50044920Y-35483269D01*
X50101140Y-35347542D01*
X50129800Y-35203455D01*
X50129800Y-35056545D01*
X50101140Y-34912458D01*
X50073030Y-34844594D01*
X50044921Y-34776733D01*
X50044921Y-34776732D01*
X50010354Y-34725000D01*
X49963301Y-34654580D01*
X49859420Y-34550699D01*
X49737269Y-34469080D01*
X49737268Y-34469079D01*
X49737266Y-34469078D01*
X49601542Y-34412860D01*
X49457457Y-34384200D01*
X49457455Y-34384200D01*
X49310545Y-34384200D01*
X49310542Y-34384200D01*
X49166458Y-34412860D01*
X49166456Y-34412860D01*
X49030733Y-34469078D01*
X49030732Y-34469078D01*
X48908580Y-34550699D01*
X48908576Y-34550702D01*
X48804702Y-34654576D01*
X48804699Y-34654580D01*
X48723078Y-34776732D01*
X48723078Y-34776733D01*
X48666860Y-34912456D01*
X48666860Y-34912458D01*
X48638200Y-35056542D01*
X48638200Y-35203457D01*
X48666860Y-35347541D01*
X48666860Y-35347543D01*
X48723078Y-35483266D01*
X48723078Y-35483267D01*
X48739889Y-35508426D01*
X48804699Y-35605420D01*
X48908580Y-35709301D01*
X49030731Y-35790920D01*
X49030732Y-35790920D01*
X49030733Y-35790921D01*
X49036952Y-35793497D01*
X49166458Y-35847140D01*
X49247851Y-35863329D01*
X49301234Y-35893225D01*
X49326851Y-35948790D01*
X49314915Y-36008800D01*
X49307080Y-36020694D01*
X49245965Y-36100341D01*
X49186095Y-36244882D01*
X49186094Y-36244882D01*
X49165673Y-36399999D01*
X49165673Y-36400000D01*
X49186094Y-36555117D01*
X49245966Y-36699660D01*
X49245968Y-36699664D01*
X49341212Y-36823788D01*
X49444374Y-36902947D01*
X49465335Y-36919031D01*
X49465336Y-36919032D01*
X49524494Y-36943536D01*
X49571019Y-36983273D01*
X49585303Y-37042768D01*
X49561888Y-37099296D01*
X49524494Y-37126464D01*
X49465338Y-37150967D01*
X49341217Y-37246207D01*
X49341207Y-37246217D01*
X49245968Y-37370335D01*
X49241664Y-37380726D01*
X49201924Y-37427250D01*
X49199709Y-37428567D01*
X49198034Y-37429533D01*
X49198027Y-37429539D01*
X48854524Y-37773042D01*
X48800008Y-37800819D01*
X48784521Y-37802038D01*
X48735225Y-37802038D01*
X48610933Y-37838533D01*
X48610926Y-37838536D01*
X48501952Y-37908569D01*
X48417117Y-38006476D01*
X48363300Y-38124316D01*
X48361731Y-38129661D01*
X48327193Y-38180166D01*
X48269565Y-38200725D01*
X48210859Y-38183484D01*
X48196744Y-38171773D01*
X48184511Y-38159540D01*
X48174808Y-38153938D01*
X48174806Y-38153936D01*
X48174806Y-38153937D01*
X48115989Y-38119979D01*
X48115988Y-38119978D01*
X48115987Y-38119978D01*
X48039564Y-38099500D01*
X48039562Y-38099500D01*
X46765479Y-38099500D01*
X46707288Y-38080593D01*
X46695475Y-38070504D01*
X46237695Y-37612724D01*
X46209918Y-37558207D01*
X46219489Y-37497775D01*
X46252697Y-37460405D01*
X46274264Y-37445994D01*
X46342162Y-37400626D01*
X46460626Y-37282162D01*
X46553703Y-37142863D01*
X46617816Y-36988082D01*
X46650500Y-36823767D01*
X46650500Y-36656233D01*
X46618093Y-36493311D01*
X46625285Y-36432553D01*
X46666817Y-36387623D01*
X46715191Y-36375000D01*
X47047822Y-36375000D01*
X47089916Y-36370474D01*
X47149795Y-36383052D01*
X47190845Y-36428424D01*
X47199500Y-36468907D01*
X47199500Y-37072916D01*
X47234398Y-37214502D01*
X47234398Y-37214503D01*
X47234399Y-37214504D01*
X47302169Y-37343628D01*
X47398870Y-37452782D01*
X47518884Y-37535621D01*
X47655236Y-37587332D01*
X47784324Y-37603006D01*
X47799999Y-37604910D01*
X47800000Y-37604910D01*
X47800001Y-37604910D01*
X47814144Y-37603192D01*
X47944764Y-37587332D01*
X48081116Y-37535621D01*
X48201130Y-37452782D01*
X48297831Y-37343628D01*
X48365601Y-37214504D01*
X48400500Y-37072914D01*
X48400500Y-37000000D01*
X48400500Y-36960118D01*
X48400500Y-33699500D01*
X48419407Y-33641309D01*
X48468907Y-33605345D01*
X48499500Y-33600500D01*
X52700500Y-33600500D01*
X52758691Y-33619407D01*
G37*
G04 #@! TD.AperFunction*
G04 #@! TA.AperFunction,Conductor*
G36*
X42803691Y-29518907D02*
G01*
X42839655Y-29568407D01*
X42844500Y-29599000D01*
X42844500Y-30281392D01*
X42870834Y-30396772D01*
X42870453Y-30396858D01*
X42875000Y-30423613D01*
X42875000Y-31524999D01*
X42875001Y-31525000D01*
X42922824Y-31525000D01*
X42982370Y-31518598D01*
X42982374Y-31518597D01*
X43010902Y-31507957D01*
X43072031Y-31505336D01*
X43123026Y-31539146D01*
X43144409Y-31596474D01*
X43144500Y-31600715D01*
X43144500Y-32878844D01*
X43175263Y-33033496D01*
X43175263Y-33033498D01*
X43235603Y-33179174D01*
X43235609Y-33179185D01*
X43288312Y-33258059D01*
X43323211Y-33310289D01*
X43434711Y-33421789D01*
X43506831Y-33469978D01*
X43565814Y-33509390D01*
X43565825Y-33509396D01*
X43566173Y-33509540D01*
X43711503Y-33569737D01*
X43866158Y-33600500D01*
X43905118Y-33600500D01*
X44932851Y-33600500D01*
X44991042Y-33619407D01*
X45027006Y-33668907D01*
X45027006Y-33730093D01*
X45012104Y-33758829D01*
X44956647Y-33832909D01*
X44956646Y-33832911D01*
X44906403Y-33967618D01*
X44906401Y-33967629D01*
X44900000Y-34027175D01*
X44900000Y-34724999D01*
X44900001Y-34725000D01*
X46351000Y-34725000D01*
X46409191Y-34743907D01*
X46445155Y-34793407D01*
X46450000Y-34824000D01*
X46450000Y-35126000D01*
X46431093Y-35184191D01*
X46381593Y-35220155D01*
X46351000Y-35225000D01*
X44900001Y-35225000D01*
X44900000Y-35225001D01*
X44900000Y-35922824D01*
X44899999Y-35922824D01*
X44906401Y-35982370D01*
X44906403Y-35982381D01*
X44956646Y-36117088D01*
X44956647Y-36117090D01*
X45039816Y-36228189D01*
X45059553Y-36286103D01*
X45047878Y-36334178D01*
X45046297Y-36337135D01*
X44982185Y-36491914D01*
X44982183Y-36491920D01*
X44949500Y-36656230D01*
X44949500Y-36823769D01*
X44982183Y-36988079D01*
X44982185Y-36988085D01*
X45046296Y-37142862D01*
X45057440Y-37159540D01*
X45114875Y-37245497D01*
X45131484Y-37304384D01*
X45110307Y-37361788D01*
X45059433Y-37395781D01*
X45032560Y-37399498D01*
X44465477Y-37399498D01*
X44407286Y-37380591D01*
X44395473Y-37370502D01*
X44283496Y-37258525D01*
X44255719Y-37204008D01*
X44255508Y-37202609D01*
X44236698Y-37071775D01*
X44206650Y-37005980D01*
X44182882Y-36953937D01*
X44098049Y-36856033D01*
X44098048Y-36856032D01*
X44098047Y-36856031D01*
X43989073Y-36785998D01*
X43989070Y-36785996D01*
X43989069Y-36785996D01*
X43989066Y-36785995D01*
X43864774Y-36749500D01*
X43864772Y-36749500D01*
X43735228Y-36749500D01*
X43735225Y-36749500D01*
X43610933Y-36785995D01*
X43610926Y-36785998D01*
X43501952Y-36856031D01*
X43417117Y-36953938D01*
X43363302Y-37071774D01*
X43360741Y-37089589D01*
X43333745Y-37144496D01*
X43279631Y-37173050D01*
X43262749Y-37174500D01*
X40968510Y-37174500D01*
X40910319Y-37155593D01*
X40898506Y-37145504D01*
X40893644Y-37140642D01*
X40893644Y-37140641D01*
X40823004Y-37070001D01*
X40795229Y-37015487D01*
X40804800Y-36955055D01*
X40823003Y-36929999D01*
X40893644Y-36859359D01*
X40944019Y-36751330D01*
X40950500Y-36702103D01*
X40950499Y-36347898D01*
X40944019Y-36298670D01*
X40893644Y-36190641D01*
X40809359Y-36106356D01*
X40809357Y-36106355D01*
X40809356Y-36106354D01*
X40701335Y-36055983D01*
X40701333Y-36055982D01*
X40701330Y-36055981D01*
X40652103Y-36049500D01*
X40652101Y-36049500D01*
X40297900Y-36049500D01*
X40297892Y-36049501D01*
X40248670Y-36055980D01*
X40140643Y-36106354D01*
X40056354Y-36190643D01*
X40005983Y-36298664D01*
X40005981Y-36298671D01*
X39999500Y-36347898D01*
X39999500Y-36363045D01*
X39980593Y-36421236D01*
X39970504Y-36433049D01*
X39525000Y-36878553D01*
X39524999Y-36878553D01*
X39433047Y-36970504D01*
X39378530Y-36998281D01*
X39363049Y-36999500D01*
X39347903Y-36999500D01*
X39347891Y-36999501D01*
X39298670Y-37005980D01*
X39190643Y-37056354D01*
X39106354Y-37140643D01*
X39055983Y-37248664D01*
X39055981Y-37248668D01*
X39055981Y-37248670D01*
X39051301Y-37284222D01*
X39049500Y-37297898D01*
X39049500Y-37484521D01*
X39030593Y-37542712D01*
X39020504Y-37554524D01*
X38954526Y-37620503D01*
X38900010Y-37648281D01*
X38884522Y-37649500D01*
X37908909Y-37649500D01*
X37850718Y-37630593D01*
X37834089Y-37615330D01*
X37748049Y-37516033D01*
X37748048Y-37516032D01*
X37639067Y-37445994D01*
X37635307Y-37444277D01*
X37590231Y-37402902D01*
X37578084Y-37342935D01*
X37603505Y-37287280D01*
X37606411Y-37284245D01*
X38580998Y-36309658D01*
X38635513Y-36281883D01*
X38695945Y-36291454D01*
X38739210Y-36334719D01*
X38750000Y-36379664D01*
X38750000Y-36726877D01*
X38752844Y-36763019D01*
X38752845Y-36763027D01*
X38793496Y-36902947D01*
X38793497Y-36902948D01*
X39525001Y-36171447D01*
X39902948Y-35793497D01*
X39902501Y-35791757D01*
X39856034Y-35760178D01*
X39835308Y-35702610D01*
X39852378Y-35643854D01*
X39900724Y-35606353D01*
X39934259Y-35600500D01*
X40539563Y-35600500D01*
X40539563Y-35600499D01*
X40615989Y-35580021D01*
X40626404Y-35574007D01*
X40644150Y-35563763D01*
X40693649Y-35550500D01*
X42533066Y-35550500D01*
X42533066Y-35550499D01*
X42609492Y-35530021D01*
X42678014Y-35490460D01*
X42733963Y-35434511D01*
X42733962Y-35434511D01*
X43290460Y-34878015D01*
X43329475Y-34810438D01*
X43330021Y-34809493D01*
X43350500Y-34733066D01*
X43350500Y-33866935D01*
X43330021Y-33790508D01*
X43323234Y-33778753D01*
X43290460Y-33721986D01*
X43234511Y-33666036D01*
X43234511Y-33666037D01*
X42528015Y-32959540D01*
X42528012Y-32959538D01*
X42459496Y-32919980D01*
X42459492Y-32919978D01*
X42383068Y-32899500D01*
X42383066Y-32899500D01*
X41580059Y-32899500D01*
X41521868Y-32880593D01*
X41485904Y-32831093D01*
X41485904Y-32769907D01*
X41505239Y-32735670D01*
X41537704Y-32698200D01*
X41582882Y-32646063D01*
X41636697Y-32528226D01*
X41645645Y-32465989D01*
X41655133Y-32400002D01*
X41655133Y-32399997D01*
X41636697Y-32271774D01*
X41582882Y-32153936D01*
X41582881Y-32153935D01*
X41574679Y-32144469D01*
X41550863Y-32088109D01*
X41550500Y-32079640D01*
X41550500Y-31324500D01*
X41569407Y-31266309D01*
X41618907Y-31230345D01*
X41649500Y-31225500D01*
X41894747Y-31225500D01*
X41894748Y-31225500D01*
X41953231Y-31213867D01*
X41953236Y-31213863D01*
X41962113Y-31210187D01*
X42023110Y-31205386D01*
X42037887Y-31210187D01*
X42046765Y-31213864D01*
X42046769Y-31213867D01*
X42105252Y-31225500D01*
X42105261Y-31225500D01*
X42110088Y-31225976D01*
X42109850Y-31228389D01*
X42159148Y-31244407D01*
X42180210Y-31265171D01*
X42267807Y-31382184D01*
X42267815Y-31382192D01*
X42382909Y-31468352D01*
X42382911Y-31468353D01*
X42517618Y-31518596D01*
X42517629Y-31518598D01*
X42577176Y-31525000D01*
X42624999Y-31525000D01*
X42625000Y-31524999D01*
X42625000Y-29599000D01*
X42643907Y-29540809D01*
X42693407Y-29504845D01*
X42724000Y-29500000D01*
X42745500Y-29500000D01*
X42803691Y-29518907D01*
G37*
G04 #@! TD.AperFunction*
G04 #@! TA.AperFunction,Conductor*
G36*
X37334191Y-29518907D02*
G01*
X37370155Y-29568407D01*
X37375000Y-29599000D01*
X37375000Y-31524999D01*
X37375001Y-31525000D01*
X37422824Y-31525000D01*
X37482370Y-31518598D01*
X37482381Y-31518596D01*
X37617088Y-31468353D01*
X37617090Y-31468352D01*
X37732184Y-31382192D01*
X37732192Y-31382184D01*
X37819790Y-31265171D01*
X37869799Y-31229918D01*
X37889999Y-31226866D01*
X37889912Y-31225976D01*
X37894738Y-31225500D01*
X37894748Y-31225500D01*
X37953231Y-31213867D01*
X37953236Y-31213863D01*
X37962113Y-31210187D01*
X38023110Y-31205386D01*
X38037887Y-31210187D01*
X38046765Y-31213864D01*
X38046769Y-31213867D01*
X38105252Y-31225500D01*
X38105253Y-31225500D01*
X38350500Y-31225500D01*
X38408691Y-31244407D01*
X38444655Y-31293907D01*
X38449500Y-31324500D01*
X38449500Y-31604159D01*
X38430593Y-31662350D01*
X38420504Y-31674163D01*
X38387977Y-31706690D01*
X38333460Y-31734467D01*
X38317973Y-31735686D01*
X38268677Y-31735686D01*
X38144385Y-31772181D01*
X38144378Y-31772184D01*
X38035404Y-31842217D01*
X37950569Y-31940124D01*
X37896754Y-32057960D01*
X37878319Y-32186183D01*
X37878319Y-32186188D01*
X37896754Y-32314411D01*
X37935841Y-32399997D01*
X37950570Y-32432249D01*
X38033733Y-32528226D01*
X38035404Y-32530154D01*
X38144378Y-32600187D01*
X38144383Y-32600190D01*
X38268680Y-32636686D01*
X38268682Y-32636686D01*
X38398222Y-32636686D01*
X38398224Y-32636686D01*
X38506193Y-32604984D01*
X38567352Y-32606731D01*
X38611981Y-32641145D01*
X38612482Y-32640712D01*
X38614622Y-32643181D01*
X38615805Y-32644094D01*
X38617083Y-32646022D01*
X38617117Y-32646061D01*
X38617118Y-32646063D01*
X38694762Y-32735670D01*
X38701952Y-32743968D01*
X38789140Y-32800000D01*
X38810931Y-32814004D01*
X38935228Y-32850500D01*
X38935230Y-32850500D01*
X39064770Y-32850500D01*
X39064772Y-32850500D01*
X39189069Y-32814004D01*
X39298049Y-32743967D01*
X39382882Y-32646063D01*
X39389154Y-32632328D01*
X39398331Y-32612236D01*
X39439703Y-32567158D01*
X39499670Y-32555007D01*
X39555326Y-32580425D01*
X39558364Y-32583335D01*
X39934567Y-32959538D01*
X40255525Y-33280496D01*
X40283302Y-33335013D01*
X40273731Y-33395445D01*
X40230466Y-33438710D01*
X40185521Y-33449500D01*
X40056014Y-33449500D01*
X39979591Y-33469978D01*
X39945195Y-33489837D01*
X39945194Y-33489836D01*
X39911066Y-33509540D01*
X39850103Y-33570504D01*
X39795586Y-33598281D01*
X39780100Y-33599500D01*
X37460435Y-33599500D01*
X37384011Y-33619978D01*
X37384007Y-33619980D01*
X37315491Y-33659538D01*
X35904525Y-35070504D01*
X35850008Y-35098281D01*
X35834521Y-35099500D01*
X35780925Y-35099500D01*
X35722734Y-35080593D01*
X35706105Y-35065330D01*
X35698049Y-35056033D01*
X35698048Y-35056032D01*
X35589073Y-34985998D01*
X35589070Y-34985996D01*
X35589069Y-34985996D01*
X35589066Y-34985995D01*
X35464774Y-34949500D01*
X35464772Y-34949500D01*
X35335228Y-34949500D01*
X35335226Y-34949500D01*
X35335222Y-34949501D01*
X35226890Y-34981309D01*
X35165730Y-34979561D01*
X35117278Y-34942198D01*
X35100000Y-34886319D01*
X35100000Y-34152175D01*
X35093598Y-34092629D01*
X35093596Y-34092618D01*
X35043353Y-33957911D01*
X35043352Y-33957909D01*
X34957192Y-33842815D01*
X34957187Y-33842810D01*
X34871619Y-33778753D01*
X34836367Y-33728744D01*
X34837241Y-33667565D01*
X34873909Y-33618584D01*
X34930949Y-33600500D01*
X36133841Y-33600500D01*
X36133842Y-33600500D01*
X36288497Y-33569737D01*
X36434179Y-33509394D01*
X36565289Y-33421789D01*
X36676789Y-33310289D01*
X36764394Y-33179179D01*
X36824737Y-33033497D01*
X36855500Y-32878842D01*
X36855500Y-32800000D01*
X36855500Y-32760118D01*
X36855500Y-32185118D01*
X36855500Y-31600715D01*
X36874407Y-31542524D01*
X36923907Y-31506560D01*
X36985093Y-31506560D01*
X36989098Y-31507957D01*
X37017625Y-31518597D01*
X37017629Y-31518598D01*
X37077176Y-31525000D01*
X37124999Y-31525000D01*
X37125000Y-31524999D01*
X37125000Y-30423613D01*
X37129546Y-30396858D01*
X37129166Y-30396772D01*
X37155500Y-30281392D01*
X37155500Y-29599000D01*
X37174407Y-29540809D01*
X37223907Y-29504845D01*
X37254500Y-29500000D01*
X37276000Y-29500000D01*
X37334191Y-29518907D01*
G37*
G04 #@! TD.AperFunction*
M02*
