M48
; DRILL file {KiCad 8.0.1-8.0.1-0~ubuntu20.04.1} date 2024-06-12T16:16:25+0100
; FORMAT={-:-/ absolute / metric / decimal}
; #@! TF.CreationDate,2024-06-12T16:16:25+01:00
; #@! TF.GenerationSoftware,Kicad,Pcbnew,8.0.1-8.0.1-0~ubuntu20.04.1
; #@! TF.FileFunction,Plated,1,2,PTH
FMAT,2
METRIC
; #@! TA.AperFunction,Plated,PTH,ViaDrill
T1C0.300
%
G90
G05
T1
X35.3Y-46.1
X35.4Y-35.4
X35.9Y-36.3
X36.1Y-34.3
X37.45Y-37.86
X38.15Y-39.839
X38.165Y-40.538
X38.333Y-32.186
X38.4Y-37.4
X38.7Y-45.3
X39.0Y-32.4
X39.307Y-39.293
X40.323Y-34.3
X41.2Y-32.4
X41.8Y-36.4
X42.1Y-34.3
X42.87Y-46.15
X43.352Y-45.643
X43.8Y-37.2
X44.15Y-39.65
X44.4Y-35.2
X44.541Y-45.35
X45.0Y-42.325
X45.6Y-38.25
X46.0Y-42.0
X48.8Y-38.253
X49.2Y-40.0
X52.2Y-38.4
M30
