G04 #@! TF.GenerationSoftware,KiCad,Pcbnew,8.0.1-8.0.1-0~ubuntu20.04.1*
G04 #@! TF.CreationDate,2024-06-12T16:16:25+01:00*
G04 #@! TF.ProjectId,smolpad,736d6f6c-7061-4642-9e6b-696361645f70,rev?*
G04 #@! TF.SameCoordinates,Original*
G04 #@! TF.FileFunction,Legend,Bot*
G04 #@! TF.FilePolarity,Positive*
%FSLAX46Y46*%
G04 Gerber Fmt 4.6, Leading zero omitted, Abs format (unit mm)*
G04 Created by KiCad (PCBNEW 8.0.1-8.0.1-0~ubuntu20.04.1) date 2024-06-12 16:16:25*
%MOMM*%
%LPD*%
G01*
G04 APERTURE LIST*
%ADD10C,0.120000*%
G04 APERTURE END LIST*
D10*
X37787836Y-36040000D02*
X37572164Y-36040000D01*
X37787836Y-36760000D02*
X37572164Y-36760000D01*
X33200000Y-34000000D02*
X35200000Y-34000000D01*
X33200000Y-35950000D02*
X33200000Y-34000000D01*
X33200000Y-36000000D02*
X33200000Y-35950000D01*
X35200000Y-34000000D02*
X35200000Y-36000000D01*
X35200000Y-36000000D02*
X33200000Y-36000000D01*
X35906155Y-36000000D02*
G75*
G02*
X35493845Y-36000000I-206155J0D01*
G01*
X35493845Y-36000000D02*
G75*
G02*
X35906155Y-36000000I206155J0D01*
G01*
X44800000Y-34000000D02*
X46800000Y-34000000D01*
X44800000Y-35950000D02*
X44800000Y-34000000D01*
X44800000Y-36000000D02*
X44800000Y-35950000D01*
X46800000Y-34000000D02*
X46800000Y-36000000D01*
X46800000Y-36000000D02*
X44800000Y-36000000D01*
X47506155Y-36000000D02*
G75*
G02*
X47093845Y-36000000I-206155J0D01*
G01*
X47093845Y-36000000D02*
G75*
G02*
X47506155Y-36000000I206155J0D01*
G01*
X38590000Y-40190000D02*
X39065000Y-40190000D01*
X38590000Y-40665000D02*
X38590000Y-40190000D01*
X38590000Y-44935000D02*
X38590000Y-45410000D01*
X38590000Y-45410000D02*
X39065000Y-45410000D01*
X43510000Y-40190000D02*
X43335000Y-40190000D01*
X43810000Y-40430000D02*
X43810000Y-40665000D01*
X43810000Y-44935000D02*
X43810000Y-45410000D01*
X43810000Y-45410000D02*
X43335000Y-45410000D01*
X43810000Y-40190000D02*
X43570000Y-39860000D01*
X44050000Y-39860000D01*
X43810000Y-40190000D01*
G36*
X43810000Y-40190000D02*
G01*
X43570000Y-39860000D01*
X44050000Y-39860000D01*
X43810000Y-40190000D01*
G37*
X35700000Y-37900000D02*
X37100000Y-37900000D01*
X35700000Y-39300000D02*
X35700000Y-37900000D01*
X37100000Y-37900000D02*
X37100000Y-39300000D01*
X37100000Y-39300000D02*
X35700000Y-39300000D01*
X44800000Y-44000000D02*
X44850000Y-44000000D01*
X44800000Y-46000000D02*
X44800000Y-44000000D01*
X44850000Y-44000000D02*
X46800000Y-44000000D01*
X46800000Y-44000000D02*
X46800000Y-46000000D01*
X46800000Y-46000000D02*
X44800000Y-46000000D01*
X45006155Y-46500000D02*
G75*
G02*
X44593845Y-46500000I-206155J0D01*
G01*
X44593845Y-46500000D02*
G75*
G02*
X45006155Y-46500000I206155J0D01*
G01*
X44020000Y-38553641D02*
X44020000Y-38246359D01*
X44780000Y-38553641D02*
X44780000Y-38246359D01*
X33200000Y-44000000D02*
X35200000Y-44000000D01*
X33200000Y-46000000D02*
X33200000Y-44000000D01*
X35200000Y-44000000D02*
X35200000Y-44050000D01*
X35200000Y-44050000D02*
X35200000Y-46000000D01*
X35200000Y-46000000D02*
X33200000Y-46000000D01*
X32906155Y-44000000D02*
G75*
G02*
X32493845Y-44000000I-206155J0D01*
G01*
X32493845Y-44000000D02*
G75*
G02*
X32906155Y-44000000I206155J0D01*
G01*
X37700000Y-37900000D02*
X39100000Y-37900000D01*
X37700000Y-39300000D02*
X37700000Y-37900000D01*
X39100000Y-37900000D02*
X39100000Y-39300000D01*
X39100000Y-39300000D02*
X37700000Y-39300000D01*
X40153641Y-32620000D02*
X39846359Y-32620000D01*
X40153641Y-33380000D02*
X39846359Y-33380000D01*
X41640000Y-38507836D02*
X41640000Y-38292164D01*
X42360000Y-38507836D02*
X42360000Y-38292164D01*
X39700000Y-37900000D02*
X41100000Y-37900000D01*
X39700000Y-39300000D02*
X39700000Y-37900000D01*
X41100000Y-37900000D02*
X41100000Y-39300000D01*
X41100000Y-39300000D02*
X39700000Y-39300000D01*
X37190000Y-34182000D02*
X37190000Y-35482000D01*
X38810000Y-34182000D02*
X38810000Y-35322000D01*
X38730000Y-35932000D02*
X38730000Y-35652000D01*
X39010000Y-35652000D01*
X38730000Y-35932000D01*
G36*
X38730000Y-35932000D02*
G01*
X38730000Y-35652000D01*
X39010000Y-35652000D01*
X38730000Y-35932000D01*
G37*
X35700000Y-41900000D02*
X37100000Y-41900000D01*
X35700000Y-43300000D02*
X35700000Y-41900000D01*
X37100000Y-41900000D02*
X37100000Y-43300000D01*
X37100000Y-43300000D02*
X35700000Y-43300000D01*
X35700000Y-39900000D02*
X37100000Y-39900000D01*
X35700000Y-41300000D02*
X35700000Y-39900000D01*
X37100000Y-39900000D02*
X37100000Y-41300000D01*
X37100000Y-41300000D02*
X35700000Y-41300000D01*
X35700000Y-43900000D02*
X37100000Y-43900000D01*
X35700000Y-45300000D02*
X35700000Y-43900000D01*
X37100000Y-43900000D02*
X37100000Y-45300000D01*
X37100000Y-45300000D02*
X35700000Y-45300000D01*
X42840000Y-38292164D02*
X42840000Y-38507836D01*
X43560000Y-38292164D02*
X43560000Y-38507836D01*
X37987836Y-32640000D02*
X37772164Y-32640000D01*
X37987836Y-33360000D02*
X37772164Y-33360000D01*
M02*
