%TF.GenerationSoftware,KiCad,Pcbnew,8.0.1-8.0.1-0~ubuntu20.04.1*%
%TF.CreationDate,2024-06-12T16:16:27+01:00*%
%TF.ProjectId,smolpad,736d6f6c-7061-4642-9e6b-696361645f70,rev?*%
%TF.SameCoordinates,Original*%
%TF.FileFunction,AssemblyDrawing,Bot*%
%FSLAX46Y46*%
G04 Gerber Fmt 4.6, Leading zero omitted, Abs format (unit mm)*
G04 Created by KiCad (PCBNEW 8.0.1-8.0.1-0~ubuntu20.04.1) date 2024-06-12 16:16:27*
%MOMM*%
%LPD*%
G01*
G04 APERTURE LIST*
%ADD10C,0.040000*%
%ADD11C,0.150000*%
%ADD12C,0.075000*%
%ADD13C,0.100000*%
G04 APERTURE END LIST*
D10*
X37721666Y-36489765D02*
X37733570Y-36501670D01*
X37733570Y-36501670D02*
X37769285Y-36513574D01*
X37769285Y-36513574D02*
X37793094Y-36513574D01*
X37793094Y-36513574D02*
X37828808Y-36501670D01*
X37828808Y-36501670D02*
X37852618Y-36477860D01*
X37852618Y-36477860D02*
X37864523Y-36454050D01*
X37864523Y-36454050D02*
X37876427Y-36406431D01*
X37876427Y-36406431D02*
X37876427Y-36370717D01*
X37876427Y-36370717D02*
X37864523Y-36323098D01*
X37864523Y-36323098D02*
X37852618Y-36299289D01*
X37852618Y-36299289D02*
X37828808Y-36275479D01*
X37828808Y-36275479D02*
X37793094Y-36263574D01*
X37793094Y-36263574D02*
X37769285Y-36263574D01*
X37769285Y-36263574D02*
X37733570Y-36275479D01*
X37733570Y-36275479D02*
X37721666Y-36287384D01*
X37483570Y-36513574D02*
X37626427Y-36513574D01*
X37554999Y-36513574D02*
X37554999Y-36263574D01*
X37554999Y-36263574D02*
X37578808Y-36299289D01*
X37578808Y-36299289D02*
X37602618Y-36323098D01*
X37602618Y-36323098D02*
X37626427Y-36335003D01*
D11*
X35216666Y-39454819D02*
X35549999Y-38978628D01*
X35788094Y-39454819D02*
X35788094Y-38454819D01*
X35788094Y-38454819D02*
X35407142Y-38454819D01*
X35407142Y-38454819D02*
X35311904Y-38502438D01*
X35311904Y-38502438D02*
X35264285Y-38550057D01*
X35264285Y-38550057D02*
X35216666Y-38645295D01*
X35216666Y-38645295D02*
X35216666Y-38788152D01*
X35216666Y-38788152D02*
X35264285Y-38883390D01*
X35264285Y-38883390D02*
X35311904Y-38931009D01*
X35311904Y-38931009D02*
X35407142Y-38978628D01*
X35407142Y-38978628D02*
X35788094Y-38978628D01*
X34264285Y-38502438D02*
X34359523Y-38454819D01*
X34359523Y-38454819D02*
X34502380Y-38454819D01*
X34502380Y-38454819D02*
X34645237Y-38502438D01*
X34645237Y-38502438D02*
X34740475Y-38597676D01*
X34740475Y-38597676D02*
X34788094Y-38692914D01*
X34788094Y-38692914D02*
X34835713Y-38883390D01*
X34835713Y-38883390D02*
X34835713Y-39026247D01*
X34835713Y-39026247D02*
X34788094Y-39216723D01*
X34788094Y-39216723D02*
X34740475Y-39311961D01*
X34740475Y-39311961D02*
X34645237Y-39407200D01*
X34645237Y-39407200D02*
X34502380Y-39454819D01*
X34502380Y-39454819D02*
X34407142Y-39454819D01*
X34407142Y-39454819D02*
X34264285Y-39407200D01*
X34264285Y-39407200D02*
X34216666Y-39359580D01*
X34216666Y-39359580D02*
X34216666Y-39026247D01*
X34216666Y-39026247D02*
X34407142Y-39026247D01*
X33454761Y-38931009D02*
X33311904Y-38978628D01*
X33311904Y-38978628D02*
X33264285Y-39026247D01*
X33264285Y-39026247D02*
X33216666Y-39121485D01*
X33216666Y-39121485D02*
X33216666Y-39264342D01*
X33216666Y-39264342D02*
X33264285Y-39359580D01*
X33264285Y-39359580D02*
X33311904Y-39407200D01*
X33311904Y-39407200D02*
X33407142Y-39454819D01*
X33407142Y-39454819D02*
X33788094Y-39454819D01*
X33788094Y-39454819D02*
X33788094Y-38454819D01*
X33788094Y-38454819D02*
X33454761Y-38454819D01*
X33454761Y-38454819D02*
X33359523Y-38502438D01*
X33359523Y-38502438D02*
X33311904Y-38550057D01*
X33311904Y-38550057D02*
X33264285Y-38645295D01*
X33264285Y-38645295D02*
X33264285Y-38740533D01*
X33264285Y-38740533D02*
X33311904Y-38835771D01*
X33311904Y-38835771D02*
X33359523Y-38883390D01*
X33359523Y-38883390D02*
X33454761Y-38931009D01*
X33454761Y-38931009D02*
X33788094Y-38931009D01*
X32835713Y-38550057D02*
X32788094Y-38502438D01*
X32788094Y-38502438D02*
X32692856Y-38454819D01*
X32692856Y-38454819D02*
X32454761Y-38454819D01*
X32454761Y-38454819D02*
X32359523Y-38502438D01*
X32359523Y-38502438D02*
X32311904Y-38550057D01*
X32311904Y-38550057D02*
X32264285Y-38645295D01*
X32264285Y-38645295D02*
X32264285Y-38740533D01*
X32264285Y-38740533D02*
X32311904Y-38883390D01*
X32311904Y-38883390D02*
X32883332Y-39454819D01*
X32883332Y-39454819D02*
X32264285Y-39454819D01*
X46816666Y-39454819D02*
X47149999Y-38978628D01*
X47388094Y-39454819D02*
X47388094Y-38454819D01*
X47388094Y-38454819D02*
X47007142Y-38454819D01*
X47007142Y-38454819D02*
X46911904Y-38502438D01*
X46911904Y-38502438D02*
X46864285Y-38550057D01*
X46864285Y-38550057D02*
X46816666Y-38645295D01*
X46816666Y-38645295D02*
X46816666Y-38788152D01*
X46816666Y-38788152D02*
X46864285Y-38883390D01*
X46864285Y-38883390D02*
X46911904Y-38931009D01*
X46911904Y-38931009D02*
X47007142Y-38978628D01*
X47007142Y-38978628D02*
X47388094Y-38978628D01*
X45864285Y-38502438D02*
X45959523Y-38454819D01*
X45959523Y-38454819D02*
X46102380Y-38454819D01*
X46102380Y-38454819D02*
X46245237Y-38502438D01*
X46245237Y-38502438D02*
X46340475Y-38597676D01*
X46340475Y-38597676D02*
X46388094Y-38692914D01*
X46388094Y-38692914D02*
X46435713Y-38883390D01*
X46435713Y-38883390D02*
X46435713Y-39026247D01*
X46435713Y-39026247D02*
X46388094Y-39216723D01*
X46388094Y-39216723D02*
X46340475Y-39311961D01*
X46340475Y-39311961D02*
X46245237Y-39407200D01*
X46245237Y-39407200D02*
X46102380Y-39454819D01*
X46102380Y-39454819D02*
X46007142Y-39454819D01*
X46007142Y-39454819D02*
X45864285Y-39407200D01*
X45864285Y-39407200D02*
X45816666Y-39359580D01*
X45816666Y-39359580D02*
X45816666Y-39026247D01*
X45816666Y-39026247D02*
X46007142Y-39026247D01*
X45054761Y-38931009D02*
X44911904Y-38978628D01*
X44911904Y-38978628D02*
X44864285Y-39026247D01*
X44864285Y-39026247D02*
X44816666Y-39121485D01*
X44816666Y-39121485D02*
X44816666Y-39264342D01*
X44816666Y-39264342D02*
X44864285Y-39359580D01*
X44864285Y-39359580D02*
X44911904Y-39407200D01*
X44911904Y-39407200D02*
X45007142Y-39454819D01*
X45007142Y-39454819D02*
X45388094Y-39454819D01*
X45388094Y-39454819D02*
X45388094Y-38454819D01*
X45388094Y-38454819D02*
X45054761Y-38454819D01*
X45054761Y-38454819D02*
X44959523Y-38502438D01*
X44959523Y-38502438D02*
X44911904Y-38550057D01*
X44911904Y-38550057D02*
X44864285Y-38645295D01*
X44864285Y-38645295D02*
X44864285Y-38740533D01*
X44864285Y-38740533D02*
X44911904Y-38835771D01*
X44911904Y-38835771D02*
X44959523Y-38883390D01*
X44959523Y-38883390D02*
X45054761Y-38931009D01*
X45054761Y-38931009D02*
X45388094Y-38931009D01*
X43864285Y-39454819D02*
X44435713Y-39454819D01*
X44149999Y-39454819D02*
X44149999Y-38454819D01*
X44149999Y-38454819D02*
X44245237Y-38597676D01*
X44245237Y-38597676D02*
X44340475Y-38692914D01*
X44340475Y-38692914D02*
X44435713Y-38740533D01*
X41961904Y-42254819D02*
X41961904Y-43064342D01*
X41961904Y-43064342D02*
X41914285Y-43159580D01*
X41914285Y-43159580D02*
X41866666Y-43207200D01*
X41866666Y-43207200D02*
X41771428Y-43254819D01*
X41771428Y-43254819D02*
X41580952Y-43254819D01*
X41580952Y-43254819D02*
X41485714Y-43207200D01*
X41485714Y-43207200D02*
X41438095Y-43159580D01*
X41438095Y-43159580D02*
X41390476Y-43064342D01*
X41390476Y-43064342D02*
X41390476Y-42254819D01*
X40390476Y-43254819D02*
X40961904Y-43254819D01*
X40676190Y-43254819D02*
X40676190Y-42254819D01*
X40676190Y-42254819D02*
X40771428Y-42397676D01*
X40771428Y-42397676D02*
X40866666Y-42492914D01*
X40866666Y-42492914D02*
X40961904Y-42540533D01*
X37661904Y-36604819D02*
X37090476Y-36604819D01*
X37376190Y-37604819D02*
X37376190Y-36604819D01*
X36757142Y-37604819D02*
X36757142Y-36604819D01*
X36757142Y-36604819D02*
X36376190Y-36604819D01*
X36376190Y-36604819D02*
X36280952Y-36652438D01*
X36280952Y-36652438D02*
X36233333Y-36700057D01*
X36233333Y-36700057D02*
X36185714Y-36795295D01*
X36185714Y-36795295D02*
X36185714Y-36938152D01*
X36185714Y-36938152D02*
X36233333Y-37033390D01*
X36233333Y-37033390D02*
X36280952Y-37081009D01*
X36280952Y-37081009D02*
X36376190Y-37128628D01*
X36376190Y-37128628D02*
X36757142Y-37128628D01*
X35852380Y-36604819D02*
X35233333Y-36604819D01*
X35233333Y-36604819D02*
X35566666Y-36985771D01*
X35566666Y-36985771D02*
X35423809Y-36985771D01*
X35423809Y-36985771D02*
X35328571Y-37033390D01*
X35328571Y-37033390D02*
X35280952Y-37081009D01*
X35280952Y-37081009D02*
X35233333Y-37176247D01*
X35233333Y-37176247D02*
X35233333Y-37414342D01*
X35233333Y-37414342D02*
X35280952Y-37509580D01*
X35280952Y-37509580D02*
X35328571Y-37557200D01*
X35328571Y-37557200D02*
X35423809Y-37604819D01*
X35423809Y-37604819D02*
X35709523Y-37604819D01*
X35709523Y-37604819D02*
X35804761Y-37557200D01*
X35804761Y-37557200D02*
X35852380Y-37509580D01*
X41345180Y-46016666D02*
X41821371Y-46349999D01*
X41345180Y-46588094D02*
X42345180Y-46588094D01*
X42345180Y-46588094D02*
X42345180Y-46207142D01*
X42345180Y-46207142D02*
X42297561Y-46111904D01*
X42297561Y-46111904D02*
X42249942Y-46064285D01*
X42249942Y-46064285D02*
X42154704Y-46016666D01*
X42154704Y-46016666D02*
X42011847Y-46016666D01*
X42011847Y-46016666D02*
X41916609Y-46064285D01*
X41916609Y-46064285D02*
X41868990Y-46111904D01*
X41868990Y-46111904D02*
X41821371Y-46207142D01*
X41821371Y-46207142D02*
X41821371Y-46588094D01*
X42297561Y-45064285D02*
X42345180Y-45159523D01*
X42345180Y-45159523D02*
X42345180Y-45302380D01*
X42345180Y-45302380D02*
X42297561Y-45445237D01*
X42297561Y-45445237D02*
X42202323Y-45540475D01*
X42202323Y-45540475D02*
X42107085Y-45588094D01*
X42107085Y-45588094D02*
X41916609Y-45635713D01*
X41916609Y-45635713D02*
X41773752Y-45635713D01*
X41773752Y-45635713D02*
X41583276Y-45588094D01*
X41583276Y-45588094D02*
X41488038Y-45540475D01*
X41488038Y-45540475D02*
X41392800Y-45445237D01*
X41392800Y-45445237D02*
X41345180Y-45302380D01*
X41345180Y-45302380D02*
X41345180Y-45207142D01*
X41345180Y-45207142D02*
X41392800Y-45064285D01*
X41392800Y-45064285D02*
X41440419Y-45016666D01*
X41440419Y-45016666D02*
X41773752Y-45016666D01*
X41773752Y-45016666D02*
X41773752Y-45207142D01*
X41868990Y-44254761D02*
X41821371Y-44111904D01*
X41821371Y-44111904D02*
X41773752Y-44064285D01*
X41773752Y-44064285D02*
X41678514Y-44016666D01*
X41678514Y-44016666D02*
X41535657Y-44016666D01*
X41535657Y-44016666D02*
X41440419Y-44064285D01*
X41440419Y-44064285D02*
X41392800Y-44111904D01*
X41392800Y-44111904D02*
X41345180Y-44207142D01*
X41345180Y-44207142D02*
X41345180Y-44588094D01*
X41345180Y-44588094D02*
X42345180Y-44588094D01*
X42345180Y-44588094D02*
X42345180Y-44254761D01*
X42345180Y-44254761D02*
X42297561Y-44159523D01*
X42297561Y-44159523D02*
X42249942Y-44111904D01*
X42249942Y-44111904D02*
X42154704Y-44064285D01*
X42154704Y-44064285D02*
X42059466Y-44064285D01*
X42059466Y-44064285D02*
X41964228Y-44111904D01*
X41964228Y-44111904D02*
X41916609Y-44159523D01*
X41916609Y-44159523D02*
X41868990Y-44254761D01*
X41868990Y-44254761D02*
X41868990Y-44588094D01*
X42345180Y-43683332D02*
X42345180Y-43064285D01*
X42345180Y-43064285D02*
X41964228Y-43397618D01*
X41964228Y-43397618D02*
X41964228Y-43254761D01*
X41964228Y-43254761D02*
X41916609Y-43159523D01*
X41916609Y-43159523D02*
X41868990Y-43111904D01*
X41868990Y-43111904D02*
X41773752Y-43064285D01*
X41773752Y-43064285D02*
X41535657Y-43064285D01*
X41535657Y-43064285D02*
X41440419Y-43111904D01*
X41440419Y-43111904D02*
X41392800Y-43159523D01*
X41392800Y-43159523D02*
X41345180Y-43254761D01*
X41345180Y-43254761D02*
X41345180Y-43540475D01*
X41345180Y-43540475D02*
X41392800Y-43635713D01*
X41392800Y-43635713D02*
X41440419Y-43683332D01*
D10*
X44518200Y-38356667D02*
X44394391Y-38270000D01*
X44518200Y-38208095D02*
X44258200Y-38208095D01*
X44258200Y-38208095D02*
X44258200Y-38307143D01*
X44258200Y-38307143D02*
X44270581Y-38331905D01*
X44270581Y-38331905D02*
X44282962Y-38344286D01*
X44282962Y-38344286D02*
X44307724Y-38356667D01*
X44307724Y-38356667D02*
X44344867Y-38356667D01*
X44344867Y-38356667D02*
X44369629Y-38344286D01*
X44369629Y-38344286D02*
X44382010Y-38331905D01*
X44382010Y-38331905D02*
X44394391Y-38307143D01*
X44394391Y-38307143D02*
X44394391Y-38208095D01*
X44518200Y-38604286D02*
X44518200Y-38455714D01*
X44518200Y-38530000D02*
X44258200Y-38530000D01*
X44258200Y-38530000D02*
X44295343Y-38505238D01*
X44295343Y-38505238D02*
X44320105Y-38480476D01*
X44320105Y-38480476D02*
X44332486Y-38455714D01*
D11*
X33183333Y-40545180D02*
X32850000Y-41021371D01*
X32611905Y-40545180D02*
X32611905Y-41545180D01*
X32611905Y-41545180D02*
X32992857Y-41545180D01*
X32992857Y-41545180D02*
X33088095Y-41497561D01*
X33088095Y-41497561D02*
X33135714Y-41449942D01*
X33135714Y-41449942D02*
X33183333Y-41354704D01*
X33183333Y-41354704D02*
X33183333Y-41211847D01*
X33183333Y-41211847D02*
X33135714Y-41116609D01*
X33135714Y-41116609D02*
X33088095Y-41068990D01*
X33088095Y-41068990D02*
X32992857Y-41021371D01*
X32992857Y-41021371D02*
X32611905Y-41021371D01*
X34135714Y-41497561D02*
X34040476Y-41545180D01*
X34040476Y-41545180D02*
X33897619Y-41545180D01*
X33897619Y-41545180D02*
X33754762Y-41497561D01*
X33754762Y-41497561D02*
X33659524Y-41402323D01*
X33659524Y-41402323D02*
X33611905Y-41307085D01*
X33611905Y-41307085D02*
X33564286Y-41116609D01*
X33564286Y-41116609D02*
X33564286Y-40973752D01*
X33564286Y-40973752D02*
X33611905Y-40783276D01*
X33611905Y-40783276D02*
X33659524Y-40688038D01*
X33659524Y-40688038D02*
X33754762Y-40592800D01*
X33754762Y-40592800D02*
X33897619Y-40545180D01*
X33897619Y-40545180D02*
X33992857Y-40545180D01*
X33992857Y-40545180D02*
X34135714Y-40592800D01*
X34135714Y-40592800D02*
X34183333Y-40640419D01*
X34183333Y-40640419D02*
X34183333Y-40973752D01*
X34183333Y-40973752D02*
X33992857Y-40973752D01*
X34945238Y-41068990D02*
X35088095Y-41021371D01*
X35088095Y-41021371D02*
X35135714Y-40973752D01*
X35135714Y-40973752D02*
X35183333Y-40878514D01*
X35183333Y-40878514D02*
X35183333Y-40735657D01*
X35183333Y-40735657D02*
X35135714Y-40640419D01*
X35135714Y-40640419D02*
X35088095Y-40592800D01*
X35088095Y-40592800D02*
X34992857Y-40545180D01*
X34992857Y-40545180D02*
X34611905Y-40545180D01*
X34611905Y-40545180D02*
X34611905Y-41545180D01*
X34611905Y-41545180D02*
X34945238Y-41545180D01*
X34945238Y-41545180D02*
X35040476Y-41497561D01*
X35040476Y-41497561D02*
X35088095Y-41449942D01*
X35088095Y-41449942D02*
X35135714Y-41354704D01*
X35135714Y-41354704D02*
X35135714Y-41259466D01*
X35135714Y-41259466D02*
X35088095Y-41164228D01*
X35088095Y-41164228D02*
X35040476Y-41116609D01*
X35040476Y-41116609D02*
X34945238Y-41068990D01*
X34945238Y-41068990D02*
X34611905Y-41068990D01*
X36040476Y-41211847D02*
X36040476Y-40545180D01*
X35802381Y-41592800D02*
X35564286Y-40878514D01*
X35564286Y-40878514D02*
X36183333Y-40878514D01*
X39661904Y-36604819D02*
X39090476Y-36604819D01*
X39376190Y-37604819D02*
X39376190Y-36604819D01*
X38757142Y-37604819D02*
X38757142Y-36604819D01*
X38757142Y-36604819D02*
X38376190Y-36604819D01*
X38376190Y-36604819D02*
X38280952Y-36652438D01*
X38280952Y-36652438D02*
X38233333Y-36700057D01*
X38233333Y-36700057D02*
X38185714Y-36795295D01*
X38185714Y-36795295D02*
X38185714Y-36938152D01*
X38185714Y-36938152D02*
X38233333Y-37033390D01*
X38233333Y-37033390D02*
X38280952Y-37081009D01*
X38280952Y-37081009D02*
X38376190Y-37128628D01*
X38376190Y-37128628D02*
X38757142Y-37128628D01*
X37804761Y-36700057D02*
X37757142Y-36652438D01*
X37757142Y-36652438D02*
X37661904Y-36604819D01*
X37661904Y-36604819D02*
X37423809Y-36604819D01*
X37423809Y-36604819D02*
X37328571Y-36652438D01*
X37328571Y-36652438D02*
X37280952Y-36700057D01*
X37280952Y-36700057D02*
X37233333Y-36795295D01*
X37233333Y-36795295D02*
X37233333Y-36890533D01*
X37233333Y-36890533D02*
X37280952Y-37033390D01*
X37280952Y-37033390D02*
X37852380Y-37604819D01*
X37852380Y-37604819D02*
X37233333Y-37604819D01*
D10*
X40043332Y-33118200D02*
X40129999Y-32994391D01*
X40191904Y-33118200D02*
X40191904Y-32858200D01*
X40191904Y-32858200D02*
X40092856Y-32858200D01*
X40092856Y-32858200D02*
X40068094Y-32870581D01*
X40068094Y-32870581D02*
X40055713Y-32882962D01*
X40055713Y-32882962D02*
X40043332Y-32907724D01*
X40043332Y-32907724D02*
X40043332Y-32944867D01*
X40043332Y-32944867D02*
X40055713Y-32969629D01*
X40055713Y-32969629D02*
X40068094Y-32982010D01*
X40068094Y-32982010D02*
X40092856Y-32994391D01*
X40092856Y-32994391D02*
X40191904Y-32994391D01*
X39944285Y-32882962D02*
X39931904Y-32870581D01*
X39931904Y-32870581D02*
X39907142Y-32858200D01*
X39907142Y-32858200D02*
X39845237Y-32858200D01*
X39845237Y-32858200D02*
X39820475Y-32870581D01*
X39820475Y-32870581D02*
X39808094Y-32882962D01*
X39808094Y-32882962D02*
X39795713Y-32907724D01*
X39795713Y-32907724D02*
X39795713Y-32932486D01*
X39795713Y-32932486D02*
X39808094Y-32969629D01*
X39808094Y-32969629D02*
X39956666Y-33118200D01*
X39956666Y-33118200D02*
X39795713Y-33118200D01*
X42089765Y-38358333D02*
X42101670Y-38346429D01*
X42101670Y-38346429D02*
X42113574Y-38310714D01*
X42113574Y-38310714D02*
X42113574Y-38286905D01*
X42113574Y-38286905D02*
X42101670Y-38251191D01*
X42101670Y-38251191D02*
X42077860Y-38227381D01*
X42077860Y-38227381D02*
X42054050Y-38215476D01*
X42054050Y-38215476D02*
X42006431Y-38203572D01*
X42006431Y-38203572D02*
X41970717Y-38203572D01*
X41970717Y-38203572D02*
X41923098Y-38215476D01*
X41923098Y-38215476D02*
X41899289Y-38227381D01*
X41899289Y-38227381D02*
X41875479Y-38251191D01*
X41875479Y-38251191D02*
X41863574Y-38286905D01*
X41863574Y-38286905D02*
X41863574Y-38310714D01*
X41863574Y-38310714D02*
X41875479Y-38346429D01*
X41875479Y-38346429D02*
X41887384Y-38358333D01*
X41887384Y-38453572D02*
X41875479Y-38465476D01*
X41875479Y-38465476D02*
X41863574Y-38489286D01*
X41863574Y-38489286D02*
X41863574Y-38548810D01*
X41863574Y-38548810D02*
X41875479Y-38572619D01*
X41875479Y-38572619D02*
X41887384Y-38584524D01*
X41887384Y-38584524D02*
X41911193Y-38596429D01*
X41911193Y-38596429D02*
X41935003Y-38596429D01*
X41935003Y-38596429D02*
X41970717Y-38584524D01*
X41970717Y-38584524D02*
X42113574Y-38441667D01*
X42113574Y-38441667D02*
X42113574Y-38596429D01*
D11*
X41661904Y-36604819D02*
X41090476Y-36604819D01*
X41376190Y-37604819D02*
X41376190Y-36604819D01*
X40757142Y-37604819D02*
X40757142Y-36604819D01*
X40757142Y-36604819D02*
X40376190Y-36604819D01*
X40376190Y-36604819D02*
X40280952Y-36652438D01*
X40280952Y-36652438D02*
X40233333Y-36700057D01*
X40233333Y-36700057D02*
X40185714Y-36795295D01*
X40185714Y-36795295D02*
X40185714Y-36938152D01*
X40185714Y-36938152D02*
X40233333Y-37033390D01*
X40233333Y-37033390D02*
X40280952Y-37081009D01*
X40280952Y-37081009D02*
X40376190Y-37128628D01*
X40376190Y-37128628D02*
X40757142Y-37128628D01*
X39233333Y-37604819D02*
X39804761Y-37604819D01*
X39519047Y-37604819D02*
X39519047Y-36604819D01*
X39519047Y-36604819D02*
X39614285Y-36747676D01*
X39614285Y-36747676D02*
X39709523Y-36842914D01*
X39709523Y-36842914D02*
X39804761Y-36890533D01*
D12*
X37702409Y-34451047D02*
X38107171Y-34451047D01*
X38107171Y-34451047D02*
X38154790Y-34474857D01*
X38154790Y-34474857D02*
X38178600Y-34498666D01*
X38178600Y-34498666D02*
X38202409Y-34546285D01*
X38202409Y-34546285D02*
X38202409Y-34641523D01*
X38202409Y-34641523D02*
X38178600Y-34689142D01*
X38178600Y-34689142D02*
X38154790Y-34712952D01*
X38154790Y-34712952D02*
X38107171Y-34736761D01*
X38107171Y-34736761D02*
X37702409Y-34736761D01*
X37750028Y-34951048D02*
X37726219Y-34974857D01*
X37726219Y-34974857D02*
X37702409Y-35022476D01*
X37702409Y-35022476D02*
X37702409Y-35141524D01*
X37702409Y-35141524D02*
X37726219Y-35189143D01*
X37726219Y-35189143D02*
X37750028Y-35212952D01*
X37750028Y-35212952D02*
X37797647Y-35236762D01*
X37797647Y-35236762D02*
X37845266Y-35236762D01*
X37845266Y-35236762D02*
X37916695Y-35212952D01*
X37916695Y-35212952D02*
X38202409Y-34927238D01*
X38202409Y-34927238D02*
X38202409Y-35236762D01*
D11*
X37661904Y-40604819D02*
X37090476Y-40604819D01*
X37376190Y-41604819D02*
X37376190Y-40604819D01*
X36757142Y-41604819D02*
X36757142Y-40604819D01*
X36757142Y-40604819D02*
X36376190Y-40604819D01*
X36376190Y-40604819D02*
X36280952Y-40652438D01*
X36280952Y-40652438D02*
X36233333Y-40700057D01*
X36233333Y-40700057D02*
X36185714Y-40795295D01*
X36185714Y-40795295D02*
X36185714Y-40938152D01*
X36185714Y-40938152D02*
X36233333Y-41033390D01*
X36233333Y-41033390D02*
X36280952Y-41081009D01*
X36280952Y-41081009D02*
X36376190Y-41128628D01*
X36376190Y-41128628D02*
X36757142Y-41128628D01*
X35280952Y-40604819D02*
X35757142Y-40604819D01*
X35757142Y-40604819D02*
X35804761Y-41081009D01*
X35804761Y-41081009D02*
X35757142Y-41033390D01*
X35757142Y-41033390D02*
X35661904Y-40985771D01*
X35661904Y-40985771D02*
X35423809Y-40985771D01*
X35423809Y-40985771D02*
X35328571Y-41033390D01*
X35328571Y-41033390D02*
X35280952Y-41081009D01*
X35280952Y-41081009D02*
X35233333Y-41176247D01*
X35233333Y-41176247D02*
X35233333Y-41414342D01*
X35233333Y-41414342D02*
X35280952Y-41509580D01*
X35280952Y-41509580D02*
X35328571Y-41557200D01*
X35328571Y-41557200D02*
X35423809Y-41604819D01*
X35423809Y-41604819D02*
X35661904Y-41604819D01*
X35661904Y-41604819D02*
X35757142Y-41557200D01*
X35757142Y-41557200D02*
X35804761Y-41509580D01*
X37661904Y-38604819D02*
X37090476Y-38604819D01*
X37376190Y-39604819D02*
X37376190Y-38604819D01*
X36757142Y-39604819D02*
X36757142Y-38604819D01*
X36757142Y-38604819D02*
X36376190Y-38604819D01*
X36376190Y-38604819D02*
X36280952Y-38652438D01*
X36280952Y-38652438D02*
X36233333Y-38700057D01*
X36233333Y-38700057D02*
X36185714Y-38795295D01*
X36185714Y-38795295D02*
X36185714Y-38938152D01*
X36185714Y-38938152D02*
X36233333Y-39033390D01*
X36233333Y-39033390D02*
X36280952Y-39081009D01*
X36280952Y-39081009D02*
X36376190Y-39128628D01*
X36376190Y-39128628D02*
X36757142Y-39128628D01*
X35328571Y-38938152D02*
X35328571Y-39604819D01*
X35566666Y-38557200D02*
X35804761Y-39271485D01*
X35804761Y-39271485D02*
X35185714Y-39271485D01*
X37661904Y-42604819D02*
X37090476Y-42604819D01*
X37376190Y-43604819D02*
X37376190Y-42604819D01*
X36757142Y-43604819D02*
X36757142Y-42604819D01*
X36757142Y-42604819D02*
X36376190Y-42604819D01*
X36376190Y-42604819D02*
X36280952Y-42652438D01*
X36280952Y-42652438D02*
X36233333Y-42700057D01*
X36233333Y-42700057D02*
X36185714Y-42795295D01*
X36185714Y-42795295D02*
X36185714Y-42938152D01*
X36185714Y-42938152D02*
X36233333Y-43033390D01*
X36233333Y-43033390D02*
X36280952Y-43081009D01*
X36280952Y-43081009D02*
X36376190Y-43128628D01*
X36376190Y-43128628D02*
X36757142Y-43128628D01*
X35328571Y-42604819D02*
X35519047Y-42604819D01*
X35519047Y-42604819D02*
X35614285Y-42652438D01*
X35614285Y-42652438D02*
X35661904Y-42700057D01*
X35661904Y-42700057D02*
X35757142Y-42842914D01*
X35757142Y-42842914D02*
X35804761Y-43033390D01*
X35804761Y-43033390D02*
X35804761Y-43414342D01*
X35804761Y-43414342D02*
X35757142Y-43509580D01*
X35757142Y-43509580D02*
X35709523Y-43557200D01*
X35709523Y-43557200D02*
X35614285Y-43604819D01*
X35614285Y-43604819D02*
X35423809Y-43604819D01*
X35423809Y-43604819D02*
X35328571Y-43557200D01*
X35328571Y-43557200D02*
X35280952Y-43509580D01*
X35280952Y-43509580D02*
X35233333Y-43414342D01*
X35233333Y-43414342D02*
X35233333Y-43176247D01*
X35233333Y-43176247D02*
X35280952Y-43081009D01*
X35280952Y-43081009D02*
X35328571Y-43033390D01*
X35328571Y-43033390D02*
X35423809Y-42985771D01*
X35423809Y-42985771D02*
X35614285Y-42985771D01*
X35614285Y-42985771D02*
X35709523Y-43033390D01*
X35709523Y-43033390D02*
X35757142Y-43081009D01*
X35757142Y-43081009D02*
X35804761Y-43176247D01*
D10*
X43289765Y-38358333D02*
X43301670Y-38346429D01*
X43301670Y-38346429D02*
X43313574Y-38310714D01*
X43313574Y-38310714D02*
X43313574Y-38286905D01*
X43313574Y-38286905D02*
X43301670Y-38251191D01*
X43301670Y-38251191D02*
X43277860Y-38227381D01*
X43277860Y-38227381D02*
X43254050Y-38215476D01*
X43254050Y-38215476D02*
X43206431Y-38203572D01*
X43206431Y-38203572D02*
X43170717Y-38203572D01*
X43170717Y-38203572D02*
X43123098Y-38215476D01*
X43123098Y-38215476D02*
X43099289Y-38227381D01*
X43099289Y-38227381D02*
X43075479Y-38251191D01*
X43075479Y-38251191D02*
X43063574Y-38286905D01*
X43063574Y-38286905D02*
X43063574Y-38310714D01*
X43063574Y-38310714D02*
X43075479Y-38346429D01*
X43075479Y-38346429D02*
X43087384Y-38358333D01*
X43063574Y-38441667D02*
X43063574Y-38596429D01*
X43063574Y-38596429D02*
X43158812Y-38513095D01*
X43158812Y-38513095D02*
X43158812Y-38548810D01*
X43158812Y-38548810D02*
X43170717Y-38572619D01*
X43170717Y-38572619D02*
X43182622Y-38584524D01*
X43182622Y-38584524D02*
X43206431Y-38596429D01*
X43206431Y-38596429D02*
X43265955Y-38596429D01*
X43265955Y-38596429D02*
X43289765Y-38584524D01*
X43289765Y-38584524D02*
X43301670Y-38572619D01*
X43301670Y-38572619D02*
X43313574Y-38548810D01*
X43313574Y-38548810D02*
X43313574Y-38477381D01*
X43313574Y-38477381D02*
X43301670Y-38453572D01*
X43301670Y-38453572D02*
X43289765Y-38441667D01*
X37921666Y-33089765D02*
X37933570Y-33101670D01*
X37933570Y-33101670D02*
X37969285Y-33113574D01*
X37969285Y-33113574D02*
X37993094Y-33113574D01*
X37993094Y-33113574D02*
X38028808Y-33101670D01*
X38028808Y-33101670D02*
X38052618Y-33077860D01*
X38052618Y-33077860D02*
X38064523Y-33054050D01*
X38064523Y-33054050D02*
X38076427Y-33006431D01*
X38076427Y-33006431D02*
X38076427Y-32970717D01*
X38076427Y-32970717D02*
X38064523Y-32923098D01*
X38064523Y-32923098D02*
X38052618Y-32899289D01*
X38052618Y-32899289D02*
X38028808Y-32875479D01*
X38028808Y-32875479D02*
X37993094Y-32863574D01*
X37993094Y-32863574D02*
X37969285Y-32863574D01*
X37969285Y-32863574D02*
X37933570Y-32875479D01*
X37933570Y-32875479D02*
X37921666Y-32887384D01*
X37707380Y-32946908D02*
X37707380Y-33113574D01*
X37766904Y-32851670D02*
X37826427Y-33030241D01*
X37826427Y-33030241D02*
X37671666Y-33030241D01*
D13*
%TO.C,C1*%
X37180000Y-36150000D02*
X38180000Y-36150000D01*
X37180000Y-36650000D02*
X37180000Y-36150000D01*
X38180000Y-36150000D02*
X38180000Y-36650000D01*
X38180000Y-36650000D02*
X37180000Y-36650000D01*
%TO.C,U1*%
X38700000Y-40300000D02*
X42700000Y-40300000D01*
X38700000Y-45300000D02*
X38700000Y-40300000D01*
X42700000Y-40300000D02*
X43700000Y-41300000D01*
X43700000Y-41300000D02*
X43700000Y-45300000D01*
X43700000Y-45300000D02*
X38700000Y-45300000D01*
%TO.C,R1*%
X44130000Y-37875000D02*
X44670000Y-37875000D01*
X44130000Y-38925000D02*
X44130000Y-37875000D01*
X44670000Y-37875000D02*
X44670000Y-38925000D01*
X44670000Y-38925000D02*
X44130000Y-38925000D01*
%TO.C,R2*%
X39475000Y-32730000D02*
X40525000Y-32730000D01*
X39475000Y-33270000D02*
X39475000Y-32730000D01*
X40525000Y-32730000D02*
X40525000Y-33270000D01*
X40525000Y-33270000D02*
X39475000Y-33270000D01*
%TO.C,C2*%
X41750000Y-37900000D02*
X42250000Y-37900000D01*
X41750000Y-38900000D02*
X41750000Y-37900000D01*
X42250000Y-37900000D02*
X42250000Y-38900000D01*
X42250000Y-38900000D02*
X41750000Y-38900000D01*
%TO.C,U2*%
X37400000Y-34182000D02*
X37400000Y-35482000D01*
X37400000Y-35482000D02*
X38000000Y-35482000D01*
X38000000Y-35482000D02*
X38550000Y-34932000D01*
X38550000Y-34182000D02*
X37400000Y-34182000D01*
X38550000Y-34932000D02*
X38550000Y-34182000D01*
%TO.C,C3*%
X42950000Y-37900000D02*
X43450000Y-37900000D01*
X42950000Y-38900000D02*
X42950000Y-37900000D01*
X43450000Y-37900000D02*
X43450000Y-38900000D01*
X43450000Y-38900000D02*
X42950000Y-38900000D01*
%TO.C,C4*%
X37380000Y-32750000D02*
X38380000Y-32750000D01*
X37380000Y-33250000D02*
X37380000Y-32750000D01*
X38380000Y-32750000D02*
X38380000Y-33250000D01*
X38380000Y-33250000D02*
X37380000Y-33250000D01*
%TD*%
M02*
