%TF.GenerationSoftware,KiCad,Pcbnew,8.0.1-8.0.1-0~ubuntu20.04.1*%
%TF.CreationDate,2024-06-12T16:16:27+01:00*%
%TF.ProjectId,smolpad,736d6f6c-7061-4642-9e6b-696361645f70,rev?*%
%TF.SameCoordinates,Original*%
%TF.FileFunction,Copper,L2,Bot*%
%TF.FilePolarity,Positive*%
%FSLAX46Y46*%
G04 Gerber Fmt 4.6, Leading zero omitted, Abs format (unit mm)*
G04 Created by KiCad (PCBNEW 8.0.1-8.0.1-0~ubuntu20.04.1) date 2024-06-12 16:16:27*
%MOMM*%
%LPD*%
G01*
G04 APERTURE LIST*
%TA.AperFunction,HeatsinkPad*%
%ADD10R,3.600000X3.600000*%
%TD*%
%TA.AperFunction,SMDPad,CuDef*%
%ADD11R,1.000000X1.000000*%
%TD*%
%TA.AperFunction,SMDPad,CuDef*%
%ADD12R,0.240000X0.530000*%
%TD*%
%TA.AperFunction,SMDPad,CuDef*%
%ADD13R,0.280000X0.530000*%
%TD*%
%TA.AperFunction,ViaPad*%
%ADD14C,0.500000*%
%TD*%
%TA.AperFunction,ViaPad*%
%ADD15C,0.600000*%
%TD*%
%TA.AperFunction,Conductor*%
%ADD16C,0.200000*%
%TD*%
%TA.AperFunction,Conductor*%
%ADD17C,0.500000*%
%TD*%
G04 APERTURE END LIST*
%TO.P,C1,1*%
%TO.N,GND*%
%TA.AperFunction,SMDPad,CuDef*%
G36*
G01*
X36920000Y-36570000D02*
X36920000Y-36230000D01*
G75*
G02*
X37060000Y-36090000I140000J0D01*
G01*
X37340000Y-36090000D01*
G75*
G02*
X37480000Y-36230000I0J-140000D01*
G01*
X37480000Y-36570000D01*
G75*
G02*
X37340000Y-36710000I-140000J0D01*
G01*
X37060000Y-36710000D01*
G75*
G02*
X36920000Y-36570000I0J140000D01*
G01*
G37*
%TD.AperFunction*%
%TO.P,C1,2*%
%TO.N,+3.3V*%
%TA.AperFunction,SMDPad,CuDef*%
G36*
G01*
X37880000Y-36570000D02*
X37880000Y-36230000D01*
G75*
G02*
X38020000Y-36090000I140000J0D01*
G01*
X38300000Y-36090000D01*
G75*
G02*
X38440000Y-36230000I0J-140000D01*
G01*
X38440000Y-36570000D01*
G75*
G02*
X38300000Y-36710000I-140000J0D01*
G01*
X38020000Y-36710000D01*
G75*
G02*
X37880000Y-36570000I0J140000D01*
G01*
G37*
%TD.AperFunction*%
%TD*%
%TO.P,RGB2,1,DIN*%
%TO.N,Net-(RGB1-DOUT)*%
%TA.AperFunction,SMDPad,CuDef*%
G36*
G01*
X34950000Y-35337500D02*
X34950000Y-35612500D01*
G75*
G02*
X34812500Y-35750000I-137500J0D01*
G01*
X34537500Y-35750000D01*
G75*
G02*
X34400000Y-35612500I0J137500D01*
G01*
X34400000Y-35337500D01*
G75*
G02*
X34537500Y-35200000I137500J0D01*
G01*
X34812500Y-35200000D01*
G75*
G02*
X34950000Y-35337500I0J-137500D01*
G01*
G37*
%TD.AperFunction*%
%TO.P,RGB2,2,VDD*%
%TO.N,+3.3V*%
%TA.AperFunction,SMDPad,CuDef*%
G36*
G01*
X34000000Y-35337500D02*
X34000000Y-35612500D01*
G75*
G02*
X33862500Y-35750000I-137500J0D01*
G01*
X33587500Y-35750000D01*
G75*
G02*
X33450000Y-35612500I0J137500D01*
G01*
X33450000Y-35337500D01*
G75*
G02*
X33587500Y-35200000I137500J0D01*
G01*
X33862500Y-35200000D01*
G75*
G02*
X34000000Y-35337500I0J-137500D01*
G01*
G37*
%TD.AperFunction*%
%TO.P,RGB2,3,DOUT*%
%TO.N,Net-(RGB2-DOUT)*%
%TA.AperFunction,SMDPad,CuDef*%
G36*
G01*
X34000000Y-34387500D02*
X34000000Y-34662500D01*
G75*
G02*
X33862500Y-34800000I-137500J0D01*
G01*
X33587500Y-34800000D01*
G75*
G02*
X33450000Y-34662500I0J137500D01*
G01*
X33450000Y-34387500D01*
G75*
G02*
X33587500Y-34250000I137500J0D01*
G01*
X33862500Y-34250000D01*
G75*
G02*
X34000000Y-34387500I0J-137500D01*
G01*
G37*
%TD.AperFunction*%
%TO.P,RGB2,4,VSS*%
%TO.N,GND*%
%TA.AperFunction,SMDPad,CuDef*%
G36*
G01*
X34950000Y-34387500D02*
X34950000Y-34662500D01*
G75*
G02*
X34812500Y-34800000I-137500J0D01*
G01*
X34537500Y-34800000D01*
G75*
G02*
X34400000Y-34662500I0J137500D01*
G01*
X34400000Y-34387500D01*
G75*
G02*
X34537500Y-34250000I137500J0D01*
G01*
X34812500Y-34250000D01*
G75*
G02*
X34950000Y-34387500I0J-137500D01*
G01*
G37*
%TD.AperFunction*%
%TD*%
%TO.P,RGB1,1,DIN*%
%TO.N,Net-(RGB1-DIN)*%
%TA.AperFunction,SMDPad,CuDef*%
G36*
G01*
X46550000Y-35337500D02*
X46550000Y-35612500D01*
G75*
G02*
X46412500Y-35750000I-137500J0D01*
G01*
X46137500Y-35750000D01*
G75*
G02*
X46000000Y-35612500I0J137500D01*
G01*
X46000000Y-35337500D01*
G75*
G02*
X46137500Y-35200000I137500J0D01*
G01*
X46412500Y-35200000D01*
G75*
G02*
X46550000Y-35337500I0J-137500D01*
G01*
G37*
%TD.AperFunction*%
%TO.P,RGB1,2,VDD*%
%TO.N,+3.3V*%
%TA.AperFunction,SMDPad,CuDef*%
G36*
G01*
X45600000Y-35337500D02*
X45600000Y-35612500D01*
G75*
G02*
X45462500Y-35750000I-137500J0D01*
G01*
X45187500Y-35750000D01*
G75*
G02*
X45050000Y-35612500I0J137500D01*
G01*
X45050000Y-35337500D01*
G75*
G02*
X45187500Y-35200000I137500J0D01*
G01*
X45462500Y-35200000D01*
G75*
G02*
X45600000Y-35337500I0J-137500D01*
G01*
G37*
%TD.AperFunction*%
%TO.P,RGB1,3,DOUT*%
%TO.N,Net-(RGB1-DOUT)*%
%TA.AperFunction,SMDPad,CuDef*%
G36*
G01*
X45600000Y-34387500D02*
X45600000Y-34662500D01*
G75*
G02*
X45462500Y-34800000I-137500J0D01*
G01*
X45187500Y-34800000D01*
G75*
G02*
X45050000Y-34662500I0J137500D01*
G01*
X45050000Y-34387500D01*
G75*
G02*
X45187500Y-34250000I137500J0D01*
G01*
X45462500Y-34250000D01*
G75*
G02*
X45600000Y-34387500I0J-137500D01*
G01*
G37*
%TD.AperFunction*%
%TO.P,RGB1,4,VSS*%
%TO.N,GND*%
%TA.AperFunction,SMDPad,CuDef*%
G36*
G01*
X46550000Y-34387500D02*
X46550000Y-34662500D01*
G75*
G02*
X46412500Y-34800000I-137500J0D01*
G01*
X46137500Y-34800000D01*
G75*
G02*
X46000000Y-34662500I0J137500D01*
G01*
X46000000Y-34387500D01*
G75*
G02*
X46137500Y-34250000I137500J0D01*
G01*
X46412500Y-34250000D01*
G75*
G02*
X46550000Y-34387500I0J-137500D01*
G01*
G37*
%TD.AperFunction*%
%TD*%
%TO.P,U1,1,PA00*%
%TO.N,/WS2812*%
%TA.AperFunction,SMDPad,CuDef*%
G36*
G01*
X44050000Y-40987500D02*
X44050000Y-41112500D01*
G75*
G02*
X43987500Y-41175000I-62500J0D01*
G01*
X43312500Y-41175000D01*
G75*
G02*
X43250000Y-41112500I0J62500D01*
G01*
X43250000Y-40987500D01*
G75*
G02*
X43312500Y-40925000I62500J0D01*
G01*
X43987500Y-40925000D01*
G75*
G02*
X44050000Y-40987500I0J-62500D01*
G01*
G37*
%TD.AperFunction*%
%TO.P,U1,2,PA01*%
%TO.N,unconnected-(U1-PA01-Pad2)*%
%TA.AperFunction,SMDPad,CuDef*%
G36*
G01*
X44050000Y-41487500D02*
X44050000Y-41612500D01*
G75*
G02*
X43987500Y-41675000I-62500J0D01*
G01*
X43312500Y-41675000D01*
G75*
G02*
X43250000Y-41612500I0J62500D01*
G01*
X43250000Y-41487500D01*
G75*
G02*
X43312500Y-41425000I62500J0D01*
G01*
X43987500Y-41425000D01*
G75*
G02*
X44050000Y-41487500I0J-62500D01*
G01*
G37*
%TD.AperFunction*%
%TO.P,U1,3,PA02*%
%TO.N,unconnected-(U1-PA02-Pad3)*%
%TA.AperFunction,SMDPad,CuDef*%
G36*
G01*
X44050000Y-41987500D02*
X44050000Y-42112500D01*
G75*
G02*
X43987500Y-42175000I-62500J0D01*
G01*
X43312500Y-42175000D01*
G75*
G02*
X43250000Y-42112500I0J62500D01*
G01*
X43250000Y-41987500D01*
G75*
G02*
X43312500Y-41925000I62500J0D01*
G01*
X43987500Y-41925000D01*
G75*
G02*
X44050000Y-41987500I0J-62500D01*
G01*
G37*
%TD.AperFunction*%
%TO.P,U1,4,PA03*%
%TO.N,unconnected-(U1-PA03-Pad4)*%
%TA.AperFunction,SMDPad,CuDef*%
G36*
G01*
X44050000Y-42487500D02*
X44050000Y-42612500D01*
G75*
G02*
X43987500Y-42675000I-62500J0D01*
G01*
X43312500Y-42675000D01*
G75*
G02*
X43250000Y-42612500I0J62500D01*
G01*
X43250000Y-42487500D01*
G75*
G02*
X43312500Y-42425000I62500J0D01*
G01*
X43987500Y-42425000D01*
G75*
G02*
X44050000Y-42487500I0J-62500D01*
G01*
G37*
%TD.AperFunction*%
%TO.P,U1,5,PA04*%
%TO.N,unconnected-(U1-PA04-Pad5)*%
%TA.AperFunction,SMDPad,CuDef*%
G36*
G01*
X44050000Y-42987500D02*
X44050000Y-43112500D01*
G75*
G02*
X43987500Y-43175000I-62500J0D01*
G01*
X43312500Y-43175000D01*
G75*
G02*
X43250000Y-43112500I0J62500D01*
G01*
X43250000Y-42987500D01*
G75*
G02*
X43312500Y-42925000I62500J0D01*
G01*
X43987500Y-42925000D01*
G75*
G02*
X44050000Y-42987500I0J-62500D01*
G01*
G37*
%TD.AperFunction*%
%TO.P,U1,6,PA05*%
%TO.N,unconnected-(U1-PA05-Pad6)*%
%TA.AperFunction,SMDPad,CuDef*%
G36*
G01*
X44050000Y-43487500D02*
X44050000Y-43612500D01*
G75*
G02*
X43987500Y-43675000I-62500J0D01*
G01*
X43312500Y-43675000D01*
G75*
G02*
X43250000Y-43612500I0J62500D01*
G01*
X43250000Y-43487500D01*
G75*
G02*
X43312500Y-43425000I62500J0D01*
G01*
X43987500Y-43425000D01*
G75*
G02*
X44050000Y-43487500I0J-62500D01*
G01*
G37*
%TD.AperFunction*%
%TO.P,U1,7,PA06*%
%TO.N,unconnected-(U1-PA06-Pad7)*%
%TA.AperFunction,SMDPad,CuDef*%
G36*
G01*
X44050000Y-43987500D02*
X44050000Y-44112500D01*
G75*
G02*
X43987500Y-44175000I-62500J0D01*
G01*
X43312500Y-44175000D01*
G75*
G02*
X43250000Y-44112500I0J62500D01*
G01*
X43250000Y-43987500D01*
G75*
G02*
X43312500Y-43925000I62500J0D01*
G01*
X43987500Y-43925000D01*
G75*
G02*
X44050000Y-43987500I0J-62500D01*
G01*
G37*
%TD.AperFunction*%
%TO.P,U1,8,PA07*%
%TO.N,unconnected-(U1-PA07-Pad8)*%
%TA.AperFunction,SMDPad,CuDef*%
G36*
G01*
X44050000Y-44487500D02*
X44050000Y-44612500D01*
G75*
G02*
X43987500Y-44675000I-62500J0D01*
G01*
X43312500Y-44675000D01*
G75*
G02*
X43250000Y-44612500I0J62500D01*
G01*
X43250000Y-44487500D01*
G75*
G02*
X43312500Y-44425000I62500J0D01*
G01*
X43987500Y-44425000D01*
G75*
G02*
X44050000Y-44487500I0J-62500D01*
G01*
G37*
%TD.AperFunction*%
%TO.P,U1,9,VDDANA*%
%TO.N,+3.3V*%
%TA.AperFunction,SMDPad,CuDef*%
G36*
G01*
X43075000Y-44912500D02*
X43075000Y-45587500D01*
G75*
G02*
X43012500Y-45650000I-62500J0D01*
G01*
X42887500Y-45650000D01*
G75*
G02*
X42825000Y-45587500I0J62500D01*
G01*
X42825000Y-44912500D01*
G75*
G02*
X42887500Y-44850000I62500J0D01*
G01*
X43012500Y-44850000D01*
G75*
G02*
X43075000Y-44912500I0J-62500D01*
G01*
G37*
%TD.AperFunction*%
%TO.P,U1,10,GND*%
%TO.N,GND*%
%TA.AperFunction,SMDPad,CuDef*%
G36*
G01*
X42575000Y-44912500D02*
X42575000Y-45587500D01*
G75*
G02*
X42512500Y-45650000I-62500J0D01*
G01*
X42387500Y-45650000D01*
G75*
G02*
X42325000Y-45587500I0J62500D01*
G01*
X42325000Y-44912500D01*
G75*
G02*
X42387500Y-44850000I62500J0D01*
G01*
X42512500Y-44850000D01*
G75*
G02*
X42575000Y-44912500I0J-62500D01*
G01*
G37*
%TD.AperFunction*%
%TO.P,U1,11,PA08*%
%TO.N,unconnected-(U1-PA08-Pad11)*%
%TA.AperFunction,SMDPad,CuDef*%
G36*
G01*
X42075000Y-44912500D02*
X42075000Y-45587500D01*
G75*
G02*
X42012500Y-45650000I-62500J0D01*
G01*
X41887500Y-45650000D01*
G75*
G02*
X41825000Y-45587500I0J62500D01*
G01*
X41825000Y-44912500D01*
G75*
G02*
X41887500Y-44850000I62500J0D01*
G01*
X42012500Y-44850000D01*
G75*
G02*
X42075000Y-44912500I0J-62500D01*
G01*
G37*
%TD.AperFunction*%
%TO.P,U1,12,PA09*%
%TO.N,unconnected-(U1-PA09-Pad12)*%
%TA.AperFunction,SMDPad,CuDef*%
G36*
G01*
X41575000Y-44912500D02*
X41575000Y-45587500D01*
G75*
G02*
X41512500Y-45650000I-62500J0D01*
G01*
X41387500Y-45650000D01*
G75*
G02*
X41325000Y-45587500I0J62500D01*
G01*
X41325000Y-44912500D01*
G75*
G02*
X41387500Y-44850000I62500J0D01*
G01*
X41512500Y-44850000D01*
G75*
G02*
X41575000Y-44912500I0J-62500D01*
G01*
G37*
%TD.AperFunction*%
%TO.P,U1,13,PA10*%
%TO.N,unconnected-(U1-PA10-Pad13)*%
%TA.AperFunction,SMDPad,CuDef*%
G36*
G01*
X41075000Y-44912500D02*
X41075000Y-45587500D01*
G75*
G02*
X41012500Y-45650000I-62500J0D01*
G01*
X40887500Y-45650000D01*
G75*
G02*
X40825000Y-45587500I0J62500D01*
G01*
X40825000Y-44912500D01*
G75*
G02*
X40887500Y-44850000I62500J0D01*
G01*
X41012500Y-44850000D01*
G75*
G02*
X41075000Y-44912500I0J-62500D01*
G01*
G37*
%TD.AperFunction*%
%TO.P,U1,14,PA11*%
%TO.N,unconnected-(U1-PA11-Pad14)*%
%TA.AperFunction,SMDPad,CuDef*%
G36*
G01*
X40575000Y-44912500D02*
X40575000Y-45587500D01*
G75*
G02*
X40512500Y-45650000I-62500J0D01*
G01*
X40387500Y-45650000D01*
G75*
G02*
X40325000Y-45587500I0J62500D01*
G01*
X40325000Y-44912500D01*
G75*
G02*
X40387500Y-44850000I62500J0D01*
G01*
X40512500Y-44850000D01*
G75*
G02*
X40575000Y-44912500I0J-62500D01*
G01*
G37*
%TD.AperFunction*%
%TO.P,U1,15,PA14*%
%TO.N,unconnected-(U1-PA14-Pad15)*%
%TA.AperFunction,SMDPad,CuDef*%
G36*
G01*
X40075000Y-44912500D02*
X40075000Y-45587500D01*
G75*
G02*
X40012500Y-45650000I-62500J0D01*
G01*
X39887500Y-45650000D01*
G75*
G02*
X39825000Y-45587500I0J62500D01*
G01*
X39825000Y-44912500D01*
G75*
G02*
X39887500Y-44850000I62500J0D01*
G01*
X40012500Y-44850000D01*
G75*
G02*
X40075000Y-44912500I0J-62500D01*
G01*
G37*
%TD.AperFunction*%
%TO.P,U1,16,PA15*%
%TO.N,/SW1*%
%TA.AperFunction,SMDPad,CuDef*%
G36*
G01*
X39575000Y-44912500D02*
X39575000Y-45587500D01*
G75*
G02*
X39512500Y-45650000I-62500J0D01*
G01*
X39387500Y-45650000D01*
G75*
G02*
X39325000Y-45587500I0J62500D01*
G01*
X39325000Y-44912500D01*
G75*
G02*
X39387500Y-44850000I62500J0D01*
G01*
X39512500Y-44850000D01*
G75*
G02*
X39575000Y-44912500I0J-62500D01*
G01*
G37*
%TD.AperFunction*%
%TO.P,U1,17,PA16*%
%TO.N,unconnected-(U1-PA16-Pad17)*%
%TA.AperFunction,SMDPad,CuDef*%
G36*
G01*
X39150000Y-44487500D02*
X39150000Y-44612500D01*
G75*
G02*
X39087500Y-44675000I-62500J0D01*
G01*
X38412500Y-44675000D01*
G75*
G02*
X38350000Y-44612500I0J62500D01*
G01*
X38350000Y-44487500D01*
G75*
G02*
X38412500Y-44425000I62500J0D01*
G01*
X39087500Y-44425000D01*
G75*
G02*
X39150000Y-44487500I0J-62500D01*
G01*
G37*
%TD.AperFunction*%
%TO.P,U1,18,PA17*%
%TO.N,Net-(U1-PA17)*%
%TA.AperFunction,SMDPad,CuDef*%
G36*
G01*
X39150000Y-43987500D02*
X39150000Y-44112500D01*
G75*
G02*
X39087500Y-44175000I-62500J0D01*
G01*
X38412500Y-44175000D01*
G75*
G02*
X38350000Y-44112500I0J62500D01*
G01*
X38350000Y-43987500D01*
G75*
G02*
X38412500Y-43925000I62500J0D01*
G01*
X39087500Y-43925000D01*
G75*
G02*
X39150000Y-43987500I0J-62500D01*
G01*
G37*
%TD.AperFunction*%
%TO.P,U1,19,PA18*%
%TO.N,Net-(U1-PA18)*%
%TA.AperFunction,SMDPad,CuDef*%
G36*
G01*
X39150000Y-43487500D02*
X39150000Y-43612500D01*
G75*
G02*
X39087500Y-43675000I-62500J0D01*
G01*
X38412500Y-43675000D01*
G75*
G02*
X38350000Y-43612500I0J62500D01*
G01*
X38350000Y-43487500D01*
G75*
G02*
X38412500Y-43425000I62500J0D01*
G01*
X39087500Y-43425000D01*
G75*
G02*
X39150000Y-43487500I0J-62500D01*
G01*
G37*
%TD.AperFunction*%
%TO.P,U1,20,PA19*%
%TO.N,Net-(U1-PA19)*%
%TA.AperFunction,SMDPad,CuDef*%
G36*
G01*
X39150000Y-42987500D02*
X39150000Y-43112500D01*
G75*
G02*
X39087500Y-43175000I-62500J0D01*
G01*
X38412500Y-43175000D01*
G75*
G02*
X38350000Y-43112500I0J62500D01*
G01*
X38350000Y-42987500D01*
G75*
G02*
X38412500Y-42925000I62500J0D01*
G01*
X39087500Y-42925000D01*
G75*
G02*
X39150000Y-42987500I0J-62500D01*
G01*
G37*
%TD.AperFunction*%
%TO.P,U1,21,PA22*%
%TO.N,Net-(U1-PA22)*%
%TA.AperFunction,SMDPad,CuDef*%
G36*
G01*
X39150000Y-42487500D02*
X39150000Y-42612500D01*
G75*
G02*
X39087500Y-42675000I-62500J0D01*
G01*
X38412500Y-42675000D01*
G75*
G02*
X38350000Y-42612500I0J62500D01*
G01*
X38350000Y-42487500D01*
G75*
G02*
X38412500Y-42425000I62500J0D01*
G01*
X39087500Y-42425000D01*
G75*
G02*
X39150000Y-42487500I0J-62500D01*
G01*
G37*
%TD.AperFunction*%
%TO.P,U1,22,PA23*%
%TO.N,unconnected-(U1-PA23-Pad22)*%
%TA.AperFunction,SMDPad,CuDef*%
G36*
G01*
X39150000Y-41987500D02*
X39150000Y-42112500D01*
G75*
G02*
X39087500Y-42175000I-62500J0D01*
G01*
X38412500Y-42175000D01*
G75*
G02*
X38350000Y-42112500I0J62500D01*
G01*
X38350000Y-41987500D01*
G75*
G02*
X38412500Y-41925000I62500J0D01*
G01*
X39087500Y-41925000D01*
G75*
G02*
X39150000Y-41987500I0J-62500D01*
G01*
G37*
%TD.AperFunction*%
%TO.P,U1,23,PA24*%
%TO.N,D-*%
%TA.AperFunction,SMDPad,CuDef*%
G36*
G01*
X39150000Y-41487500D02*
X39150000Y-41612500D01*
G75*
G02*
X39087500Y-41675000I-62500J0D01*
G01*
X38412500Y-41675000D01*
G75*
G02*
X38350000Y-41612500I0J62500D01*
G01*
X38350000Y-41487500D01*
G75*
G02*
X38412500Y-41425000I62500J0D01*
G01*
X39087500Y-41425000D01*
G75*
G02*
X39150000Y-41487500I0J-62500D01*
G01*
G37*
%TD.AperFunction*%
%TO.P,U1,24,PA25*%
%TO.N,D+*%
%TA.AperFunction,SMDPad,CuDef*%
G36*
G01*
X39150000Y-40987500D02*
X39150000Y-41112500D01*
G75*
G02*
X39087500Y-41175000I-62500J0D01*
G01*
X38412500Y-41175000D01*
G75*
G02*
X38350000Y-41112500I0J62500D01*
G01*
X38350000Y-40987500D01*
G75*
G02*
X38412500Y-40925000I62500J0D01*
G01*
X39087500Y-40925000D01*
G75*
G02*
X39150000Y-40987500I0J-62500D01*
G01*
G37*
%TD.AperFunction*%
%TO.P,U1,25,PA27*%
%TO.N,unconnected-(U1-PA27-Pad25)*%
%TA.AperFunction,SMDPad,CuDef*%
G36*
G01*
X39575000Y-40012500D02*
X39575000Y-40687500D01*
G75*
G02*
X39512500Y-40750000I-62500J0D01*
G01*
X39387500Y-40750000D01*
G75*
G02*
X39325000Y-40687500I0J62500D01*
G01*
X39325000Y-40012500D01*
G75*
G02*
X39387500Y-39950000I62500J0D01*
G01*
X39512500Y-39950000D01*
G75*
G02*
X39575000Y-40012500I0J-62500D01*
G01*
G37*
%TD.AperFunction*%
%TO.P,U1,26,~{RESET}*%
%TO.N,RESET*%
%TA.AperFunction,SMDPad,CuDef*%
G36*
G01*
X40075000Y-40012500D02*
X40075000Y-40687500D01*
G75*
G02*
X40012500Y-40750000I-62500J0D01*
G01*
X39887500Y-40750000D01*
G75*
G02*
X39825000Y-40687500I0J62500D01*
G01*
X39825000Y-40012500D01*
G75*
G02*
X39887500Y-39950000I62500J0D01*
G01*
X40012500Y-39950000D01*
G75*
G02*
X40075000Y-40012500I0J-62500D01*
G01*
G37*
%TD.AperFunction*%
%TO.P,U1,27,PA28*%
%TO.N,unconnected-(U1-PA28-Pad27)*%
%TA.AperFunction,SMDPad,CuDef*%
G36*
G01*
X40575000Y-40012500D02*
X40575000Y-40687500D01*
G75*
G02*
X40512500Y-40750000I-62500J0D01*
G01*
X40387500Y-40750000D01*
G75*
G02*
X40325000Y-40687500I0J62500D01*
G01*
X40325000Y-40012500D01*
G75*
G02*
X40387500Y-39950000I62500J0D01*
G01*
X40512500Y-39950000D01*
G75*
G02*
X40575000Y-40012500I0J-62500D01*
G01*
G37*
%TD.AperFunction*%
%TO.P,U1,28,GND*%
%TO.N,GND*%
%TA.AperFunction,SMDPad,CuDef*%
G36*
G01*
X41075000Y-40012500D02*
X41075000Y-40687500D01*
G75*
G02*
X41012500Y-40750000I-62500J0D01*
G01*
X40887500Y-40750000D01*
G75*
G02*
X40825000Y-40687500I0J62500D01*
G01*
X40825000Y-40012500D01*
G75*
G02*
X40887500Y-39950000I62500J0D01*
G01*
X41012500Y-39950000D01*
G75*
G02*
X41075000Y-40012500I0J-62500D01*
G01*
G37*
%TD.AperFunction*%
%TO.P,U1,29,VDDCORE*%
%TO.N,Net-(U1-VDDCORE)*%
%TA.AperFunction,SMDPad,CuDef*%
G36*
G01*
X41575000Y-40012500D02*
X41575000Y-40687500D01*
G75*
G02*
X41512500Y-40750000I-62500J0D01*
G01*
X41387500Y-40750000D01*
G75*
G02*
X41325000Y-40687500I0J62500D01*
G01*
X41325000Y-40012500D01*
G75*
G02*
X41387500Y-39950000I62500J0D01*
G01*
X41512500Y-39950000D01*
G75*
G02*
X41575000Y-40012500I0J-62500D01*
G01*
G37*
%TD.AperFunction*%
%TO.P,U1,30,VDDIN*%
%TO.N,+3.3V*%
%TA.AperFunction,SMDPad,CuDef*%
G36*
G01*
X42075000Y-40012500D02*
X42075000Y-40687500D01*
G75*
G02*
X42012500Y-40750000I-62500J0D01*
G01*
X41887500Y-40750000D01*
G75*
G02*
X41825000Y-40687500I0J62500D01*
G01*
X41825000Y-40012500D01*
G75*
G02*
X41887500Y-39950000I62500J0D01*
G01*
X42012500Y-39950000D01*
G75*
G02*
X42075000Y-40012500I0J-62500D01*
G01*
G37*
%TD.AperFunction*%
%TO.P,U1,31,PA30*%
%TO.N,SWCLK*%
%TA.AperFunction,SMDPad,CuDef*%
G36*
G01*
X42575000Y-40012500D02*
X42575000Y-40687500D01*
G75*
G02*
X42512500Y-40750000I-62500J0D01*
G01*
X42387500Y-40750000D01*
G75*
G02*
X42325000Y-40687500I0J62500D01*
G01*
X42325000Y-40012500D01*
G75*
G02*
X42387500Y-39950000I62500J0D01*
G01*
X42512500Y-39950000D01*
G75*
G02*
X42575000Y-40012500I0J-62500D01*
G01*
G37*
%TD.AperFunction*%
%TO.P,U1,32,PA31*%
%TO.N,SWDIO*%
%TA.AperFunction,SMDPad,CuDef*%
G36*
G01*
X43075000Y-40012500D02*
X43075000Y-40687500D01*
G75*
G02*
X43012500Y-40750000I-62500J0D01*
G01*
X42887500Y-40750000D01*
G75*
G02*
X42825000Y-40687500I0J62500D01*
G01*
X42825000Y-40012500D01*
G75*
G02*
X42887500Y-39950000I62500J0D01*
G01*
X43012500Y-39950000D01*
G75*
G02*
X43075000Y-40012500I0J-62500D01*
G01*
G37*
%TD.AperFunction*%
D10*
%TO.P,U1,33,EP*%
%TO.N,GND*%
X41200000Y-42800000D03*
%TD*%
D11*
%TO.P,TP3,1,1*%
%TO.N,Net-(U1-PA22)*%
X36400000Y-38600000D03*
%TD*%
%TO.P,RGB3,1,DIN*%
%TO.N,/WS2812*%
%TA.AperFunction,SMDPad,CuDef*%
G36*
G01*
X45462500Y-45750000D02*
X45187500Y-45750000D01*
G75*
G02*
X45050000Y-45612500I0J137500D01*
G01*
X45050000Y-45337500D01*
G75*
G02*
X45187500Y-45200000I137500J0D01*
G01*
X45462500Y-45200000D01*
G75*
G02*
X45600000Y-45337500I0J-137500D01*
G01*
X45600000Y-45612500D01*
G75*
G02*
X45462500Y-45750000I-137500J0D01*
G01*
G37*
%TD.AperFunction*%
%TO.P,RGB3,2,VDD*%
%TO.N,+3.3V*%
%TA.AperFunction,SMDPad,CuDef*%
G36*
G01*
X45462500Y-44800000D02*
X45187500Y-44800000D01*
G75*
G02*
X45050000Y-44662500I0J137500D01*
G01*
X45050000Y-44387500D01*
G75*
G02*
X45187500Y-44250000I137500J0D01*
G01*
X45462500Y-44250000D01*
G75*
G02*
X45600000Y-44387500I0J-137500D01*
G01*
X45600000Y-44662500D01*
G75*
G02*
X45462500Y-44800000I-137500J0D01*
G01*
G37*
%TD.AperFunction*%
%TO.P,RGB3,3,DOUT*%
%TO.N,Net-(RGB1-DIN)*%
%TA.AperFunction,SMDPad,CuDef*%
G36*
G01*
X46412500Y-44800000D02*
X46137500Y-44800000D01*
G75*
G02*
X46000000Y-44662500I0J137500D01*
G01*
X46000000Y-44387500D01*
G75*
G02*
X46137500Y-44250000I137500J0D01*
G01*
X46412500Y-44250000D01*
G75*
G02*
X46550000Y-44387500I0J-137500D01*
G01*
X46550000Y-44662500D01*
G75*
G02*
X46412500Y-44800000I-137500J0D01*
G01*
G37*
%TD.AperFunction*%
%TO.P,RGB3,4,VSS*%
%TO.N,GND*%
%TA.AperFunction,SMDPad,CuDef*%
G36*
G01*
X46412500Y-45750000D02*
X46137500Y-45750000D01*
G75*
G02*
X46000000Y-45612500I0J137500D01*
G01*
X46000000Y-45337500D01*
G75*
G02*
X46137500Y-45200000I137500J0D01*
G01*
X46412500Y-45200000D01*
G75*
G02*
X46550000Y-45337500I0J-137500D01*
G01*
X46550000Y-45612500D01*
G75*
G02*
X46412500Y-45750000I-137500J0D01*
G01*
G37*
%TD.AperFunction*%
%TD*%
%TO.P,R1,1*%
%TO.N,+3.3V*%
%TA.AperFunction,SMDPad,CuDef*%
G36*
G01*
X44215000Y-37620000D02*
X44585000Y-37620000D01*
G75*
G02*
X44720000Y-37755000I0J-135000D01*
G01*
X44720000Y-38025000D01*
G75*
G02*
X44585000Y-38160000I-135000J0D01*
G01*
X44215000Y-38160000D01*
G75*
G02*
X44080000Y-38025000I0J135000D01*
G01*
X44080000Y-37755000D01*
G75*
G02*
X44215000Y-37620000I135000J0D01*
G01*
G37*
%TD.AperFunction*%
%TO.P,R1,2*%
%TO.N,SWCLK*%
%TA.AperFunction,SMDPad,CuDef*%
G36*
G01*
X44215000Y-38640000D02*
X44585000Y-38640000D01*
G75*
G02*
X44720000Y-38775000I0J-135000D01*
G01*
X44720000Y-39045000D01*
G75*
G02*
X44585000Y-39180000I-135000J0D01*
G01*
X44215000Y-39180000D01*
G75*
G02*
X44080000Y-39045000I0J135000D01*
G01*
X44080000Y-38775000D01*
G75*
G02*
X44215000Y-38640000I135000J0D01*
G01*
G37*
%TD.AperFunction*%
%TD*%
%TO.P,RGB4,1,DIN*%
%TO.N,Net-(RGB2-DOUT)*%
%TA.AperFunction,SMDPad,CuDef*%
G36*
G01*
X33450000Y-44662500D02*
X33450000Y-44387500D01*
G75*
G02*
X33587500Y-44250000I137500J0D01*
G01*
X33862500Y-44250000D01*
G75*
G02*
X34000000Y-44387500I0J-137500D01*
G01*
X34000000Y-44662500D01*
G75*
G02*
X33862500Y-44800000I-137500J0D01*
G01*
X33587500Y-44800000D01*
G75*
G02*
X33450000Y-44662500I0J137500D01*
G01*
G37*
%TD.AperFunction*%
%TO.P,RGB4,2,VDD*%
%TO.N,+3.3V*%
%TA.AperFunction,SMDPad,CuDef*%
G36*
G01*
X34400000Y-44662500D02*
X34400000Y-44387500D01*
G75*
G02*
X34537500Y-44250000I137500J0D01*
G01*
X34812500Y-44250000D01*
G75*
G02*
X34950000Y-44387500I0J-137500D01*
G01*
X34950000Y-44662500D01*
G75*
G02*
X34812500Y-44800000I-137500J0D01*
G01*
X34537500Y-44800000D01*
G75*
G02*
X34400000Y-44662500I0J137500D01*
G01*
G37*
%TD.AperFunction*%
%TO.P,RGB4,3,DOUT*%
%TO.N,Net-(RGB4-DOUT)*%
%TA.AperFunction,SMDPad,CuDef*%
G36*
G01*
X34400000Y-45612500D02*
X34400000Y-45337500D01*
G75*
G02*
X34537500Y-45200000I137500J0D01*
G01*
X34812500Y-45200000D01*
G75*
G02*
X34950000Y-45337500I0J-137500D01*
G01*
X34950000Y-45612500D01*
G75*
G02*
X34812500Y-45750000I-137500J0D01*
G01*
X34537500Y-45750000D01*
G75*
G02*
X34400000Y-45612500I0J137500D01*
G01*
G37*
%TD.AperFunction*%
%TO.P,RGB4,4,VSS*%
%TO.N,GND*%
%TA.AperFunction,SMDPad,CuDef*%
G36*
G01*
X33450000Y-45612500D02*
X33450000Y-45337500D01*
G75*
G02*
X33587500Y-45200000I137500J0D01*
G01*
X33862500Y-45200000D01*
G75*
G02*
X34000000Y-45337500I0J-137500D01*
G01*
X34000000Y-45612500D01*
G75*
G02*
X33862500Y-45750000I-137500J0D01*
G01*
X33587500Y-45750000D01*
G75*
G02*
X33450000Y-45612500I0J137500D01*
G01*
G37*
%TD.AperFunction*%
%TD*%
%TO.P,TP2,1,1*%
%TO.N,RESET*%
X38400000Y-38600000D03*
%TD*%
%TO.P,R2,1*%
%TO.N,Net-(J2-CC1)*%
%TA.AperFunction,SMDPad,CuDef*%
G36*
G01*
X39220000Y-33185000D02*
X39220000Y-32815000D01*
G75*
G02*
X39355000Y-32680000I135000J0D01*
G01*
X39625000Y-32680000D01*
G75*
G02*
X39760000Y-32815000I0J-135000D01*
G01*
X39760000Y-33185000D01*
G75*
G02*
X39625000Y-33320000I-135000J0D01*
G01*
X39355000Y-33320000D01*
G75*
G02*
X39220000Y-33185000I0J135000D01*
G01*
G37*
%TD.AperFunction*%
%TO.P,R2,2*%
%TO.N,GND*%
%TA.AperFunction,SMDPad,CuDef*%
G36*
G01*
X40240000Y-33185000D02*
X40240000Y-32815000D01*
G75*
G02*
X40375000Y-32680000I135000J0D01*
G01*
X40645000Y-32680000D01*
G75*
G02*
X40780000Y-32815000I0J-135000D01*
G01*
X40780000Y-33185000D01*
G75*
G02*
X40645000Y-33320000I-135000J0D01*
G01*
X40375000Y-33320000D01*
G75*
G02*
X40240000Y-33185000I0J135000D01*
G01*
G37*
%TD.AperFunction*%
%TD*%
%TO.P,C2,1*%
%TO.N,GND*%
%TA.AperFunction,SMDPad,CuDef*%
G36*
G01*
X41830000Y-37640000D02*
X42170000Y-37640000D01*
G75*
G02*
X42310000Y-37780000I0J-140000D01*
G01*
X42310000Y-38060000D01*
G75*
G02*
X42170000Y-38200000I-140000J0D01*
G01*
X41830000Y-38200000D01*
G75*
G02*
X41690000Y-38060000I0J140000D01*
G01*
X41690000Y-37780000D01*
G75*
G02*
X41830000Y-37640000I140000J0D01*
G01*
G37*
%TD.AperFunction*%
%TO.P,C2,2*%
%TO.N,Net-(U1-VDDCORE)*%
%TA.AperFunction,SMDPad,CuDef*%
G36*
G01*
X41830000Y-38600000D02*
X42170000Y-38600000D01*
G75*
G02*
X42310000Y-38740000I0J-140000D01*
G01*
X42310000Y-39020000D01*
G75*
G02*
X42170000Y-39160000I-140000J0D01*
G01*
X41830000Y-39160000D01*
G75*
G02*
X41690000Y-39020000I0J140000D01*
G01*
X41690000Y-38740000D01*
G75*
G02*
X41830000Y-38600000I140000J0D01*
G01*
G37*
%TD.AperFunction*%
%TD*%
%TO.P,TP1,1,1*%
%TO.N,GND*%
X40400000Y-38600000D03*
%TD*%
D12*
%TO.P,U2,1,OUT*%
%TO.N,+3.3V*%
X38400000Y-35200000D03*
%TO.P,U2,2,GND*%
%TO.N,GND*%
X38000000Y-35200000D03*
%TO.P,U2,3,BP*%
%TO.N,unconnected-(U2-BP-Pad3)*%
X37600000Y-35200000D03*
D13*
%TO.P,U2,4,EN*%
%TO.N,+5V*%
X37600000Y-34464000D03*
%TO.P,U2,5,NC*%
%TO.N,unconnected-(U2-NC-Pad5)*%
X38000000Y-34464000D03*
%TO.P,U2,6,IN*%
%TO.N,+5V*%
X38400000Y-34464000D03*
%TD*%
D11*
%TO.P,TP5,1,1*%
%TO.N,Net-(U1-PA18)*%
X36400000Y-42600000D03*
%TD*%
%TO.P,TP4,1,1*%
%TO.N,Net-(U1-PA19)*%
X36400000Y-40600000D03*
%TD*%
%TO.P,TP6,1,1*%
%TO.N,Net-(U1-PA17)*%
X36400000Y-44600000D03*
%TD*%
%TO.P,C3,1*%
%TO.N,+3.3V*%
%TA.AperFunction,SMDPad,CuDef*%
G36*
G01*
X43370000Y-39160000D02*
X43030000Y-39160000D01*
G75*
G02*
X42890000Y-39020000I0J140000D01*
G01*
X42890000Y-38740000D01*
G75*
G02*
X43030000Y-38600000I140000J0D01*
G01*
X43370000Y-38600000D01*
G75*
G02*
X43510000Y-38740000I0J-140000D01*
G01*
X43510000Y-39020000D01*
G75*
G02*
X43370000Y-39160000I-140000J0D01*
G01*
G37*
%TD.AperFunction*%
%TO.P,C3,2*%
%TO.N,GND*%
%TA.AperFunction,SMDPad,CuDef*%
G36*
G01*
X43370000Y-38200000D02*
X43030000Y-38200000D01*
G75*
G02*
X42890000Y-38060000I0J140000D01*
G01*
X42890000Y-37780000D01*
G75*
G02*
X43030000Y-37640000I140000J0D01*
G01*
X43370000Y-37640000D01*
G75*
G02*
X43510000Y-37780000I0J-140000D01*
G01*
X43510000Y-38060000D01*
G75*
G02*
X43370000Y-38200000I-140000J0D01*
G01*
G37*
%TD.AperFunction*%
%TD*%
%TO.P,C4,1*%
%TO.N,GND*%
%TA.AperFunction,SMDPad,CuDef*%
G36*
G01*
X37120000Y-33170000D02*
X37120000Y-32830000D01*
G75*
G02*
X37260000Y-32690000I140000J0D01*
G01*
X37540000Y-32690000D01*
G75*
G02*
X37680000Y-32830000I0J-140000D01*
G01*
X37680000Y-33170000D01*
G75*
G02*
X37540000Y-33310000I-140000J0D01*
G01*
X37260000Y-33310000D01*
G75*
G02*
X37120000Y-33170000I0J140000D01*
G01*
G37*
%TD.AperFunction*%
%TO.P,C4,2*%
%TO.N,+5V*%
%TA.AperFunction,SMDPad,CuDef*%
G36*
G01*
X38080000Y-33170000D02*
X38080000Y-32830000D01*
G75*
G02*
X38220000Y-32690000I140000J0D01*
G01*
X38500000Y-32690000D01*
G75*
G02*
X38640000Y-32830000I0J-140000D01*
G01*
X38640000Y-33170000D01*
G75*
G02*
X38500000Y-33310000I-140000J0D01*
G01*
X38220000Y-33310000D01*
G75*
G02*
X38080000Y-33170000I0J140000D01*
G01*
G37*
%TD.AperFunction*%
%TD*%
D14*
%TO.N,GND*%
X41800000Y-36400000D03*
X40323397Y-34300000D03*
X38400000Y-37400000D03*
X35900000Y-36300000D03*
D15*
X35300000Y-46100000D03*
D14*
X36100000Y-34300000D03*
X44400000Y-35200000D03*
X42869787Y-46150000D03*
%TO.N,+3.3V*%
X44540990Y-45350000D03*
X43351719Y-45643462D03*
X45000000Y-42325000D03*
X43800000Y-37200000D03*
%TO.N,SWCLK*%
X48800000Y-38252538D03*
%TO.N,SWDIO*%
X49200000Y-40000000D03*
%TO.N,RESET*%
X52200000Y-38400000D03*
X39307193Y-39292807D03*
X44150000Y-39650000D03*
%TO.N,+5V*%
X41200000Y-32400000D03*
X38333452Y-32186186D03*
%TO.N,D-*%
X38165092Y-40537780D03*
%TO.N,D+*%
X38150000Y-39838909D03*
%TO.N,Net-(J2-CC1)*%
X39000000Y-32400000D03*
%TO.N,Net-(RGB1-DIN)*%
X45600000Y-38249998D03*
X46000000Y-42000000D03*
%TO.N,Net-(RGB1-DOUT)*%
X42100000Y-34300000D03*
X35400000Y-35400000D03*
%TO.N,Net-(RGB4-DOUT)*%
X37450000Y-37860000D03*
%TO.N,/SW1*%
X38700000Y-45300000D03*
%TD*%
D16*
%TO.N,GND*%
X40950000Y-40350000D02*
X40950000Y-39150000D01*
X37835000Y-35765000D02*
X38000000Y-35600000D01*
X37200000Y-36400000D02*
X37835000Y-35765000D01*
X38000000Y-35600000D02*
X38000000Y-35200000D01*
X40950000Y-39150000D02*
X40400000Y-38600000D01*
D17*
X36100000Y-34300000D02*
X37400000Y-33000000D01*
D16*
%TO.N,Net-(U1-VDDCORE)*%
X41450000Y-40350000D02*
X41450000Y-39630000D01*
X41450000Y-39630000D02*
X42000000Y-39080000D01*
%TO.N,+3.3V*%
X44400000Y-36400000D02*
X44400000Y-37200000D01*
X43800000Y-37200000D02*
X44400000Y-37200000D01*
X44850000Y-44050000D02*
X45325000Y-44525000D01*
X45000000Y-42325000D02*
X44850000Y-42475000D01*
D17*
X38160000Y-36650050D02*
X39210050Y-35600000D01*
X42200000Y-35600000D02*
X43800000Y-37200000D01*
D16*
X34675000Y-44109314D02*
X34675000Y-44525000D01*
X33300000Y-36900000D02*
X33300000Y-42734314D01*
X44400000Y-37200000D02*
X44400000Y-37890000D01*
X43343462Y-45643462D02*
X42950000Y-45250000D01*
D17*
X34885000Y-37160000D02*
X37650050Y-37160000D01*
D16*
X38160000Y-36400000D02*
X38440000Y-36120000D01*
X45325000Y-44525000D02*
X45325000Y-44565990D01*
X41950000Y-39869928D02*
X42780000Y-39039928D01*
X44850000Y-42475000D02*
X44850000Y-44050000D01*
X43410000Y-38880000D02*
X44400000Y-37890000D01*
X41950000Y-40350000D02*
X41950000Y-39869928D01*
X43200000Y-38880000D02*
X43410000Y-38880000D01*
D17*
X33725000Y-36000000D02*
X33725000Y-36475000D01*
D16*
X38440000Y-36120000D02*
X38440000Y-35200000D01*
X33300000Y-42734314D02*
X34675000Y-44109314D01*
X42780000Y-39039928D02*
X43040072Y-39039928D01*
D17*
X39210050Y-35600000D02*
X42200000Y-35600000D01*
D16*
X43040072Y-39039928D02*
X43200000Y-38880000D01*
X45325000Y-44565990D02*
X44540990Y-45350000D01*
X45325000Y-35475000D02*
X44400000Y-36400000D01*
D17*
X33725000Y-36000000D02*
X34885000Y-37160000D01*
X38160000Y-36650050D02*
X38160000Y-36400000D01*
X33725000Y-35475000D02*
X33725000Y-36000000D01*
X37650050Y-37160000D02*
X38160000Y-36650050D01*
D16*
X33725000Y-36475000D02*
X33300000Y-36900000D01*
X43351719Y-45643462D02*
X43343462Y-45643462D01*
%TO.N,SWCLK*%
X46714880Y-39069434D02*
X45384314Y-40400000D01*
X44090000Y-38910000D02*
X44400000Y-38910000D01*
X43400000Y-39600000D02*
X42785614Y-39600000D01*
X43400000Y-40025000D02*
X43400000Y-39600000D01*
X44345757Y-40200000D02*
X43575000Y-40200000D01*
X44545758Y-40400000D02*
X44345757Y-40200000D01*
X47525852Y-38102538D02*
X46714880Y-38913511D01*
X45384314Y-40400000D02*
X44545758Y-40400000D01*
X43575000Y-40200000D02*
X43400000Y-40025000D01*
X48800000Y-38252538D02*
X48650000Y-38102538D01*
X42450000Y-39935614D02*
X42450000Y-40350000D01*
X46714880Y-38913511D02*
X46714880Y-39069434D01*
X43540000Y-39460000D02*
X43556134Y-39460000D01*
X43810000Y-39190000D02*
X44090000Y-38910000D01*
X43810000Y-39206134D02*
X43810000Y-39190000D01*
X43400000Y-39600000D02*
X43540000Y-39460000D01*
X48650000Y-38102538D02*
X47525852Y-38102538D01*
X43556134Y-39460000D02*
X43810000Y-39206134D01*
X42785614Y-39600000D02*
X42450000Y-39935614D01*
%TO.N,SWDIO*%
X49200000Y-39502538D02*
X48200000Y-38502538D01*
X47114880Y-39235120D02*
X45550000Y-40800000D01*
X44180072Y-40600000D02*
X43200000Y-40600000D01*
X47114880Y-39079196D02*
X47114880Y-39235120D01*
X49200000Y-40000000D02*
X49200000Y-39502538D01*
X44380072Y-40800000D02*
X44180072Y-40600000D01*
X47691538Y-38502538D02*
X47114880Y-39079196D01*
X48200000Y-38502538D02*
X47691538Y-38502538D01*
X43200000Y-40600000D02*
X42950000Y-40350000D01*
X45550000Y-40800000D02*
X44380072Y-40800000D01*
%TO.N,RESET*%
X47297462Y-37702538D02*
X51502538Y-37702538D01*
X51502538Y-37702538D02*
X52200000Y-38400000D01*
X45350000Y-39650000D02*
X47297462Y-37702538D01*
X38614386Y-38600000D02*
X38400000Y-38600000D01*
X39307193Y-39292807D02*
X38614386Y-38600000D01*
X39950000Y-39935614D02*
X39307193Y-39292807D01*
X39950000Y-40350000D02*
X39950000Y-39935614D01*
X44150000Y-39650000D02*
X45350000Y-39650000D01*
%TO.N,+5V*%
X41200000Y-32400000D02*
X40650000Y-31850000D01*
X38333452Y-32186186D02*
X38333452Y-32973452D01*
X40650000Y-31850000D02*
X38669638Y-31850000D01*
X37560000Y-33899000D02*
X37560000Y-34464000D01*
X37659000Y-33800000D02*
X37560000Y-33899000D01*
X38669638Y-31850000D02*
X38333452Y-32186186D01*
X38333452Y-32973452D02*
X38360000Y-33000000D01*
X38440000Y-33800000D02*
X37659000Y-33800000D01*
X38440000Y-33080000D02*
X38440000Y-33800000D01*
X38440000Y-33800000D02*
X38440000Y-34464000D01*
X38360000Y-33000000D02*
X38440000Y-33080000D01*
%TO.N,D-*%
X38050000Y-41264386D02*
X38335614Y-41550000D01*
X38335614Y-41550000D02*
X38750000Y-41550000D01*
X38165092Y-40537780D02*
X38050000Y-40652872D01*
X38050000Y-40652872D02*
X38050000Y-41264386D01*
%TO.N,D+*%
X38150000Y-39838909D02*
X38538909Y-39838909D01*
X38538909Y-39838909D02*
X38900000Y-40200000D01*
X38900000Y-40200000D02*
X38900000Y-40900000D01*
X38900000Y-40900000D02*
X38750000Y-41050000D01*
%TO.N,Net-(J2-CC1)*%
X39000000Y-32400000D02*
X39000000Y-32510000D01*
X39000000Y-32510000D02*
X39490000Y-33000000D01*
%TO.N,Net-(RGB1-DIN)*%
X46750000Y-37133503D02*
X46750000Y-36346497D01*
X46750000Y-44050000D02*
X46275000Y-44525000D01*
X46750000Y-42750000D02*
X46750000Y-44050000D01*
X45600000Y-38249998D02*
X46159998Y-37690000D01*
X46275000Y-35871497D02*
X46275000Y-35475000D01*
X46000000Y-42000000D02*
X46750000Y-42750000D01*
X46159998Y-37690000D02*
X46193503Y-37690000D01*
X46750000Y-36346497D02*
X46275000Y-35871497D01*
X46193503Y-37690000D02*
X46750000Y-37133503D01*
%TO.N,Net-(RGB1-DOUT)*%
X35325000Y-35475000D02*
X35400000Y-35400000D01*
X42100000Y-34300000D02*
X42325000Y-34525000D01*
X42325000Y-34525000D02*
X45325000Y-34525000D01*
X34675000Y-35475000D02*
X35325000Y-35475000D01*
%TO.N,Net-(RGB2-DOUT)*%
X33725000Y-44525000D02*
X33725000Y-43725000D01*
X33725000Y-43725000D02*
X32900000Y-42900000D01*
X32900000Y-42900000D02*
X32900000Y-35350000D01*
X32900000Y-35350000D02*
X33725000Y-34525000D01*
%TO.N,/WS2812*%
X44900000Y-45900000D02*
X45325000Y-45475000D01*
X44350000Y-44764386D02*
X43900000Y-45214386D01*
X44064386Y-41050000D02*
X44350000Y-41335614D01*
X43650000Y-41050000D02*
X44064386Y-41050000D01*
X43900000Y-45214386D02*
X43900000Y-45600000D01*
X44200000Y-45900000D02*
X44900000Y-45900000D01*
X43900000Y-45600000D02*
X44200000Y-45900000D01*
X44350000Y-41335614D02*
X44350000Y-44764386D01*
%TO.N,Net-(RGB4-DOUT)*%
X37300000Y-37710000D02*
X35390000Y-37710000D01*
X35390000Y-37710000D02*
X35250000Y-37850000D01*
X35250000Y-44900000D02*
X34675000Y-45475000D01*
X35250000Y-37850000D02*
X35250000Y-44900000D01*
X37450000Y-37860000D02*
X37300000Y-37710000D01*
%TO.N,/SW1*%
X39400000Y-45300000D02*
X39450000Y-45250000D01*
X38700000Y-45300000D02*
X39400000Y-45300000D01*
%TO.N,Net-(U1-PA22)*%
X37600000Y-41380071D02*
X37600000Y-39800000D01*
X37600000Y-39800000D02*
X36400000Y-38600000D01*
X38335614Y-42550000D02*
X38050000Y-42264386D01*
X38050000Y-42264386D02*
X38050000Y-41830071D01*
X38750000Y-42550000D02*
X38335614Y-42550000D01*
X38050000Y-41830071D02*
X37600000Y-41380071D01*
%TO.N,Net-(U1-PA19)*%
X37650000Y-41995757D02*
X37200000Y-41545756D01*
X37650000Y-42430071D02*
X37650000Y-41995757D01*
X36900000Y-40600000D02*
X36400000Y-40600000D01*
X37200000Y-40900000D02*
X36900000Y-40600000D01*
X38750000Y-43050000D02*
X38269929Y-43050000D01*
X38269929Y-43050000D02*
X37650000Y-42430071D01*
X37200000Y-41545756D02*
X37200000Y-40900000D01*
%TO.N,Net-(U1-PA18)*%
X38750000Y-43550000D02*
X37350000Y-43550000D01*
X37350000Y-43550000D02*
X36400000Y-42600000D01*
%TO.N,Net-(U1-PA17)*%
X36950000Y-44050000D02*
X36400000Y-44600000D01*
X38750000Y-44050000D02*
X36950000Y-44050000D01*
%TD*%
%TA.AperFunction,Conductor*%
%TO.N,GND*%
G36*
X41034191Y-40243907D02*
G01*
X41070155Y-40293407D01*
X41075000Y-40324000D01*
X41075000Y-41246625D01*
X41159339Y-41235522D01*
X41159346Y-41235520D01*
X41296174Y-41178844D01*
X41296175Y-41178844D01*
X41413674Y-41088684D01*
X41413683Y-41088675D01*
X41493659Y-40984448D01*
X41544083Y-40949792D01*
X41552886Y-40947617D01*
X41615117Y-40935240D01*
X41644998Y-40915273D01*
X41703886Y-40898665D01*
X41755002Y-40915274D01*
X41784879Y-40935238D01*
X41784880Y-40935238D01*
X41784883Y-40935240D01*
X41861599Y-40950500D01*
X42038400Y-40950499D01*
X42115117Y-40935240D01*
X42144998Y-40915273D01*
X42203886Y-40898665D01*
X42255002Y-40915274D01*
X42284879Y-40935238D01*
X42284880Y-40935238D01*
X42284883Y-40935240D01*
X42361599Y-40950500D01*
X42538400Y-40950499D01*
X42615117Y-40935240D01*
X42644998Y-40915273D01*
X42703886Y-40898665D01*
X42755002Y-40915274D01*
X42784879Y-40935238D01*
X42784880Y-40935238D01*
X42784883Y-40935240D01*
X42861599Y-40950500D01*
X42950500Y-40950499D01*
X43008690Y-40969406D01*
X43044654Y-41018905D01*
X43049500Y-41049498D01*
X43049500Y-41138396D01*
X43049501Y-41138404D01*
X43064759Y-41215115D01*
X43064759Y-41215116D01*
X43064760Y-41215117D01*
X43084726Y-41244999D01*
X43101334Y-41303887D01*
X43084727Y-41354999D01*
X43064761Y-41384880D01*
X43064759Y-41384886D01*
X43049501Y-41461589D01*
X43049500Y-41461599D01*
X43049500Y-41638397D01*
X43049501Y-41638404D01*
X43064759Y-41715115D01*
X43064759Y-41715116D01*
X43064760Y-41715117D01*
X43084726Y-41744999D01*
X43101334Y-41803887D01*
X43084727Y-41854999D01*
X43064761Y-41884880D01*
X43064759Y-41884886D01*
X43049501Y-41961589D01*
X43049500Y-41961599D01*
X43049500Y-42138397D01*
X43049501Y-42138404D01*
X43064759Y-42215115D01*
X43064759Y-42215116D01*
X43064760Y-42215117D01*
X43084726Y-42244999D01*
X43101334Y-42303887D01*
X43084727Y-42354999D01*
X43064761Y-42384880D01*
X43064759Y-42384886D01*
X43049501Y-42461589D01*
X43049500Y-42461599D01*
X43049500Y-42638397D01*
X43049501Y-42638404D01*
X43064759Y-42715115D01*
X43064759Y-42715116D01*
X43064760Y-42715117D01*
X43084726Y-42744999D01*
X43101334Y-42803887D01*
X43084727Y-42854999D01*
X43064761Y-42884880D01*
X43064759Y-42884886D01*
X43049501Y-42961589D01*
X43049500Y-42961599D01*
X43049500Y-43138397D01*
X43049501Y-43138404D01*
X43064759Y-43215115D01*
X43064759Y-43215116D01*
X43064760Y-43215117D01*
X43084726Y-43244999D01*
X43101334Y-43303887D01*
X43084727Y-43354999D01*
X43064761Y-43384880D01*
X43064759Y-43384886D01*
X43049501Y-43461589D01*
X43049500Y-43461599D01*
X43049500Y-43638397D01*
X43049501Y-43638404D01*
X43064759Y-43715115D01*
X43064759Y-43715116D01*
X43064760Y-43715117D01*
X43084726Y-43744999D01*
X43101334Y-43803887D01*
X43084727Y-43854999D01*
X43064761Y-43884880D01*
X43064759Y-43884886D01*
X43049501Y-43961589D01*
X43049500Y-43961599D01*
X43049500Y-44138397D01*
X43049501Y-44138404D01*
X43064759Y-44215115D01*
X43064759Y-44215116D01*
X43064760Y-44215117D01*
X43084726Y-44244999D01*
X43101334Y-44303887D01*
X43084727Y-44354999D01*
X43064761Y-44384880D01*
X43064759Y-44384885D01*
X43053992Y-44439010D01*
X43024094Y-44492394D01*
X42968529Y-44518008D01*
X42908519Y-44506070D01*
X42896628Y-44498236D01*
X42796174Y-44421155D01*
X42659342Y-44364478D01*
X42659342Y-44364477D01*
X42575000Y-44353373D01*
X42575000Y-46146625D01*
X42659339Y-46135522D01*
X42659346Y-46135520D01*
X42796174Y-46078844D01*
X42796175Y-46078844D01*
X42913675Y-45988683D01*
X42914156Y-45988203D01*
X42914590Y-45987981D01*
X42918828Y-45984730D01*
X42919430Y-45985514D01*
X42968669Y-45960420D01*
X43029102Y-45969986D01*
X43048994Y-45983378D01*
X43053669Y-45987429D01*
X43150385Y-46049584D01*
X43162650Y-46057466D01*
X43286947Y-46093962D01*
X43286949Y-46093962D01*
X43416489Y-46093962D01*
X43416491Y-46093962D01*
X43540788Y-46057466D01*
X43649768Y-45987429D01*
X43678872Y-45953841D01*
X43731268Y-45922244D01*
X43792229Y-45927479D01*
X43823696Y-45948667D01*
X43959540Y-46084511D01*
X43959539Y-46084511D01*
X44015489Y-46140460D01*
X44084007Y-46180019D01*
X44084011Y-46180021D01*
X44160435Y-46200499D01*
X44160437Y-46200500D01*
X44160438Y-46200500D01*
X44939563Y-46200500D01*
X44939563Y-46200499D01*
X45015989Y-46180021D01*
X45084511Y-46140460D01*
X45140460Y-46084511D01*
X45245474Y-45979495D01*
X45299991Y-45951718D01*
X45315478Y-45950499D01*
X45502099Y-45950499D01*
X45502102Y-45950499D01*
X45551330Y-45944019D01*
X45659359Y-45893644D01*
X45743644Y-45809359D01*
X45794019Y-45701330D01*
X45800500Y-45652103D01*
X45800499Y-45636954D01*
X45819403Y-45578766D01*
X45829496Y-45566948D01*
X46275001Y-45121447D01*
X46366950Y-45029496D01*
X46421466Y-45001718D01*
X46436953Y-45000499D01*
X46452102Y-45000499D01*
X46501330Y-44994019D01*
X46609359Y-44943644D01*
X46693644Y-44859359D01*
X46744019Y-44751330D01*
X46750500Y-44702103D01*
X46750499Y-44515477D01*
X46769406Y-44457287D01*
X46779489Y-44445480D01*
X46990460Y-44234511D01*
X47014764Y-44192413D01*
X47060233Y-44151474D01*
X47121083Y-44145078D01*
X47174071Y-44175671D01*
X47198958Y-44231566D01*
X47199500Y-44241915D01*
X47199500Y-45065745D01*
X47180593Y-45123936D01*
X47131093Y-45159900D01*
X47069907Y-45159900D01*
X47020407Y-45123936D01*
X47007341Y-45097266D01*
X47006502Y-45097051D01*
X46628553Y-45475000D01*
X47006502Y-45852948D01*
X47053810Y-45840801D01*
X47114874Y-45844642D01*
X47162019Y-45883642D01*
X47177236Y-45942905D01*
X47171876Y-45969386D01*
X47143815Y-46049583D01*
X47134195Y-46069559D01*
X47074642Y-46164336D01*
X47060821Y-46181668D01*
X46981668Y-46260821D01*
X46964336Y-46274642D01*
X46869559Y-46334195D01*
X46849583Y-46343815D01*
X46769386Y-46371876D01*
X46708216Y-46373248D01*
X46657922Y-46338403D01*
X46637715Y-46280651D01*
X46640801Y-46253810D01*
X46652948Y-46206502D01*
X46275000Y-45828553D01*
X45897051Y-46206502D01*
X45897496Y-46208238D01*
X45943971Y-46239823D01*
X45964696Y-46297391D01*
X45947625Y-46356147D01*
X45899279Y-46393647D01*
X45865745Y-46399500D01*
X34134254Y-46399500D01*
X34076063Y-46380593D01*
X34040099Y-46331093D01*
X34040099Y-46269907D01*
X34076063Y-46220407D01*
X34102732Y-46207341D01*
X34102948Y-46206501D01*
X33725000Y-45828553D01*
X33347050Y-46206503D01*
X33359197Y-46253812D01*
X33355355Y-46314876D01*
X33316353Y-46362020D01*
X33257090Y-46377236D01*
X33230610Y-46371876D01*
X33202443Y-46362020D01*
X33150414Y-46343814D01*
X33130440Y-46334195D01*
X33035663Y-46274642D01*
X33018331Y-46260821D01*
X32939178Y-46181668D01*
X32925357Y-46164336D01*
X32875199Y-46084511D01*
X32865802Y-46069556D01*
X32856186Y-46049589D01*
X32828123Y-45969386D01*
X32826751Y-45908218D01*
X32861595Y-45857924D01*
X32919348Y-45837716D01*
X32946188Y-45840801D01*
X32993497Y-45852947D01*
X33371445Y-45475000D01*
X32993496Y-45097051D01*
X32991757Y-45097497D01*
X32960178Y-45143965D01*
X32902610Y-45164691D01*
X32843854Y-45147621D01*
X32806353Y-45099275D01*
X32800500Y-45065740D01*
X32800500Y-43464479D01*
X32819407Y-43406288D01*
X32868907Y-43370324D01*
X32930093Y-43370324D01*
X32969504Y-43394475D01*
X33395504Y-43820475D01*
X33423281Y-43874992D01*
X33424500Y-43890479D01*
X33424500Y-44031490D01*
X33405593Y-44089681D01*
X33395504Y-44101494D01*
X33390642Y-44106355D01*
X33390641Y-44106356D01*
X33345523Y-44151474D01*
X33306354Y-44190643D01*
X33255983Y-44298664D01*
X33255981Y-44298671D01*
X33249500Y-44347898D01*
X33249500Y-44702099D01*
X33249501Y-44702107D01*
X33255980Y-44751329D01*
X33306354Y-44859356D01*
X33306355Y-44859357D01*
X33306356Y-44859359D01*
X33390641Y-44943644D01*
X33498670Y-44994019D01*
X33547897Y-45000500D01*
X33563043Y-45000499D01*
X33621232Y-45019403D01*
X33633050Y-45029496D01*
X33725000Y-45121447D01*
X34170504Y-45566952D01*
X34198281Y-45621468D01*
X34199500Y-45636950D01*
X34199500Y-45652096D01*
X34199501Y-45652108D01*
X34205980Y-45701329D01*
X34256354Y-45809356D01*
X34256355Y-45809357D01*
X34256356Y-45809359D01*
X34340641Y-45893644D01*
X34448670Y-45944019D01*
X34497897Y-45950500D01*
X34852102Y-45950499D01*
X34901330Y-45944019D01*
X35009359Y-45893644D01*
X35093644Y-45809359D01*
X35144019Y-45701330D01*
X35150500Y-45652103D01*
X35150499Y-45465477D01*
X35169406Y-45407287D01*
X35179489Y-45395480D01*
X35490460Y-45084511D01*
X35508112Y-45053937D01*
X35513615Y-45044406D01*
X35514754Y-45042432D01*
X35560216Y-45001483D01*
X35621065Y-44995075D01*
X35674059Y-45025658D01*
X35698956Y-45081549D01*
X35699500Y-45091916D01*
X35699500Y-45119746D01*
X35699501Y-45119758D01*
X35711132Y-45178227D01*
X35711134Y-45178233D01*
X35745362Y-45229458D01*
X35755448Y-45244552D01*
X35821769Y-45288867D01*
X35866231Y-45297711D01*
X35880241Y-45300498D01*
X35880246Y-45300498D01*
X35880252Y-45300500D01*
X35880253Y-45300500D01*
X36919747Y-45300500D01*
X36919748Y-45300500D01*
X36978231Y-45288867D01*
X37044552Y-45244552D01*
X37088867Y-45178231D01*
X37100500Y-45119748D01*
X37100500Y-44449500D01*
X37119407Y-44391309D01*
X37168907Y-44355345D01*
X37199500Y-44350500D01*
X38051212Y-44350500D01*
X38109403Y-44369407D01*
X38145367Y-44418907D01*
X38149469Y-44456735D01*
X38149500Y-44456735D01*
X38149500Y-44457017D01*
X38149736Y-44459194D01*
X38149500Y-44461592D01*
X38149500Y-44638397D01*
X38149501Y-44638404D01*
X38164759Y-44715116D01*
X38164760Y-44715118D01*
X38188960Y-44751335D01*
X38222888Y-44802112D01*
X38309883Y-44860240D01*
X38309890Y-44860241D01*
X38311868Y-44861061D01*
X38314590Y-44863386D01*
X38317991Y-44865658D01*
X38317722Y-44866060D01*
X38358398Y-44900794D01*
X38372687Y-44960287D01*
X38349277Y-45016817D01*
X38348812Y-45017358D01*
X38317118Y-45053936D01*
X38263302Y-45171774D01*
X38244867Y-45299997D01*
X38244867Y-45300002D01*
X38263302Y-45428225D01*
X38284664Y-45475000D01*
X38317118Y-45546063D01*
X38375465Y-45613400D01*
X38401952Y-45643968D01*
X38510926Y-45714001D01*
X38510931Y-45714004D01*
X38635228Y-45750500D01*
X38635230Y-45750500D01*
X38764770Y-45750500D01*
X38764772Y-45750500D01*
X38889069Y-45714004D01*
X38995216Y-45645787D01*
X39054390Y-45630233D01*
X39111406Y-45652432D01*
X39133702Y-45682436D01*
X39134342Y-45682009D01*
X39180106Y-45750499D01*
X39197888Y-45777112D01*
X39284883Y-45835240D01*
X39361599Y-45850500D01*
X39538400Y-45850499D01*
X39615117Y-45835240D01*
X39644998Y-45815273D01*
X39703886Y-45798665D01*
X39755002Y-45815274D01*
X39784879Y-45835238D01*
X39784880Y-45835238D01*
X39784883Y-45835240D01*
X39861599Y-45850500D01*
X40038400Y-45850499D01*
X40115117Y-45835240D01*
X40144998Y-45815273D01*
X40203886Y-45798665D01*
X40255002Y-45815274D01*
X40284879Y-45835238D01*
X40284880Y-45835238D01*
X40284883Y-45835240D01*
X40361599Y-45850500D01*
X40538400Y-45850499D01*
X40615117Y-45835240D01*
X40644998Y-45815273D01*
X40703886Y-45798665D01*
X40755002Y-45815274D01*
X40784879Y-45835238D01*
X40784880Y-45835238D01*
X40784883Y-45835240D01*
X40861599Y-45850500D01*
X41038400Y-45850499D01*
X41115117Y-45835240D01*
X41144998Y-45815273D01*
X41203886Y-45798665D01*
X41255002Y-45815274D01*
X41284879Y-45835238D01*
X41284880Y-45835238D01*
X41284883Y-45835240D01*
X41361599Y-45850500D01*
X41538400Y-45850499D01*
X41615117Y-45835240D01*
X41644998Y-45815273D01*
X41703886Y-45798665D01*
X41755001Y-45815273D01*
X41784883Y-45835240D01*
X41847115Y-45847619D01*
X41900497Y-45877515D01*
X41906341Y-45884449D01*
X41986315Y-45988674D01*
X41986325Y-45988684D01*
X42103825Y-46078844D01*
X42240653Y-46135520D01*
X42240660Y-46135522D01*
X42324999Y-46146625D01*
X42325000Y-46146624D01*
X42325000Y-44353374D01*
X42324999Y-44353373D01*
X42240657Y-44364477D01*
X42240657Y-44364478D01*
X42103825Y-44421155D01*
X42103824Y-44421155D01*
X41986325Y-44511315D01*
X41986315Y-44511325D01*
X41906341Y-44615551D01*
X41855917Y-44650207D01*
X41847113Y-44652382D01*
X41784884Y-44664759D01*
X41755000Y-44684727D01*
X41696111Y-44701334D01*
X41644999Y-44684726D01*
X41615119Y-44664761D01*
X41615117Y-44664760D01*
X41615114Y-44664759D01*
X41615113Y-44664759D01*
X41538410Y-44649501D01*
X41538402Y-44649500D01*
X41538401Y-44649500D01*
X41538400Y-44649500D01*
X41361602Y-44649500D01*
X41361595Y-44649501D01*
X41284884Y-44664759D01*
X41255000Y-44684727D01*
X41196111Y-44701334D01*
X41144999Y-44684726D01*
X41115119Y-44664761D01*
X41115117Y-44664760D01*
X41115114Y-44664759D01*
X41115113Y-44664759D01*
X41038410Y-44649501D01*
X41038402Y-44649500D01*
X41038401Y-44649500D01*
X41038400Y-44649500D01*
X40861602Y-44649500D01*
X40861595Y-44649501D01*
X40784884Y-44664759D01*
X40755000Y-44684727D01*
X40696111Y-44701334D01*
X40644999Y-44684726D01*
X40615119Y-44664761D01*
X40615117Y-44664760D01*
X40615114Y-44664759D01*
X40615113Y-44664759D01*
X40538410Y-44649501D01*
X40538402Y-44649500D01*
X40538401Y-44649500D01*
X40538400Y-44649500D01*
X40361602Y-44649500D01*
X40361595Y-44649501D01*
X40284884Y-44664759D01*
X40255000Y-44684727D01*
X40196111Y-44701334D01*
X40144999Y-44684726D01*
X40115119Y-44664761D01*
X40115117Y-44664760D01*
X40115114Y-44664759D01*
X40115113Y-44664759D01*
X40038410Y-44649501D01*
X40038402Y-44649500D01*
X40038401Y-44649500D01*
X40038400Y-44649500D01*
X39861602Y-44649500D01*
X39861595Y-44649501D01*
X39784884Y-44664759D01*
X39755000Y-44684727D01*
X39696111Y-44701334D01*
X39644999Y-44684726D01*
X39615119Y-44664761D01*
X39615117Y-44664760D01*
X39615114Y-44664759D01*
X39615113Y-44664759D01*
X39538410Y-44649501D01*
X39538402Y-44649500D01*
X39538401Y-44649500D01*
X39538400Y-44649500D01*
X39449499Y-44649500D01*
X39391308Y-44630593D01*
X39355344Y-44581093D01*
X39350499Y-44550503D01*
X39350499Y-44461600D01*
X39335240Y-44384883D01*
X39315273Y-44355001D01*
X39298665Y-44296114D01*
X39315274Y-44244998D01*
X39335238Y-44215120D01*
X39335238Y-44215119D01*
X39335240Y-44215117D01*
X39350500Y-44138401D01*
X39350499Y-43961600D01*
X39335240Y-43884883D01*
X39315273Y-43855001D01*
X39298665Y-43796114D01*
X39315274Y-43744998D01*
X39335238Y-43715120D01*
X39335238Y-43715119D01*
X39335240Y-43715117D01*
X39350500Y-43638401D01*
X39350499Y-43461600D01*
X39335240Y-43384883D01*
X39315273Y-43355001D01*
X39298665Y-43296114D01*
X39315274Y-43244998D01*
X39331641Y-43220504D01*
X39335240Y-43215117D01*
X39350500Y-43138401D01*
X39350499Y-42961600D01*
X39335240Y-42884883D01*
X39315273Y-42855001D01*
X39298665Y-42796114D01*
X39315274Y-42744998D01*
X39335238Y-42715120D01*
X39335238Y-42715119D01*
X39335240Y-42715117D01*
X39350500Y-42638401D01*
X39350499Y-42461600D01*
X39335240Y-42384883D01*
X39315273Y-42355001D01*
X39298665Y-42296114D01*
X39315274Y-42244998D01*
X39335238Y-42215120D01*
X39335238Y-42215119D01*
X39335240Y-42215117D01*
X39350500Y-42138401D01*
X39350499Y-41961600D01*
X39335240Y-41884883D01*
X39315273Y-41855001D01*
X39298665Y-41796114D01*
X39315274Y-41744998D01*
X39335238Y-41715120D01*
X39335238Y-41715119D01*
X39335240Y-41715117D01*
X39350500Y-41638401D01*
X39350499Y-41461600D01*
X39335240Y-41384883D01*
X39315273Y-41355001D01*
X39298665Y-41296114D01*
X39315274Y-41244998D01*
X39328554Y-41225124D01*
X39335240Y-41215117D01*
X39350500Y-41138401D01*
X39350499Y-41049498D01*
X39369406Y-40991309D01*
X39418905Y-40955345D01*
X39449495Y-40950499D01*
X39538400Y-40950499D01*
X39615117Y-40935240D01*
X39644998Y-40915273D01*
X39703886Y-40898665D01*
X39755002Y-40915274D01*
X39784879Y-40935238D01*
X39784880Y-40935238D01*
X39784883Y-40935240D01*
X39861599Y-40950500D01*
X40038400Y-40950499D01*
X40115117Y-40935240D01*
X40144998Y-40915273D01*
X40203886Y-40898665D01*
X40255001Y-40915273D01*
X40284883Y-40935240D01*
X40347115Y-40947619D01*
X40400497Y-40977515D01*
X40406341Y-40984449D01*
X40486315Y-41088674D01*
X40486325Y-41088684D01*
X40603825Y-41178844D01*
X40740653Y-41235520D01*
X40740660Y-41235522D01*
X40824999Y-41246625D01*
X40825000Y-41246624D01*
X40825000Y-40324000D01*
X40843907Y-40265809D01*
X40893407Y-40229845D01*
X40924000Y-40225000D01*
X40976000Y-40225000D01*
X41034191Y-40243907D01*
G37*
%TD.AperFunction*%
%TA.AperFunction,Conductor*%
G36*
X42030580Y-36069407D02*
G01*
X42042393Y-36079496D01*
X42947609Y-36984713D01*
X42975386Y-37039230D01*
X42965815Y-37099662D01*
X42922550Y-37142927D01*
X42905226Y-37149786D01*
X42773801Y-37187969D01*
X42650395Y-37260952D01*
X42590683Y-37274300D01*
X42549605Y-37260952D01*
X42426197Y-37187969D01*
X42270912Y-37142855D01*
X42250000Y-37141209D01*
X42250000Y-37669999D01*
X42250001Y-37670000D01*
X43351000Y-37670000D01*
X43409191Y-37688907D01*
X43445155Y-37738407D01*
X43450000Y-37769000D01*
X43450000Y-38071000D01*
X43431093Y-38129191D01*
X43381593Y-38165155D01*
X43351000Y-38170000D01*
X41849000Y-38170000D01*
X41790809Y-38151093D01*
X41754845Y-38101593D01*
X41750000Y-38071000D01*
X41750000Y-37141209D01*
X41729087Y-37142855D01*
X41573802Y-37187969D01*
X41573801Y-37187969D01*
X41434625Y-37270278D01*
X41320278Y-37384625D01*
X41237969Y-37523801D01*
X41223524Y-37573521D01*
X41189132Y-37624126D01*
X41131563Y-37644851D01*
X41093859Y-37638658D01*
X41007380Y-37606403D01*
X41007370Y-37606401D01*
X40947824Y-37600000D01*
X40650001Y-37600000D01*
X40650000Y-37600001D01*
X40650000Y-38751000D01*
X40631093Y-38809191D01*
X40581593Y-38845155D01*
X40551000Y-38850000D01*
X39412401Y-38850000D01*
X39384513Y-38845991D01*
X39371967Y-38842307D01*
X39371965Y-38842307D01*
X39322672Y-38842307D01*
X39264481Y-38823400D01*
X39252668Y-38813311D01*
X39129496Y-38690139D01*
X39101719Y-38635622D01*
X39100500Y-38620135D01*
X39100500Y-38349999D01*
X39400000Y-38349999D01*
X39400001Y-38350000D01*
X40149999Y-38350000D01*
X40150000Y-38349999D01*
X40150000Y-37600001D01*
X40149999Y-37600000D01*
X39852176Y-37600000D01*
X39792629Y-37606401D01*
X39792618Y-37606403D01*
X39657911Y-37656646D01*
X39657909Y-37656647D01*
X39542815Y-37742807D01*
X39542807Y-37742815D01*
X39456647Y-37857909D01*
X39456646Y-37857911D01*
X39406403Y-37992618D01*
X39406401Y-37992629D01*
X39400000Y-38052175D01*
X39400000Y-38349999D01*
X39100500Y-38349999D01*
X39100500Y-38080253D01*
X39100498Y-38080241D01*
X39097330Y-38064314D01*
X39088867Y-38021769D01*
X39044552Y-37955448D01*
X39044548Y-37955445D01*
X38978233Y-37911134D01*
X38978231Y-37911133D01*
X38978228Y-37911132D01*
X38978227Y-37911132D01*
X38919758Y-37899501D01*
X38919748Y-37899500D01*
X38919747Y-37899500D01*
X37996596Y-37899500D01*
X37938405Y-37880593D01*
X37902441Y-37831093D01*
X37898604Y-37814588D01*
X37886697Y-37731774D01*
X37886697Y-37731772D01*
X37856065Y-37664698D01*
X37849090Y-37603912D01*
X37879176Y-37550635D01*
X37896614Y-37537838D01*
X37926664Y-37520489D01*
X38520489Y-36926664D01*
X38520490Y-36926663D01*
X39367657Y-36079496D01*
X39422174Y-36051719D01*
X39437661Y-36050500D01*
X41972389Y-36050500D01*
X42030580Y-36069407D01*
G37*
%TD.AperFunction*%
%TA.AperFunction,Conductor*%
G36*
X42933002Y-27994407D02*
G01*
X42968966Y-28043907D01*
X42969289Y-28044925D01*
X43139993Y-28591174D01*
X43144500Y-28620703D01*
X43144500Y-28803836D01*
X43125593Y-28862027D01*
X43088460Y-28893029D01*
X43077036Y-28898531D01*
X43077034Y-28898532D01*
X42988858Y-28968850D01*
X42988850Y-28968858D01*
X42918531Y-29057034D01*
X42869598Y-29158647D01*
X42869595Y-29158654D01*
X42844500Y-29268607D01*
X42844500Y-30281392D01*
X42869595Y-30391345D01*
X42869596Y-30391348D01*
X42869597Y-30391351D01*
X42879265Y-30411426D01*
X42918531Y-30492965D01*
X42918533Y-30492967D01*
X42988854Y-30581146D01*
X42988858Y-30581149D01*
X43077030Y-30651465D01*
X43077037Y-30651469D01*
X43088453Y-30656967D01*
X43132678Y-30699249D01*
X43144500Y-30746163D01*
X43144500Y-32878844D01*
X43175263Y-33033496D01*
X43175263Y-33033498D01*
X43235603Y-33179174D01*
X43235609Y-33179185D01*
X43270294Y-33231093D01*
X43323211Y-33310289D01*
X43434711Y-33421789D01*
X43497983Y-33464066D01*
X43565814Y-33509390D01*
X43565825Y-33509396D01*
X43592633Y-33520500D01*
X43711503Y-33569737D01*
X43866158Y-33600500D01*
X43905118Y-33600500D01*
X45865740Y-33600500D01*
X45923931Y-33619407D01*
X45959895Y-33668907D01*
X45959895Y-33730093D01*
X45923931Y-33779593D01*
X45897267Y-33792655D01*
X45897051Y-33793496D01*
X46275000Y-34171445D01*
X46652947Y-33793497D01*
X46640801Y-33746188D01*
X46644643Y-33685124D01*
X46683644Y-33637980D01*
X46742907Y-33622763D01*
X46769386Y-33628122D01*
X46849589Y-33656186D01*
X46869556Y-33665802D01*
X46900306Y-33685124D01*
X46964336Y-33725357D01*
X46981668Y-33739178D01*
X47060821Y-33818331D01*
X47074642Y-33835663D01*
X47134195Y-33930440D01*
X47143815Y-33950415D01*
X47171876Y-34030610D01*
X47173248Y-34091780D01*
X47138404Y-34142074D01*
X47080652Y-34162282D01*
X47053812Y-34159197D01*
X47006503Y-34147050D01*
X46628553Y-34525000D01*
X47006501Y-34902948D01*
X47008238Y-34902502D01*
X47039822Y-34856027D01*
X47097391Y-34835302D01*
X47156147Y-34852372D01*
X47193647Y-34900718D01*
X47199500Y-34934253D01*
X47199500Y-36154580D01*
X47180593Y-36212771D01*
X47131093Y-36248735D01*
X47069907Y-36248735D01*
X47020407Y-36212771D01*
X47014764Y-36204081D01*
X46990459Y-36161985D01*
X46934511Y-36106036D01*
X46934511Y-36106037D01*
X46724912Y-35896438D01*
X46697135Y-35841921D01*
X46705192Y-35784595D01*
X46735183Y-35720278D01*
X46744019Y-35701330D01*
X46750500Y-35652103D01*
X46750499Y-35297898D01*
X46744019Y-35248670D01*
X46693644Y-35140641D01*
X46609359Y-35056356D01*
X46609357Y-35056355D01*
X46609356Y-35056354D01*
X46501335Y-35005983D01*
X46501333Y-35005982D01*
X46501330Y-35005981D01*
X46452103Y-34999500D01*
X46452102Y-34999500D01*
X46436953Y-34999500D01*
X46378762Y-34980593D01*
X46366949Y-34970503D01*
X46275000Y-34878553D01*
X45829495Y-34433047D01*
X45801718Y-34378531D01*
X45800499Y-34363044D01*
X45800499Y-34347901D01*
X45800498Y-34347891D01*
X45794019Y-34298670D01*
X45743645Y-34190643D01*
X45743644Y-34190642D01*
X45743644Y-34190641D01*
X45659359Y-34106356D01*
X45659357Y-34106355D01*
X45659356Y-34106354D01*
X45551335Y-34055983D01*
X45551333Y-34055982D01*
X45551330Y-34055981D01*
X45502103Y-34049500D01*
X45502101Y-34049500D01*
X45147900Y-34049500D01*
X45147892Y-34049501D01*
X45098670Y-34055980D01*
X44990643Y-34106354D01*
X44990641Y-34106355D01*
X44990641Y-34106356D01*
X44906356Y-34190641D01*
X44906355Y-34190642D01*
X44901494Y-34195504D01*
X44846977Y-34223281D01*
X44831490Y-34224500D01*
X42624400Y-34224500D01*
X42566209Y-34205593D01*
X42534347Y-34166627D01*
X42505459Y-34103374D01*
X42482882Y-34053937D01*
X42398049Y-33956033D01*
X42398048Y-33956032D01*
X42398047Y-33956031D01*
X42289073Y-33885998D01*
X42289070Y-33885996D01*
X42289069Y-33885996D01*
X42289066Y-33885995D01*
X42164774Y-33849500D01*
X42164772Y-33849500D01*
X42035228Y-33849500D01*
X42035225Y-33849500D01*
X41910933Y-33885995D01*
X41910926Y-33885998D01*
X41801952Y-33956031D01*
X41717117Y-34053938D01*
X41663302Y-34171774D01*
X41644867Y-34299997D01*
X41644867Y-34300002D01*
X41663302Y-34428225D01*
X41707499Y-34525000D01*
X41717118Y-34546063D01*
X41757539Y-34592712D01*
X41801952Y-34643968D01*
X41910926Y-34714001D01*
X41910931Y-34714004D01*
X42035228Y-34750500D01*
X42088051Y-34750500D01*
X42137551Y-34763764D01*
X42209007Y-34805019D01*
X42209011Y-34805021D01*
X42285435Y-34825499D01*
X42285437Y-34825500D01*
X42285438Y-34825500D01*
X44831490Y-34825500D01*
X44889681Y-34844407D01*
X44901494Y-34854496D01*
X44906355Y-34859357D01*
X44906356Y-34859359D01*
X44976995Y-34929998D01*
X45004771Y-34984513D01*
X44995200Y-35044945D01*
X44976996Y-35070000D01*
X44941184Y-35105813D01*
X44906354Y-35140643D01*
X44855983Y-35248664D01*
X44855981Y-35248671D01*
X44849500Y-35297898D01*
X44849500Y-35484520D01*
X44830593Y-35542711D01*
X44820504Y-35554524D01*
X44215489Y-36159540D01*
X44215488Y-36159539D01*
X44159539Y-36215489D01*
X44119980Y-36284007D01*
X44119978Y-36284011D01*
X44099500Y-36360435D01*
X44099500Y-36623388D01*
X44080593Y-36681579D01*
X44031093Y-36717543D01*
X43969907Y-36717543D01*
X43930496Y-36693392D01*
X43574241Y-36337137D01*
X42476614Y-35239511D01*
X42476611Y-35239509D01*
X42476610Y-35239508D01*
X42476609Y-35239507D01*
X42373890Y-35180202D01*
X42373886Y-35180200D01*
X42349673Y-35173712D01*
X42349673Y-35173713D01*
X42259309Y-35149500D01*
X39150741Y-35149500D01*
X39105558Y-35161606D01*
X39060375Y-35173713D01*
X39060374Y-35173712D01*
X39036162Y-35180201D01*
X39036159Y-35180202D01*
X38933440Y-35239507D01*
X38933434Y-35239512D01*
X38909502Y-35263444D01*
X38854985Y-35291220D01*
X38794553Y-35281648D01*
X38751290Y-35238383D01*
X38740500Y-35193439D01*
X38740500Y-35160438D01*
X38723873Y-35098386D01*
X38720500Y-35072763D01*
X38720500Y-34915253D01*
X38720499Y-34915246D01*
X38717609Y-34900718D01*
X38713862Y-34881879D01*
X38721052Y-34821121D01*
X38728646Y-34807562D01*
X38728867Y-34807231D01*
X38740500Y-34748748D01*
X38740500Y-34179252D01*
X38740500Y-33760438D01*
X38740500Y-33452047D01*
X38759407Y-33393856D01*
X38769490Y-33382049D01*
X38783224Y-33368316D01*
X38833972Y-33259487D01*
X38833971Y-33259487D01*
X38837173Y-33252623D01*
X38839055Y-33253500D01*
X38867642Y-33211503D01*
X38925226Y-33190820D01*
X38983969Y-33207933D01*
X39021435Y-33256306D01*
X39023765Y-33265915D01*
X39023813Y-33265902D01*
X39025932Y-33273175D01*
X39075933Y-33380401D01*
X39075934Y-33380402D01*
X39075935Y-33380404D01*
X39159596Y-33464065D01*
X39159597Y-33464065D01*
X39159598Y-33464066D01*
X39266824Y-33514067D01*
X39266825Y-33514067D01*
X39266827Y-33514068D01*
X39315684Y-33520500D01*
X39315685Y-33520500D01*
X39664314Y-33520500D01*
X39664316Y-33520500D01*
X39713173Y-33514068D01*
X39724859Y-33508618D01*
X39785584Y-33501160D01*
X39839099Y-33530821D01*
X39851912Y-33547947D01*
X39869263Y-33577287D01*
X39982714Y-33690738D01*
X40120804Y-33772404D01*
X40259999Y-33812844D01*
X40260000Y-33812844D01*
X40760000Y-33812844D01*
X40899195Y-33772404D01*
X40899196Y-33772404D01*
X41037285Y-33690738D01*
X41150738Y-33577285D01*
X41232404Y-33439196D01*
X41232404Y-33439195D01*
X41277165Y-33285127D01*
X41277167Y-33285121D01*
X41279930Y-33250000D01*
X40760001Y-33250000D01*
X40760000Y-33250001D01*
X40760000Y-33812844D01*
X40260000Y-33812844D01*
X40260000Y-32849000D01*
X40278907Y-32790809D01*
X40328407Y-32754845D01*
X40359000Y-32750000D01*
X40882270Y-32750000D01*
X40935793Y-32765716D01*
X41010931Y-32814004D01*
X41135228Y-32850500D01*
X41135230Y-32850500D01*
X41264770Y-32850500D01*
X41264772Y-32850500D01*
X41389069Y-32814004D01*
X41498049Y-32743967D01*
X41582882Y-32646063D01*
X41636697Y-32528226D01*
X41647649Y-32452052D01*
X41655133Y-32400002D01*
X41655133Y-32399997D01*
X41636697Y-32271774D01*
X41604347Y-32200938D01*
X41582882Y-32153937D01*
X41498049Y-32056033D01*
X41498048Y-32056032D01*
X41498047Y-32056031D01*
X41389073Y-31985998D01*
X41389070Y-31985996D01*
X41389069Y-31985996D01*
X41389066Y-31985995D01*
X41264774Y-31949500D01*
X41264772Y-31949500D01*
X41215479Y-31949500D01*
X41157288Y-31930593D01*
X41145476Y-31920504D01*
X40834510Y-31609539D01*
X40765992Y-31569980D01*
X40765988Y-31569978D01*
X40689564Y-31549500D01*
X40689562Y-31549500D01*
X38630076Y-31549500D01*
X38630073Y-31549500D01*
X38553649Y-31569978D01*
X38553645Y-31569980D01*
X38485127Y-31609539D01*
X38387976Y-31706690D01*
X38333460Y-31734467D01*
X38317973Y-31735686D01*
X38268677Y-31735686D01*
X38144385Y-31772181D01*
X38144378Y-31772184D01*
X38035404Y-31842217D01*
X37950569Y-31940124D01*
X37896754Y-32057960D01*
X37884091Y-32146031D01*
X37857095Y-32200938D01*
X37802980Y-32229491D01*
X37758479Y-32227010D01*
X37650000Y-32195493D01*
X37650000Y-33151000D01*
X37631093Y-33209191D01*
X37581593Y-33245155D01*
X37551000Y-33250000D01*
X37249000Y-33250000D01*
X37190809Y-33231093D01*
X37154845Y-33181593D01*
X37150000Y-33151000D01*
X37150000Y-32195494D01*
X37003805Y-32237968D01*
X36998088Y-32240442D01*
X36997458Y-32238988D01*
X36945169Y-32250668D01*
X36889019Y-32226360D01*
X36857881Y-32173691D01*
X36855500Y-32152109D01*
X36855500Y-30746163D01*
X36874407Y-30687972D01*
X36911547Y-30656967D01*
X36917745Y-30653981D01*
X36922967Y-30651467D01*
X37011146Y-30581146D01*
X37081467Y-30492967D01*
X37130403Y-30391351D01*
X37155500Y-30281393D01*
X37155500Y-30225000D01*
X37155500Y-30185118D01*
X37155500Y-29285118D01*
X37155500Y-29268607D01*
X37130403Y-29158649D01*
X37085247Y-29064882D01*
X37081468Y-29057034D01*
X37011149Y-28968858D01*
X37011146Y-28968854D01*
X36922967Y-28898533D01*
X36922963Y-28898531D01*
X36911540Y-28893029D01*
X36867318Y-28850744D01*
X36855500Y-28803836D01*
X36855500Y-28620703D01*
X36860007Y-28591174D01*
X37030696Y-28044970D01*
X37066099Y-27995068D01*
X37124073Y-27975506D01*
X37125189Y-27975500D01*
X42874811Y-27975500D01*
X42933002Y-27994407D01*
G37*
%TD.AperFunction*%
%TA.AperFunction,Conductor*%
G36*
X36666339Y-33436541D02*
G01*
X36690262Y-33463893D01*
X36750278Y-33565374D01*
X36864625Y-33679721D01*
X37003802Y-33762030D01*
X37159087Y-33807145D01*
X37168264Y-33807867D01*
X37224793Y-33831280D01*
X37256764Y-33883448D01*
X37259500Y-33906562D01*
X37259500Y-34748746D01*
X37259501Y-34748758D01*
X37270693Y-34805019D01*
X37271133Y-34807231D01*
X37271134Y-34807233D01*
X37271135Y-34807234D01*
X37271354Y-34807562D01*
X37271531Y-34808191D01*
X37274866Y-34816242D01*
X37273913Y-34816636D01*
X37287964Y-34866450D01*
X37286138Y-34881879D01*
X37279500Y-34915248D01*
X37279500Y-35484746D01*
X37279501Y-35484758D01*
X37291132Y-35543227D01*
X37291134Y-35543233D01*
X37332686Y-35605419D01*
X37335448Y-35609552D01*
X37401769Y-35653867D01*
X37406002Y-35656695D01*
X37443881Y-35704745D01*
X37450000Y-35739010D01*
X37450000Y-36551000D01*
X37431093Y-36609191D01*
X37381593Y-36645155D01*
X37351000Y-36650000D01*
X36421210Y-36650000D01*
X36395600Y-36677703D01*
X36342216Y-36707598D01*
X36322904Y-36709500D01*
X35112612Y-36709500D01*
X35054421Y-36690593D01*
X35042608Y-36680504D01*
X34512104Y-36150000D01*
X36421209Y-36150000D01*
X36949999Y-36150000D01*
X36950000Y-36149999D01*
X36950000Y-35595494D01*
X36803805Y-35637968D01*
X36803801Y-35637969D01*
X36664625Y-35720278D01*
X36550278Y-35834625D01*
X36467969Y-35973801D01*
X36467969Y-35973802D01*
X36422855Y-36129087D01*
X36421209Y-36150000D01*
X34512104Y-36150000D01*
X34481607Y-36119503D01*
X34453830Y-36064986D01*
X34463401Y-36004554D01*
X34506666Y-35961289D01*
X34551607Y-35950499D01*
X34852102Y-35950499D01*
X34901330Y-35944019D01*
X35009359Y-35893644D01*
X35080292Y-35822710D01*
X35134806Y-35794934D01*
X35195238Y-35804505D01*
X35203795Y-35809418D01*
X35210931Y-35814004D01*
X35335228Y-35850500D01*
X35335230Y-35850500D01*
X35464770Y-35850500D01*
X35464772Y-35850500D01*
X35589069Y-35814004D01*
X35698049Y-35743967D01*
X35782882Y-35646063D01*
X35836697Y-35528226D01*
X35855133Y-35400000D01*
X35836697Y-35271774D01*
X35782882Y-35153937D01*
X35698049Y-35056033D01*
X35698048Y-35056032D01*
X35698047Y-35056031D01*
X35589073Y-34985998D01*
X35589070Y-34985996D01*
X35589069Y-34985996D01*
X35584018Y-34984513D01*
X35493340Y-34957888D01*
X35442833Y-34923352D01*
X35422271Y-34865725D01*
X35426162Y-34835277D01*
X35447155Y-34763020D01*
X35447156Y-34763016D01*
X35449999Y-34726877D01*
X35449999Y-34323122D01*
X35447155Y-34286982D01*
X35406501Y-34147052D01*
X34745004Y-34808549D01*
X34690487Y-34836326D01*
X34630055Y-34826755D01*
X34604996Y-34808549D01*
X34229495Y-34433048D01*
X34201718Y-34378531D01*
X34200499Y-34363044D01*
X34200499Y-34347901D01*
X34200498Y-34347891D01*
X34194019Y-34298670D01*
X34143645Y-34190643D01*
X34143644Y-34190642D01*
X34143644Y-34190641D01*
X34059359Y-34106356D01*
X34059357Y-34106355D01*
X34059356Y-34106354D01*
X33951335Y-34055983D01*
X33951333Y-34055982D01*
X33951330Y-34055981D01*
X33902103Y-34049500D01*
X33902101Y-34049500D01*
X33547900Y-34049500D01*
X33547892Y-34049501D01*
X33498670Y-34055980D01*
X33390643Y-34106354D01*
X33306354Y-34190643D01*
X33255983Y-34298664D01*
X33255981Y-34298671D01*
X33249500Y-34347898D01*
X33249500Y-34534521D01*
X33230593Y-34592712D01*
X33220509Y-34604518D01*
X33020010Y-34805019D01*
X32969504Y-34855525D01*
X32914987Y-34883302D01*
X32854555Y-34873731D01*
X32811290Y-34830466D01*
X32800500Y-34785521D01*
X32800500Y-34205555D01*
X32801121Y-34194488D01*
X32814283Y-34077672D01*
X32819211Y-34056080D01*
X32856188Y-33950406D01*
X32865800Y-33930446D01*
X32925358Y-33835661D01*
X32939174Y-33818335D01*
X33018335Y-33739174D01*
X33035663Y-33725357D01*
X33130446Y-33665800D01*
X33150406Y-33656188D01*
X33256080Y-33619211D01*
X33277672Y-33614283D01*
X33394487Y-33601121D01*
X33405556Y-33600500D01*
X34265740Y-33600500D01*
X34323931Y-33619407D01*
X34359895Y-33668907D01*
X34359895Y-33730093D01*
X34323931Y-33779593D01*
X34297267Y-33792655D01*
X34297051Y-33793496D01*
X34675000Y-34171445D01*
X35052948Y-33793496D01*
X35052501Y-33791757D01*
X35006034Y-33760178D01*
X34985308Y-33702610D01*
X35002378Y-33643854D01*
X35050724Y-33606353D01*
X35084259Y-33600500D01*
X36133841Y-33600500D01*
X36133842Y-33600500D01*
X36288497Y-33569737D01*
X36434179Y-33509394D01*
X36550048Y-33431972D01*
X36608935Y-33415364D01*
X36666339Y-33436541D01*
G37*
%TD.AperFunction*%
%TD*%
M02*
