%TF.GenerationSoftware,KiCad,Pcbnew,8.0.1-8.0.1-0~ubuntu20.04.1*%
%TF.CreationDate,2024-06-12T16:16:27+01:00*%
%TF.ProjectId,smolpad,736d6f6c-7061-4642-9e6b-696361645f70,rev?*%
%TF.SameCoordinates,Original*%
%TF.FileFunction,Drillmap*%
%TF.FilePolarity,Positive*%
%FSLAX45Y45*%
G04 Gerber Fmt 4.5, Leading zero omitted, Abs format (unit mm)*
G04 Created by KiCad (PCBNEW 8.0.1-8.0.1-0~ubuntu20.04.1) date 2024-06-12 16:16:27*
%MOMM*%
%LPD*%
G01*
G04 APERTURE LIST*
%ADD10C,0.050000*%
%ADD11C,0.200000*%
%ADD12C,0.100000*%
%ADD13C,0.105000*%
%ADD14C,0.120000*%
G04 APERTURE END LIST*
D10*
X4740000Y-3940000D02*
G75*
G02*
X4820000Y-3940000I40000J0D01*
G01*
X4334500Y-3280000D02*
X4334500Y-3222500D01*
X4740000Y-4580000D02*
G75*
G02*
X4660000Y-4660000I-80000J0D01*
G01*
X4820000Y-3700000D02*
X4820000Y-3340000D01*
X3665500Y-3280000D02*
G75*
G02*
X3605500Y-3340000I-60000J0D01*
G01*
X5300000Y-4180000D02*
X4820000Y-4180000D01*
X4740000Y-3700000D02*
X4740000Y-3420000D01*
X4394500Y-3340000D02*
G75*
G02*
X4334500Y-3280000I0J60000D01*
G01*
X3260000Y-3420000D02*
X3260000Y-4580000D01*
X4820000Y-3700000D02*
G75*
G02*
X4740000Y-3700000I-40000J0D01*
G01*
X4820000Y-4180000D02*
X4820000Y-3940000D01*
X3665500Y-3280000D02*
X3665500Y-3222500D01*
X3260000Y-3420000D02*
G75*
G02*
X3340000Y-3340000I80000J0D01*
G01*
X4660000Y-3340000D02*
G75*
G02*
X4740000Y-3420000I0J-80000D01*
G01*
X4660000Y-3340000D02*
X4394500Y-3340000D01*
X5300000Y-3340000D02*
X5300000Y-4180000D01*
X3340000Y-4660000D02*
G75*
G02*
X3260000Y-4580000I0J80000D01*
G01*
X3340000Y-3340000D02*
X3605500Y-3340000D01*
X4820000Y-3340000D02*
X5300000Y-3340000D01*
X4740000Y-4580000D02*
X4740000Y-3940000D01*
X3340000Y-4660000D02*
X4660000Y-4660000D01*
X3665500Y-2902500D02*
X3665500Y-2857500D01*
X3665500Y-3222500D02*
X3665500Y-3052500D01*
X3690500Y-2777500D02*
X3665500Y-2857500D01*
X3690500Y-2777500D02*
X4309500Y-2777500D01*
X3695500Y-2932500D02*
X3695500Y-3022500D01*
X4304500Y-2932500D02*
X4304500Y-3022500D01*
X4334500Y-2857500D02*
X4309500Y-2777500D01*
X4334500Y-2902500D02*
X4334500Y-2857500D01*
X4334500Y-3222500D02*
X4334500Y-3052500D01*
X3665500Y-2902500D02*
G75*
G02*
X3695500Y-2932500I0J-30000D01*
G01*
X3695500Y-3022500D02*
G75*
G02*
X3665500Y-3052500I-30000J0D01*
G01*
X4304500Y-2932500D02*
G75*
G02*
X4334500Y-2902500I30000J0D01*
G01*
X4334500Y-3052500D02*
G75*
G02*
X4304500Y-3022500I0J30000D01*
G01*
D11*
D12*
X4888870Y-3463470D02*
X4987930Y-3562530D01*
X4987930Y-3463470D02*
X4888870Y-3562530D01*
X4990470Y-3971470D02*
X5089530Y-4070530D01*
X5089530Y-3971470D02*
X4990470Y-4070530D01*
X5092070Y-3463470D02*
X5191130Y-3562530D01*
X5191130Y-3463470D02*
X5092070Y-3562530D01*
D13*
X3472500Y-4120000D02*
G75*
G02*
X3367500Y-4120000I-52500J0D01*
G01*
X3367500Y-4120000D02*
G75*
G02*
X3472500Y-4120000I52500J0D01*
G01*
D14*
X4580000Y-3614000D02*
X4580000Y-3734000D01*
X4520000Y-3674000D02*
X4640000Y-3674000D01*
X4580000Y-4266000D02*
X4580000Y-4386000D01*
X4520000Y-4326000D02*
X4640000Y-4326000D01*
D11*
X3518277Y-4973984D02*
X3518277Y-4773984D01*
X3518277Y-4773984D02*
X3565896Y-4773984D01*
X3565896Y-4773984D02*
X3594467Y-4783508D01*
X3594467Y-4783508D02*
X3613515Y-4802555D01*
X3613515Y-4802555D02*
X3623039Y-4821603D01*
X3623039Y-4821603D02*
X3632562Y-4859698D01*
X3632562Y-4859698D02*
X3632562Y-4888270D01*
X3632562Y-4888270D02*
X3623039Y-4926365D01*
X3623039Y-4926365D02*
X3613515Y-4945412D01*
X3613515Y-4945412D02*
X3594467Y-4964460D01*
X3594467Y-4964460D02*
X3565896Y-4973984D01*
X3565896Y-4973984D02*
X3518277Y-4973984D01*
X3718277Y-4973984D02*
X3718277Y-4840650D01*
X3718277Y-4878746D02*
X3727801Y-4859698D01*
X3727801Y-4859698D02*
X3737324Y-4850174D01*
X3737324Y-4850174D02*
X3756372Y-4840650D01*
X3756372Y-4840650D02*
X3775420Y-4840650D01*
X3842086Y-4973984D02*
X3842086Y-4840650D01*
X3842086Y-4773984D02*
X3832562Y-4783508D01*
X3832562Y-4783508D02*
X3842086Y-4793031D01*
X3842086Y-4793031D02*
X3851610Y-4783508D01*
X3851610Y-4783508D02*
X3842086Y-4773984D01*
X3842086Y-4773984D02*
X3842086Y-4793031D01*
X3965896Y-4973984D02*
X3946848Y-4964460D01*
X3946848Y-4964460D02*
X3937324Y-4945412D01*
X3937324Y-4945412D02*
X3937324Y-4773984D01*
X4070658Y-4973984D02*
X4051610Y-4964460D01*
X4051610Y-4964460D02*
X4042086Y-4945412D01*
X4042086Y-4945412D02*
X4042086Y-4773984D01*
X4299229Y-4973984D02*
X4299229Y-4773984D01*
X4299229Y-4773984D02*
X4365896Y-4916841D01*
X4365896Y-4916841D02*
X4432563Y-4773984D01*
X4432563Y-4773984D02*
X4432563Y-4973984D01*
X4613515Y-4973984D02*
X4613515Y-4869222D01*
X4613515Y-4869222D02*
X4603991Y-4850174D01*
X4603991Y-4850174D02*
X4584944Y-4840650D01*
X4584944Y-4840650D02*
X4546848Y-4840650D01*
X4546848Y-4840650D02*
X4527801Y-4850174D01*
X4613515Y-4964460D02*
X4594467Y-4973984D01*
X4594467Y-4973984D02*
X4546848Y-4973984D01*
X4546848Y-4973984D02*
X4527801Y-4964460D01*
X4527801Y-4964460D02*
X4518277Y-4945412D01*
X4518277Y-4945412D02*
X4518277Y-4926365D01*
X4518277Y-4926365D02*
X4527801Y-4907317D01*
X4527801Y-4907317D02*
X4546848Y-4897793D01*
X4546848Y-4897793D02*
X4594467Y-4897793D01*
X4594467Y-4897793D02*
X4613515Y-4888270D01*
X4708753Y-4840650D02*
X4708753Y-5040650D01*
X4708753Y-4850174D02*
X4727801Y-4840650D01*
X4727801Y-4840650D02*
X4765896Y-4840650D01*
X4765896Y-4840650D02*
X4784944Y-4850174D01*
X4784944Y-4850174D02*
X4794467Y-4859698D01*
X4794467Y-4859698D02*
X4803991Y-4878746D01*
X4803991Y-4878746D02*
X4803991Y-4935889D01*
X4803991Y-4935889D02*
X4794467Y-4954936D01*
X4794467Y-4954936D02*
X4784944Y-4964460D01*
X4784944Y-4964460D02*
X4765896Y-4973984D01*
X4765896Y-4973984D02*
X4727801Y-4973984D01*
X4727801Y-4973984D02*
X4708753Y-4964460D01*
X4889705Y-4954936D02*
X4899229Y-4964460D01*
X4899229Y-4964460D02*
X4889705Y-4973984D01*
X4889705Y-4973984D02*
X4880182Y-4964460D01*
X4880182Y-4964460D02*
X4889705Y-4954936D01*
X4889705Y-4954936D02*
X4889705Y-4973984D01*
X4889705Y-4850174D02*
X4899229Y-4859698D01*
X4899229Y-4859698D02*
X4889705Y-4869222D01*
X4889705Y-4869222D02*
X4880182Y-4859698D01*
X4880182Y-4859698D02*
X4889705Y-4850174D01*
X4889705Y-4850174D02*
X4889705Y-4869222D01*
D12*
X3158440Y-5252970D02*
X3257500Y-5352030D01*
X3257500Y-5252970D02*
X3158440Y-5352030D01*
D11*
X3556372Y-5193984D02*
X3575420Y-5193984D01*
X3575420Y-5193984D02*
X3594467Y-5203508D01*
X3594467Y-5203508D02*
X3603991Y-5213031D01*
X3603991Y-5213031D02*
X3613515Y-5232079D01*
X3613515Y-5232079D02*
X3623039Y-5270174D01*
X3623039Y-5270174D02*
X3623039Y-5317793D01*
X3623039Y-5317793D02*
X3613515Y-5355889D01*
X3613515Y-5355889D02*
X3603991Y-5374936D01*
X3603991Y-5374936D02*
X3594467Y-5384460D01*
X3594467Y-5384460D02*
X3575420Y-5393984D01*
X3575420Y-5393984D02*
X3556372Y-5393984D01*
X3556372Y-5393984D02*
X3537324Y-5384460D01*
X3537324Y-5384460D02*
X3527801Y-5374936D01*
X3527801Y-5374936D02*
X3518277Y-5355889D01*
X3518277Y-5355889D02*
X3508753Y-5317793D01*
X3508753Y-5317793D02*
X3508753Y-5270174D01*
X3508753Y-5270174D02*
X3518277Y-5232079D01*
X3518277Y-5232079D02*
X3527801Y-5213031D01*
X3527801Y-5213031D02*
X3537324Y-5203508D01*
X3537324Y-5203508D02*
X3556372Y-5193984D01*
X3708753Y-5374936D02*
X3718277Y-5384460D01*
X3718277Y-5384460D02*
X3708753Y-5393984D01*
X3708753Y-5393984D02*
X3699229Y-5384460D01*
X3699229Y-5384460D02*
X3708753Y-5374936D01*
X3708753Y-5374936D02*
X3708753Y-5393984D01*
X3813515Y-5393984D02*
X3851610Y-5393984D01*
X3851610Y-5393984D02*
X3870658Y-5384460D01*
X3870658Y-5384460D02*
X3880182Y-5374936D01*
X3880182Y-5374936D02*
X3899229Y-5346365D01*
X3899229Y-5346365D02*
X3908753Y-5308270D01*
X3908753Y-5308270D02*
X3908753Y-5232079D01*
X3908753Y-5232079D02*
X3899229Y-5213031D01*
X3899229Y-5213031D02*
X3889705Y-5203508D01*
X3889705Y-5203508D02*
X3870658Y-5193984D01*
X3870658Y-5193984D02*
X3832562Y-5193984D01*
X3832562Y-5193984D02*
X3813515Y-5203508D01*
X3813515Y-5203508D02*
X3803991Y-5213031D01*
X3803991Y-5213031D02*
X3794467Y-5232079D01*
X3794467Y-5232079D02*
X3794467Y-5279698D01*
X3794467Y-5279698D02*
X3803991Y-5298746D01*
X3803991Y-5298746D02*
X3813515Y-5308270D01*
X3813515Y-5308270D02*
X3832562Y-5317793D01*
X3832562Y-5317793D02*
X3870658Y-5317793D01*
X3870658Y-5317793D02*
X3889705Y-5308270D01*
X3889705Y-5308270D02*
X3899229Y-5298746D01*
X3899229Y-5298746D02*
X3908753Y-5279698D01*
X4003991Y-5393984D02*
X4042086Y-5393984D01*
X4042086Y-5393984D02*
X4061134Y-5384460D01*
X4061134Y-5384460D02*
X4070658Y-5374936D01*
X4070658Y-5374936D02*
X4089705Y-5346365D01*
X4089705Y-5346365D02*
X4099229Y-5308270D01*
X4099229Y-5308270D02*
X4099229Y-5232079D01*
X4099229Y-5232079D02*
X4089705Y-5213031D01*
X4089705Y-5213031D02*
X4080182Y-5203508D01*
X4080182Y-5203508D02*
X4061134Y-5193984D01*
X4061134Y-5193984D02*
X4023039Y-5193984D01*
X4023039Y-5193984D02*
X4003991Y-5203508D01*
X4003991Y-5203508D02*
X3994467Y-5213031D01*
X3994467Y-5213031D02*
X3984943Y-5232079D01*
X3984943Y-5232079D02*
X3984943Y-5279698D01*
X3984943Y-5279698D02*
X3994467Y-5298746D01*
X3994467Y-5298746D02*
X4003991Y-5308270D01*
X4003991Y-5308270D02*
X4023039Y-5317793D01*
X4023039Y-5317793D02*
X4061134Y-5317793D01*
X4061134Y-5317793D02*
X4080182Y-5308270D01*
X4080182Y-5308270D02*
X4089705Y-5298746D01*
X4089705Y-5298746D02*
X4099229Y-5279698D01*
X4289705Y-5393984D02*
X4175420Y-5393984D01*
X4232563Y-5393984D02*
X4232563Y-5193984D01*
X4232563Y-5193984D02*
X4213515Y-5222555D01*
X4213515Y-5222555D02*
X4194467Y-5241603D01*
X4194467Y-5241603D02*
X4175420Y-5251127D01*
X4375420Y-5393984D02*
X4375420Y-5260650D01*
X4375420Y-5279698D02*
X4384944Y-5270174D01*
X4384944Y-5270174D02*
X4403991Y-5260650D01*
X4403991Y-5260650D02*
X4432563Y-5260650D01*
X4432563Y-5260650D02*
X4451610Y-5270174D01*
X4451610Y-5270174D02*
X4461134Y-5289222D01*
X4461134Y-5289222D02*
X4461134Y-5393984D01*
X4461134Y-5289222D02*
X4470658Y-5270174D01*
X4470658Y-5270174D02*
X4489705Y-5260650D01*
X4489705Y-5260650D02*
X4518277Y-5260650D01*
X4518277Y-5260650D02*
X4537325Y-5270174D01*
X4537325Y-5270174D02*
X4546848Y-5289222D01*
X4546848Y-5289222D02*
X4546848Y-5393984D01*
X4642086Y-5393984D02*
X4642086Y-5260650D01*
X4642086Y-5279698D02*
X4651610Y-5270174D01*
X4651610Y-5270174D02*
X4670658Y-5260650D01*
X4670658Y-5260650D02*
X4699229Y-5260650D01*
X4699229Y-5260650D02*
X4718277Y-5270174D01*
X4718277Y-5270174D02*
X4727801Y-5289222D01*
X4727801Y-5289222D02*
X4727801Y-5393984D01*
X4727801Y-5289222D02*
X4737325Y-5270174D01*
X4737325Y-5270174D02*
X4756372Y-5260650D01*
X4756372Y-5260650D02*
X4784944Y-5260650D01*
X4784944Y-5260650D02*
X4803991Y-5270174D01*
X4803991Y-5270174D02*
X4813515Y-5289222D01*
X4813515Y-5289222D02*
X4813515Y-5393984D01*
X5203991Y-5184460D02*
X5032563Y-5441603D01*
X5461134Y-5193984D02*
X5480182Y-5193984D01*
X5480182Y-5193984D02*
X5499229Y-5203508D01*
X5499229Y-5203508D02*
X5508753Y-5213031D01*
X5508753Y-5213031D02*
X5518277Y-5232079D01*
X5518277Y-5232079D02*
X5527801Y-5270174D01*
X5527801Y-5270174D02*
X5527801Y-5317793D01*
X5527801Y-5317793D02*
X5518277Y-5355889D01*
X5518277Y-5355889D02*
X5508753Y-5374936D01*
X5508753Y-5374936D02*
X5499229Y-5384460D01*
X5499229Y-5384460D02*
X5480182Y-5393984D01*
X5480182Y-5393984D02*
X5461134Y-5393984D01*
X5461134Y-5393984D02*
X5442087Y-5384460D01*
X5442087Y-5384460D02*
X5432563Y-5374936D01*
X5432563Y-5374936D02*
X5423039Y-5355889D01*
X5423039Y-5355889D02*
X5413515Y-5317793D01*
X5413515Y-5317793D02*
X5413515Y-5270174D01*
X5413515Y-5270174D02*
X5423039Y-5232079D01*
X5423039Y-5232079D02*
X5432563Y-5213031D01*
X5432563Y-5213031D02*
X5442087Y-5203508D01*
X5442087Y-5203508D02*
X5461134Y-5193984D01*
X5613515Y-5374936D02*
X5623039Y-5384460D01*
X5623039Y-5384460D02*
X5613515Y-5393984D01*
X5613515Y-5393984D02*
X5603991Y-5384460D01*
X5603991Y-5384460D02*
X5613515Y-5374936D01*
X5613515Y-5374936D02*
X5613515Y-5393984D01*
X5746848Y-5193984D02*
X5765896Y-5193984D01*
X5765896Y-5193984D02*
X5784944Y-5203508D01*
X5784944Y-5203508D02*
X5794467Y-5213031D01*
X5794467Y-5213031D02*
X5803991Y-5232079D01*
X5803991Y-5232079D02*
X5813515Y-5270174D01*
X5813515Y-5270174D02*
X5813515Y-5317793D01*
X5813515Y-5317793D02*
X5803991Y-5355889D01*
X5803991Y-5355889D02*
X5794467Y-5374936D01*
X5794467Y-5374936D02*
X5784944Y-5384460D01*
X5784944Y-5384460D02*
X5765896Y-5393984D01*
X5765896Y-5393984D02*
X5746848Y-5393984D01*
X5746848Y-5393984D02*
X5727801Y-5384460D01*
X5727801Y-5384460D02*
X5718277Y-5374936D01*
X5718277Y-5374936D02*
X5708753Y-5355889D01*
X5708753Y-5355889D02*
X5699229Y-5317793D01*
X5699229Y-5317793D02*
X5699229Y-5270174D01*
X5699229Y-5270174D02*
X5708753Y-5232079D01*
X5708753Y-5232079D02*
X5718277Y-5213031D01*
X5718277Y-5213031D02*
X5727801Y-5203508D01*
X5727801Y-5203508D02*
X5746848Y-5193984D01*
X5880182Y-5193984D02*
X6003991Y-5193984D01*
X6003991Y-5193984D02*
X5937325Y-5270174D01*
X5937325Y-5270174D02*
X5965896Y-5270174D01*
X5965896Y-5270174D02*
X5984944Y-5279698D01*
X5984944Y-5279698D02*
X5994467Y-5289222D01*
X5994467Y-5289222D02*
X6003991Y-5308270D01*
X6003991Y-5308270D02*
X6003991Y-5355889D01*
X6003991Y-5355889D02*
X5994467Y-5374936D01*
X5994467Y-5374936D02*
X5984944Y-5384460D01*
X5984944Y-5384460D02*
X5965896Y-5393984D01*
X5965896Y-5393984D02*
X5908753Y-5393984D01*
X5908753Y-5393984D02*
X5889706Y-5384460D01*
X5889706Y-5384460D02*
X5880182Y-5374936D01*
X6099229Y-5393984D02*
X6137325Y-5393984D01*
X6137325Y-5393984D02*
X6156372Y-5384460D01*
X6156372Y-5384460D02*
X6165896Y-5374936D01*
X6165896Y-5374936D02*
X6184944Y-5346365D01*
X6184944Y-5346365D02*
X6194467Y-5308270D01*
X6194467Y-5308270D02*
X6194467Y-5232079D01*
X6194467Y-5232079D02*
X6184944Y-5213031D01*
X6184944Y-5213031D02*
X6175420Y-5203508D01*
X6175420Y-5203508D02*
X6156372Y-5193984D01*
X6156372Y-5193984D02*
X6118277Y-5193984D01*
X6118277Y-5193984D02*
X6099229Y-5203508D01*
X6099229Y-5203508D02*
X6089706Y-5213031D01*
X6089706Y-5213031D02*
X6080182Y-5232079D01*
X6080182Y-5232079D02*
X6080182Y-5279698D01*
X6080182Y-5279698D02*
X6089706Y-5298746D01*
X6089706Y-5298746D02*
X6099229Y-5308270D01*
X6099229Y-5308270D02*
X6118277Y-5317793D01*
X6118277Y-5317793D02*
X6156372Y-5317793D01*
X6156372Y-5317793D02*
X6175420Y-5308270D01*
X6175420Y-5308270D02*
X6184944Y-5298746D01*
X6184944Y-5298746D02*
X6194467Y-5279698D01*
X6318277Y-5193984D02*
X6337325Y-5193984D01*
X6337325Y-5193984D02*
X6356372Y-5203508D01*
X6356372Y-5203508D02*
X6365896Y-5213031D01*
X6365896Y-5213031D02*
X6375420Y-5232079D01*
X6375420Y-5232079D02*
X6384944Y-5270174D01*
X6384944Y-5270174D02*
X6384944Y-5317793D01*
X6384944Y-5317793D02*
X6375420Y-5355889D01*
X6375420Y-5355889D02*
X6365896Y-5374936D01*
X6365896Y-5374936D02*
X6356372Y-5384460D01*
X6356372Y-5384460D02*
X6337325Y-5393984D01*
X6337325Y-5393984D02*
X6318277Y-5393984D01*
X6318277Y-5393984D02*
X6299229Y-5384460D01*
X6299229Y-5384460D02*
X6289706Y-5374936D01*
X6289706Y-5374936D02*
X6280182Y-5355889D01*
X6280182Y-5355889D02*
X6270658Y-5317793D01*
X6270658Y-5317793D02*
X6270658Y-5270174D01*
X6270658Y-5270174D02*
X6280182Y-5232079D01*
X6280182Y-5232079D02*
X6289706Y-5213031D01*
X6289706Y-5213031D02*
X6299229Y-5203508D01*
X6299229Y-5203508D02*
X6318277Y-5193984D01*
X6461134Y-5193984D02*
X6461134Y-5232079D01*
X6537325Y-5193984D02*
X6537325Y-5232079D01*
X6832563Y-5470174D02*
X6823039Y-5460650D01*
X6823039Y-5460650D02*
X6803991Y-5432079D01*
X6803991Y-5432079D02*
X6794468Y-5413031D01*
X6794468Y-5413031D02*
X6784944Y-5384460D01*
X6784944Y-5384460D02*
X6775420Y-5336841D01*
X6775420Y-5336841D02*
X6775420Y-5298746D01*
X6775420Y-5298746D02*
X6784944Y-5251127D01*
X6784944Y-5251127D02*
X6794468Y-5222555D01*
X6794468Y-5222555D02*
X6803991Y-5203508D01*
X6803991Y-5203508D02*
X6823039Y-5174936D01*
X6823039Y-5174936D02*
X6832563Y-5165412D01*
X6889706Y-5193984D02*
X7013515Y-5193984D01*
X7013515Y-5193984D02*
X6946848Y-5270174D01*
X6946848Y-5270174D02*
X6975420Y-5270174D01*
X6975420Y-5270174D02*
X6994468Y-5279698D01*
X6994468Y-5279698D02*
X7003991Y-5289222D01*
X7003991Y-5289222D02*
X7013515Y-5308270D01*
X7013515Y-5308270D02*
X7013515Y-5355889D01*
X7013515Y-5355889D02*
X7003991Y-5374936D01*
X7003991Y-5374936D02*
X6994468Y-5384460D01*
X6994468Y-5384460D02*
X6975420Y-5393984D01*
X6975420Y-5393984D02*
X6918277Y-5393984D01*
X6918277Y-5393984D02*
X6899229Y-5384460D01*
X6899229Y-5384460D02*
X6889706Y-5374936D01*
X7251610Y-5393984D02*
X7251610Y-5193984D01*
X7337325Y-5393984D02*
X7337325Y-5289222D01*
X7337325Y-5289222D02*
X7327801Y-5270174D01*
X7327801Y-5270174D02*
X7308753Y-5260650D01*
X7308753Y-5260650D02*
X7280182Y-5260650D01*
X7280182Y-5260650D02*
X7261134Y-5270174D01*
X7261134Y-5270174D02*
X7251610Y-5279698D01*
X7461134Y-5393984D02*
X7442087Y-5384460D01*
X7442087Y-5384460D02*
X7432563Y-5374936D01*
X7432563Y-5374936D02*
X7423039Y-5355889D01*
X7423039Y-5355889D02*
X7423039Y-5298746D01*
X7423039Y-5298746D02*
X7432563Y-5279698D01*
X7432563Y-5279698D02*
X7442087Y-5270174D01*
X7442087Y-5270174D02*
X7461134Y-5260650D01*
X7461134Y-5260650D02*
X7489706Y-5260650D01*
X7489706Y-5260650D02*
X7508753Y-5270174D01*
X7508753Y-5270174D02*
X7518277Y-5279698D01*
X7518277Y-5279698D02*
X7527801Y-5298746D01*
X7527801Y-5298746D02*
X7527801Y-5355889D01*
X7527801Y-5355889D02*
X7518277Y-5374936D01*
X7518277Y-5374936D02*
X7508753Y-5384460D01*
X7508753Y-5384460D02*
X7489706Y-5393984D01*
X7489706Y-5393984D02*
X7461134Y-5393984D01*
X7642087Y-5393984D02*
X7623039Y-5384460D01*
X7623039Y-5384460D02*
X7613515Y-5365412D01*
X7613515Y-5365412D02*
X7613515Y-5193984D01*
X7794468Y-5384460D02*
X7775420Y-5393984D01*
X7775420Y-5393984D02*
X7737325Y-5393984D01*
X7737325Y-5393984D02*
X7718277Y-5384460D01*
X7718277Y-5384460D02*
X7708753Y-5365412D01*
X7708753Y-5365412D02*
X7708753Y-5289222D01*
X7708753Y-5289222D02*
X7718277Y-5270174D01*
X7718277Y-5270174D02*
X7737325Y-5260650D01*
X7737325Y-5260650D02*
X7775420Y-5260650D01*
X7775420Y-5260650D02*
X7794468Y-5270174D01*
X7794468Y-5270174D02*
X7803991Y-5289222D01*
X7803991Y-5289222D02*
X7803991Y-5308270D01*
X7803991Y-5308270D02*
X7708753Y-5327317D01*
X7880182Y-5384460D02*
X7899230Y-5393984D01*
X7899230Y-5393984D02*
X7937325Y-5393984D01*
X7937325Y-5393984D02*
X7956372Y-5384460D01*
X7956372Y-5384460D02*
X7965896Y-5365412D01*
X7965896Y-5365412D02*
X7965896Y-5355889D01*
X7965896Y-5355889D02*
X7956372Y-5336841D01*
X7956372Y-5336841D02*
X7937325Y-5327317D01*
X7937325Y-5327317D02*
X7908753Y-5327317D01*
X7908753Y-5327317D02*
X7889706Y-5317793D01*
X7889706Y-5317793D02*
X7880182Y-5298746D01*
X7880182Y-5298746D02*
X7880182Y-5289222D01*
X7880182Y-5289222D02*
X7889706Y-5270174D01*
X7889706Y-5270174D02*
X7908753Y-5260650D01*
X7908753Y-5260650D02*
X7937325Y-5260650D01*
X7937325Y-5260650D02*
X7956372Y-5270174D01*
X8032563Y-5470174D02*
X8042087Y-5460650D01*
X8042087Y-5460650D02*
X8061134Y-5432079D01*
X8061134Y-5432079D02*
X8070658Y-5413031D01*
X8070658Y-5413031D02*
X8080182Y-5384460D01*
X8080182Y-5384460D02*
X8089706Y-5336841D01*
X8089706Y-5336841D02*
X8089706Y-5298746D01*
X8089706Y-5298746D02*
X8080182Y-5251127D01*
X8080182Y-5251127D02*
X8070658Y-5222555D01*
X8070658Y-5222555D02*
X8061134Y-5203508D01*
X8061134Y-5203508D02*
X8042087Y-5174936D01*
X8042087Y-5174936D02*
X8032563Y-5165412D01*
X8394468Y-5470174D02*
X8384944Y-5460650D01*
X8384944Y-5460650D02*
X8365896Y-5432079D01*
X8365896Y-5432079D02*
X8356372Y-5413031D01*
X8356372Y-5413031D02*
X8346849Y-5384460D01*
X8346849Y-5384460D02*
X8337325Y-5336841D01*
X8337325Y-5336841D02*
X8337325Y-5298746D01*
X8337325Y-5298746D02*
X8346849Y-5251127D01*
X8346849Y-5251127D02*
X8356372Y-5222555D01*
X8356372Y-5222555D02*
X8365896Y-5203508D01*
X8365896Y-5203508D02*
X8384944Y-5174936D01*
X8384944Y-5174936D02*
X8394468Y-5165412D01*
X8470658Y-5260650D02*
X8470658Y-5393984D01*
X8470658Y-5279698D02*
X8480182Y-5270174D01*
X8480182Y-5270174D02*
X8499230Y-5260650D01*
X8499230Y-5260650D02*
X8527801Y-5260650D01*
X8527801Y-5260650D02*
X8546849Y-5270174D01*
X8546849Y-5270174D02*
X8556373Y-5289222D01*
X8556373Y-5289222D02*
X8556373Y-5393984D01*
X8680182Y-5393984D02*
X8661134Y-5384460D01*
X8661134Y-5384460D02*
X8651611Y-5374936D01*
X8651611Y-5374936D02*
X8642087Y-5355889D01*
X8642087Y-5355889D02*
X8642087Y-5298746D01*
X8642087Y-5298746D02*
X8651611Y-5279698D01*
X8651611Y-5279698D02*
X8661134Y-5270174D01*
X8661134Y-5270174D02*
X8680182Y-5260650D01*
X8680182Y-5260650D02*
X8708754Y-5260650D01*
X8708754Y-5260650D02*
X8727801Y-5270174D01*
X8727801Y-5270174D02*
X8737325Y-5279698D01*
X8737325Y-5279698D02*
X8746849Y-5298746D01*
X8746849Y-5298746D02*
X8746849Y-5355889D01*
X8746849Y-5355889D02*
X8737325Y-5374936D01*
X8737325Y-5374936D02*
X8727801Y-5384460D01*
X8727801Y-5384460D02*
X8708754Y-5393984D01*
X8708754Y-5393984D02*
X8680182Y-5393984D01*
X8803992Y-5260650D02*
X8880182Y-5260650D01*
X8832563Y-5193984D02*
X8832563Y-5365412D01*
X8832563Y-5365412D02*
X8842087Y-5384460D01*
X8842087Y-5384460D02*
X8861134Y-5393984D01*
X8861134Y-5393984D02*
X8880182Y-5393984D01*
X9099230Y-5260650D02*
X9099230Y-5460650D01*
X9099230Y-5270174D02*
X9118277Y-5260650D01*
X9118277Y-5260650D02*
X9156373Y-5260650D01*
X9156373Y-5260650D02*
X9175420Y-5270174D01*
X9175420Y-5270174D02*
X9184944Y-5279698D01*
X9184944Y-5279698D02*
X9194468Y-5298746D01*
X9194468Y-5298746D02*
X9194468Y-5355889D01*
X9194468Y-5355889D02*
X9184944Y-5374936D01*
X9184944Y-5374936D02*
X9175420Y-5384460D01*
X9175420Y-5384460D02*
X9156373Y-5393984D01*
X9156373Y-5393984D02*
X9118277Y-5393984D01*
X9118277Y-5393984D02*
X9099230Y-5384460D01*
X9308754Y-5393984D02*
X9289706Y-5384460D01*
X9289706Y-5384460D02*
X9280182Y-5365412D01*
X9280182Y-5365412D02*
X9280182Y-5193984D01*
X9470658Y-5393984D02*
X9470658Y-5289222D01*
X9470658Y-5289222D02*
X9461135Y-5270174D01*
X9461135Y-5270174D02*
X9442087Y-5260650D01*
X9442087Y-5260650D02*
X9403992Y-5260650D01*
X9403992Y-5260650D02*
X9384944Y-5270174D01*
X9470658Y-5384460D02*
X9451611Y-5393984D01*
X9451611Y-5393984D02*
X9403992Y-5393984D01*
X9403992Y-5393984D02*
X9384944Y-5384460D01*
X9384944Y-5384460D02*
X9375420Y-5365412D01*
X9375420Y-5365412D02*
X9375420Y-5346365D01*
X9375420Y-5346365D02*
X9384944Y-5327317D01*
X9384944Y-5327317D02*
X9403992Y-5317793D01*
X9403992Y-5317793D02*
X9451611Y-5317793D01*
X9451611Y-5317793D02*
X9470658Y-5308270D01*
X9537325Y-5260650D02*
X9613515Y-5260650D01*
X9565896Y-5193984D02*
X9565896Y-5365412D01*
X9565896Y-5365412D02*
X9575420Y-5384460D01*
X9575420Y-5384460D02*
X9594468Y-5393984D01*
X9594468Y-5393984D02*
X9613515Y-5393984D01*
X9756373Y-5384460D02*
X9737325Y-5393984D01*
X9737325Y-5393984D02*
X9699230Y-5393984D01*
X9699230Y-5393984D02*
X9680182Y-5384460D01*
X9680182Y-5384460D02*
X9670658Y-5365412D01*
X9670658Y-5365412D02*
X9670658Y-5289222D01*
X9670658Y-5289222D02*
X9680182Y-5270174D01*
X9680182Y-5270174D02*
X9699230Y-5260650D01*
X9699230Y-5260650D02*
X9737325Y-5260650D01*
X9737325Y-5260650D02*
X9756373Y-5270174D01*
X9756373Y-5270174D02*
X9765896Y-5289222D01*
X9765896Y-5289222D02*
X9765896Y-5308270D01*
X9765896Y-5308270D02*
X9670658Y-5327317D01*
X9937325Y-5393984D02*
X9937325Y-5193984D01*
X9937325Y-5384460D02*
X9918277Y-5393984D01*
X9918277Y-5393984D02*
X9880182Y-5393984D01*
X9880182Y-5393984D02*
X9861135Y-5384460D01*
X9861135Y-5384460D02*
X9851611Y-5374936D01*
X9851611Y-5374936D02*
X9842087Y-5355889D01*
X9842087Y-5355889D02*
X9842087Y-5298746D01*
X9842087Y-5298746D02*
X9851611Y-5279698D01*
X9851611Y-5279698D02*
X9861135Y-5270174D01*
X9861135Y-5270174D02*
X9880182Y-5260650D01*
X9880182Y-5260650D02*
X9918277Y-5260650D01*
X9918277Y-5260650D02*
X9937325Y-5270174D01*
X10013516Y-5470174D02*
X10023039Y-5460650D01*
X10023039Y-5460650D02*
X10042087Y-5432079D01*
X10042087Y-5432079D02*
X10051611Y-5413031D01*
X10051611Y-5413031D02*
X10061135Y-5384460D01*
X10061135Y-5384460D02*
X10070658Y-5336841D01*
X10070658Y-5336841D02*
X10070658Y-5298746D01*
X10070658Y-5298746D02*
X10061135Y-5251127D01*
X10061135Y-5251127D02*
X10051611Y-5222555D01*
X10051611Y-5222555D02*
X10042087Y-5203508D01*
X10042087Y-5203508D02*
X10023039Y-5174936D01*
X10023039Y-5174936D02*
X10013516Y-5165412D01*
D13*
X3257500Y-5566500D02*
G75*
G02*
X3152500Y-5566500I-52500J0D01*
G01*
X3152500Y-5566500D02*
G75*
G02*
X3257500Y-5566500I52500J0D01*
G01*
D11*
X3623039Y-5657984D02*
X3508753Y-5657984D01*
X3565896Y-5657984D02*
X3565896Y-5457984D01*
X3565896Y-5457984D02*
X3546848Y-5486555D01*
X3546848Y-5486555D02*
X3527801Y-5505603D01*
X3527801Y-5505603D02*
X3508753Y-5515127D01*
X3708753Y-5638936D02*
X3718277Y-5648460D01*
X3718277Y-5648460D02*
X3708753Y-5657984D01*
X3708753Y-5657984D02*
X3699229Y-5648460D01*
X3699229Y-5648460D02*
X3708753Y-5638936D01*
X3708753Y-5638936D02*
X3708753Y-5657984D01*
X3842086Y-5457984D02*
X3861134Y-5457984D01*
X3861134Y-5457984D02*
X3880182Y-5467508D01*
X3880182Y-5467508D02*
X3889705Y-5477031D01*
X3889705Y-5477031D02*
X3899229Y-5496079D01*
X3899229Y-5496079D02*
X3908753Y-5534174D01*
X3908753Y-5534174D02*
X3908753Y-5581793D01*
X3908753Y-5581793D02*
X3899229Y-5619888D01*
X3899229Y-5619888D02*
X3889705Y-5638936D01*
X3889705Y-5638936D02*
X3880182Y-5648460D01*
X3880182Y-5648460D02*
X3861134Y-5657984D01*
X3861134Y-5657984D02*
X3842086Y-5657984D01*
X3842086Y-5657984D02*
X3823039Y-5648460D01*
X3823039Y-5648460D02*
X3813515Y-5638936D01*
X3813515Y-5638936D02*
X3803991Y-5619888D01*
X3803991Y-5619888D02*
X3794467Y-5581793D01*
X3794467Y-5581793D02*
X3794467Y-5534174D01*
X3794467Y-5534174D02*
X3803991Y-5496079D01*
X3803991Y-5496079D02*
X3813515Y-5477031D01*
X3813515Y-5477031D02*
X3823039Y-5467508D01*
X3823039Y-5467508D02*
X3842086Y-5457984D01*
X4089705Y-5457984D02*
X3994467Y-5457984D01*
X3994467Y-5457984D02*
X3984943Y-5553222D01*
X3984943Y-5553222D02*
X3994467Y-5543698D01*
X3994467Y-5543698D02*
X4013515Y-5534174D01*
X4013515Y-5534174D02*
X4061134Y-5534174D01*
X4061134Y-5534174D02*
X4080182Y-5543698D01*
X4080182Y-5543698D02*
X4089705Y-5553222D01*
X4089705Y-5553222D02*
X4099229Y-5572270D01*
X4099229Y-5572270D02*
X4099229Y-5619888D01*
X4099229Y-5619888D02*
X4089705Y-5638936D01*
X4089705Y-5638936D02*
X4080182Y-5648460D01*
X4080182Y-5648460D02*
X4061134Y-5657984D01*
X4061134Y-5657984D02*
X4013515Y-5657984D01*
X4013515Y-5657984D02*
X3994467Y-5648460D01*
X3994467Y-5648460D02*
X3984943Y-5638936D01*
X4223039Y-5457984D02*
X4242086Y-5457984D01*
X4242086Y-5457984D02*
X4261134Y-5467508D01*
X4261134Y-5467508D02*
X4270658Y-5477031D01*
X4270658Y-5477031D02*
X4280182Y-5496079D01*
X4280182Y-5496079D02*
X4289705Y-5534174D01*
X4289705Y-5534174D02*
X4289705Y-5581793D01*
X4289705Y-5581793D02*
X4280182Y-5619888D01*
X4280182Y-5619888D02*
X4270658Y-5638936D01*
X4270658Y-5638936D02*
X4261134Y-5648460D01*
X4261134Y-5648460D02*
X4242086Y-5657984D01*
X4242086Y-5657984D02*
X4223039Y-5657984D01*
X4223039Y-5657984D02*
X4203991Y-5648460D01*
X4203991Y-5648460D02*
X4194467Y-5638936D01*
X4194467Y-5638936D02*
X4184943Y-5619888D01*
X4184943Y-5619888D02*
X4175420Y-5581793D01*
X4175420Y-5581793D02*
X4175420Y-5534174D01*
X4175420Y-5534174D02*
X4184943Y-5496079D01*
X4184943Y-5496079D02*
X4194467Y-5477031D01*
X4194467Y-5477031D02*
X4203991Y-5467508D01*
X4203991Y-5467508D02*
X4223039Y-5457984D01*
X4375420Y-5657984D02*
X4375420Y-5524650D01*
X4375420Y-5543698D02*
X4384944Y-5534174D01*
X4384944Y-5534174D02*
X4403991Y-5524650D01*
X4403991Y-5524650D02*
X4432563Y-5524650D01*
X4432563Y-5524650D02*
X4451610Y-5534174D01*
X4451610Y-5534174D02*
X4461134Y-5553222D01*
X4461134Y-5553222D02*
X4461134Y-5657984D01*
X4461134Y-5553222D02*
X4470658Y-5534174D01*
X4470658Y-5534174D02*
X4489705Y-5524650D01*
X4489705Y-5524650D02*
X4518277Y-5524650D01*
X4518277Y-5524650D02*
X4537325Y-5534174D01*
X4537325Y-5534174D02*
X4546848Y-5553222D01*
X4546848Y-5553222D02*
X4546848Y-5657984D01*
X4642086Y-5657984D02*
X4642086Y-5524650D01*
X4642086Y-5543698D02*
X4651610Y-5534174D01*
X4651610Y-5534174D02*
X4670658Y-5524650D01*
X4670658Y-5524650D02*
X4699229Y-5524650D01*
X4699229Y-5524650D02*
X4718277Y-5534174D01*
X4718277Y-5534174D02*
X4727801Y-5553222D01*
X4727801Y-5553222D02*
X4727801Y-5657984D01*
X4727801Y-5553222D02*
X4737325Y-5534174D01*
X4737325Y-5534174D02*
X4756372Y-5524650D01*
X4756372Y-5524650D02*
X4784944Y-5524650D01*
X4784944Y-5524650D02*
X4803991Y-5534174D01*
X4803991Y-5534174D02*
X4813515Y-5553222D01*
X4813515Y-5553222D02*
X4813515Y-5657984D01*
X5203991Y-5448460D02*
X5032563Y-5705603D01*
X5461134Y-5457984D02*
X5480182Y-5457984D01*
X5480182Y-5457984D02*
X5499229Y-5467508D01*
X5499229Y-5467508D02*
X5508753Y-5477031D01*
X5508753Y-5477031D02*
X5518277Y-5496079D01*
X5518277Y-5496079D02*
X5527801Y-5534174D01*
X5527801Y-5534174D02*
X5527801Y-5581793D01*
X5527801Y-5581793D02*
X5518277Y-5619888D01*
X5518277Y-5619888D02*
X5508753Y-5638936D01*
X5508753Y-5638936D02*
X5499229Y-5648460D01*
X5499229Y-5648460D02*
X5480182Y-5657984D01*
X5480182Y-5657984D02*
X5461134Y-5657984D01*
X5461134Y-5657984D02*
X5442087Y-5648460D01*
X5442087Y-5648460D02*
X5432563Y-5638936D01*
X5432563Y-5638936D02*
X5423039Y-5619888D01*
X5423039Y-5619888D02*
X5413515Y-5581793D01*
X5413515Y-5581793D02*
X5413515Y-5534174D01*
X5413515Y-5534174D02*
X5423039Y-5496079D01*
X5423039Y-5496079D02*
X5432563Y-5477031D01*
X5432563Y-5477031D02*
X5442087Y-5467508D01*
X5442087Y-5467508D02*
X5461134Y-5457984D01*
X5613515Y-5638936D02*
X5623039Y-5648460D01*
X5623039Y-5648460D02*
X5613515Y-5657984D01*
X5613515Y-5657984D02*
X5603991Y-5648460D01*
X5603991Y-5648460D02*
X5613515Y-5638936D01*
X5613515Y-5638936D02*
X5613515Y-5657984D01*
X5746848Y-5457984D02*
X5765896Y-5457984D01*
X5765896Y-5457984D02*
X5784944Y-5467508D01*
X5784944Y-5467508D02*
X5794467Y-5477031D01*
X5794467Y-5477031D02*
X5803991Y-5496079D01*
X5803991Y-5496079D02*
X5813515Y-5534174D01*
X5813515Y-5534174D02*
X5813515Y-5581793D01*
X5813515Y-5581793D02*
X5803991Y-5619888D01*
X5803991Y-5619888D02*
X5794467Y-5638936D01*
X5794467Y-5638936D02*
X5784944Y-5648460D01*
X5784944Y-5648460D02*
X5765896Y-5657984D01*
X5765896Y-5657984D02*
X5746848Y-5657984D01*
X5746848Y-5657984D02*
X5727801Y-5648460D01*
X5727801Y-5648460D02*
X5718277Y-5638936D01*
X5718277Y-5638936D02*
X5708753Y-5619888D01*
X5708753Y-5619888D02*
X5699229Y-5581793D01*
X5699229Y-5581793D02*
X5699229Y-5534174D01*
X5699229Y-5534174D02*
X5708753Y-5496079D01*
X5708753Y-5496079D02*
X5718277Y-5477031D01*
X5718277Y-5477031D02*
X5727801Y-5467508D01*
X5727801Y-5467508D02*
X5746848Y-5457984D01*
X5984944Y-5524650D02*
X5984944Y-5657984D01*
X5937325Y-5448460D02*
X5889706Y-5591317D01*
X5889706Y-5591317D02*
X6013515Y-5591317D01*
X6194467Y-5657984D02*
X6080182Y-5657984D01*
X6137325Y-5657984D02*
X6137325Y-5457984D01*
X6137325Y-5457984D02*
X6118277Y-5486555D01*
X6118277Y-5486555D02*
X6099229Y-5505603D01*
X6099229Y-5505603D02*
X6080182Y-5515127D01*
X6261134Y-5457984D02*
X6384944Y-5457984D01*
X6384944Y-5457984D02*
X6318277Y-5534174D01*
X6318277Y-5534174D02*
X6346848Y-5534174D01*
X6346848Y-5534174D02*
X6365896Y-5543698D01*
X6365896Y-5543698D02*
X6375420Y-5553222D01*
X6375420Y-5553222D02*
X6384944Y-5572270D01*
X6384944Y-5572270D02*
X6384944Y-5619888D01*
X6384944Y-5619888D02*
X6375420Y-5638936D01*
X6375420Y-5638936D02*
X6365896Y-5648460D01*
X6365896Y-5648460D02*
X6346848Y-5657984D01*
X6346848Y-5657984D02*
X6289706Y-5657984D01*
X6289706Y-5657984D02*
X6270658Y-5648460D01*
X6270658Y-5648460D02*
X6261134Y-5638936D01*
X6461134Y-5457984D02*
X6461134Y-5496079D01*
X6537325Y-5457984D02*
X6537325Y-5496079D01*
X6832563Y-5734174D02*
X6823039Y-5724650D01*
X6823039Y-5724650D02*
X6803991Y-5696079D01*
X6803991Y-5696079D02*
X6794468Y-5677031D01*
X6794468Y-5677031D02*
X6784944Y-5648460D01*
X6784944Y-5648460D02*
X6775420Y-5600841D01*
X6775420Y-5600841D02*
X6775420Y-5562746D01*
X6775420Y-5562746D02*
X6784944Y-5515127D01*
X6784944Y-5515127D02*
X6794468Y-5486555D01*
X6794468Y-5486555D02*
X6803991Y-5467508D01*
X6803991Y-5467508D02*
X6823039Y-5438936D01*
X6823039Y-5438936D02*
X6832563Y-5429412D01*
X7013515Y-5657984D02*
X6899229Y-5657984D01*
X6956372Y-5657984D02*
X6956372Y-5457984D01*
X6956372Y-5457984D02*
X6937325Y-5486555D01*
X6937325Y-5486555D02*
X6918277Y-5505603D01*
X6918277Y-5505603D02*
X6899229Y-5515127D01*
X7251610Y-5657984D02*
X7251610Y-5457984D01*
X7337325Y-5657984D02*
X7337325Y-5553222D01*
X7337325Y-5553222D02*
X7327801Y-5534174D01*
X7327801Y-5534174D02*
X7308753Y-5524650D01*
X7308753Y-5524650D02*
X7280182Y-5524650D01*
X7280182Y-5524650D02*
X7261134Y-5534174D01*
X7261134Y-5534174D02*
X7251610Y-5543698D01*
X7461134Y-5657984D02*
X7442087Y-5648460D01*
X7442087Y-5648460D02*
X7432563Y-5638936D01*
X7432563Y-5638936D02*
X7423039Y-5619888D01*
X7423039Y-5619888D02*
X7423039Y-5562746D01*
X7423039Y-5562746D02*
X7432563Y-5543698D01*
X7432563Y-5543698D02*
X7442087Y-5534174D01*
X7442087Y-5534174D02*
X7461134Y-5524650D01*
X7461134Y-5524650D02*
X7489706Y-5524650D01*
X7489706Y-5524650D02*
X7508753Y-5534174D01*
X7508753Y-5534174D02*
X7518277Y-5543698D01*
X7518277Y-5543698D02*
X7527801Y-5562746D01*
X7527801Y-5562746D02*
X7527801Y-5619888D01*
X7527801Y-5619888D02*
X7518277Y-5638936D01*
X7518277Y-5638936D02*
X7508753Y-5648460D01*
X7508753Y-5648460D02*
X7489706Y-5657984D01*
X7489706Y-5657984D02*
X7461134Y-5657984D01*
X7642087Y-5657984D02*
X7623039Y-5648460D01*
X7623039Y-5648460D02*
X7613515Y-5629412D01*
X7613515Y-5629412D02*
X7613515Y-5457984D01*
X7794468Y-5648460D02*
X7775420Y-5657984D01*
X7775420Y-5657984D02*
X7737325Y-5657984D01*
X7737325Y-5657984D02*
X7718277Y-5648460D01*
X7718277Y-5648460D02*
X7708753Y-5629412D01*
X7708753Y-5629412D02*
X7708753Y-5553222D01*
X7708753Y-5553222D02*
X7718277Y-5534174D01*
X7718277Y-5534174D02*
X7737325Y-5524650D01*
X7737325Y-5524650D02*
X7775420Y-5524650D01*
X7775420Y-5524650D02*
X7794468Y-5534174D01*
X7794468Y-5534174D02*
X7803991Y-5553222D01*
X7803991Y-5553222D02*
X7803991Y-5572270D01*
X7803991Y-5572270D02*
X7708753Y-5591317D01*
X7870658Y-5734174D02*
X7880182Y-5724650D01*
X7880182Y-5724650D02*
X7899230Y-5696079D01*
X7899230Y-5696079D02*
X7908753Y-5677031D01*
X7908753Y-5677031D02*
X7918277Y-5648460D01*
X7918277Y-5648460D02*
X7927801Y-5600841D01*
X7927801Y-5600841D02*
X7927801Y-5562746D01*
X7927801Y-5562746D02*
X7918277Y-5515127D01*
X7918277Y-5515127D02*
X7908753Y-5486555D01*
X7908753Y-5486555D02*
X7899230Y-5467508D01*
X7899230Y-5467508D02*
X7880182Y-5438936D01*
X7880182Y-5438936D02*
X7870658Y-5429412D01*
X8232563Y-5734174D02*
X8223039Y-5724650D01*
X8223039Y-5724650D02*
X8203991Y-5696079D01*
X8203991Y-5696079D02*
X8194468Y-5677031D01*
X8194468Y-5677031D02*
X8184944Y-5648460D01*
X8184944Y-5648460D02*
X8175420Y-5600841D01*
X8175420Y-5600841D02*
X8175420Y-5562746D01*
X8175420Y-5562746D02*
X8184944Y-5515127D01*
X8184944Y-5515127D02*
X8194468Y-5486555D01*
X8194468Y-5486555D02*
X8203991Y-5467508D01*
X8203991Y-5467508D02*
X8223039Y-5438936D01*
X8223039Y-5438936D02*
X8232563Y-5429412D01*
X8308753Y-5524650D02*
X8308753Y-5657984D01*
X8308753Y-5543698D02*
X8318277Y-5534174D01*
X8318277Y-5534174D02*
X8337325Y-5524650D01*
X8337325Y-5524650D02*
X8365896Y-5524650D01*
X8365896Y-5524650D02*
X8384944Y-5534174D01*
X8384944Y-5534174D02*
X8394468Y-5553222D01*
X8394468Y-5553222D02*
X8394468Y-5657984D01*
X8518277Y-5657984D02*
X8499230Y-5648460D01*
X8499230Y-5648460D02*
X8489706Y-5638936D01*
X8489706Y-5638936D02*
X8480182Y-5619888D01*
X8480182Y-5619888D02*
X8480182Y-5562746D01*
X8480182Y-5562746D02*
X8489706Y-5543698D01*
X8489706Y-5543698D02*
X8499230Y-5534174D01*
X8499230Y-5534174D02*
X8518277Y-5524650D01*
X8518277Y-5524650D02*
X8546849Y-5524650D01*
X8546849Y-5524650D02*
X8565896Y-5534174D01*
X8565896Y-5534174D02*
X8575420Y-5543698D01*
X8575420Y-5543698D02*
X8584944Y-5562746D01*
X8584944Y-5562746D02*
X8584944Y-5619888D01*
X8584944Y-5619888D02*
X8575420Y-5638936D01*
X8575420Y-5638936D02*
X8565896Y-5648460D01*
X8565896Y-5648460D02*
X8546849Y-5657984D01*
X8546849Y-5657984D02*
X8518277Y-5657984D01*
X8642087Y-5524650D02*
X8718277Y-5524650D01*
X8670658Y-5457984D02*
X8670658Y-5629412D01*
X8670658Y-5629412D02*
X8680182Y-5648460D01*
X8680182Y-5648460D02*
X8699230Y-5657984D01*
X8699230Y-5657984D02*
X8718277Y-5657984D01*
X8937325Y-5524650D02*
X8937325Y-5724650D01*
X8937325Y-5534174D02*
X8956373Y-5524650D01*
X8956373Y-5524650D02*
X8994468Y-5524650D01*
X8994468Y-5524650D02*
X9013515Y-5534174D01*
X9013515Y-5534174D02*
X9023039Y-5543698D01*
X9023039Y-5543698D02*
X9032563Y-5562746D01*
X9032563Y-5562746D02*
X9032563Y-5619888D01*
X9032563Y-5619888D02*
X9023039Y-5638936D01*
X9023039Y-5638936D02*
X9013515Y-5648460D01*
X9013515Y-5648460D02*
X8994468Y-5657984D01*
X8994468Y-5657984D02*
X8956373Y-5657984D01*
X8956373Y-5657984D02*
X8937325Y-5648460D01*
X9146849Y-5657984D02*
X9127801Y-5648460D01*
X9127801Y-5648460D02*
X9118277Y-5629412D01*
X9118277Y-5629412D02*
X9118277Y-5457984D01*
X9308754Y-5657984D02*
X9308754Y-5553222D01*
X9308754Y-5553222D02*
X9299230Y-5534174D01*
X9299230Y-5534174D02*
X9280182Y-5524650D01*
X9280182Y-5524650D02*
X9242087Y-5524650D01*
X9242087Y-5524650D02*
X9223039Y-5534174D01*
X9308754Y-5648460D02*
X9289706Y-5657984D01*
X9289706Y-5657984D02*
X9242087Y-5657984D01*
X9242087Y-5657984D02*
X9223039Y-5648460D01*
X9223039Y-5648460D02*
X9213515Y-5629412D01*
X9213515Y-5629412D02*
X9213515Y-5610365D01*
X9213515Y-5610365D02*
X9223039Y-5591317D01*
X9223039Y-5591317D02*
X9242087Y-5581793D01*
X9242087Y-5581793D02*
X9289706Y-5581793D01*
X9289706Y-5581793D02*
X9308754Y-5572270D01*
X9375420Y-5524650D02*
X9451611Y-5524650D01*
X9403992Y-5457984D02*
X9403992Y-5629412D01*
X9403992Y-5629412D02*
X9413515Y-5648460D01*
X9413515Y-5648460D02*
X9432563Y-5657984D01*
X9432563Y-5657984D02*
X9451611Y-5657984D01*
X9594468Y-5648460D02*
X9575420Y-5657984D01*
X9575420Y-5657984D02*
X9537325Y-5657984D01*
X9537325Y-5657984D02*
X9518277Y-5648460D01*
X9518277Y-5648460D02*
X9508754Y-5629412D01*
X9508754Y-5629412D02*
X9508754Y-5553222D01*
X9508754Y-5553222D02*
X9518277Y-5534174D01*
X9518277Y-5534174D02*
X9537325Y-5524650D01*
X9537325Y-5524650D02*
X9575420Y-5524650D01*
X9575420Y-5524650D02*
X9594468Y-5534174D01*
X9594468Y-5534174D02*
X9603992Y-5553222D01*
X9603992Y-5553222D02*
X9603992Y-5572270D01*
X9603992Y-5572270D02*
X9508754Y-5591317D01*
X9775420Y-5657984D02*
X9775420Y-5457984D01*
X9775420Y-5648460D02*
X9756373Y-5657984D01*
X9756373Y-5657984D02*
X9718277Y-5657984D01*
X9718277Y-5657984D02*
X9699230Y-5648460D01*
X9699230Y-5648460D02*
X9689706Y-5638936D01*
X9689706Y-5638936D02*
X9680182Y-5619888D01*
X9680182Y-5619888D02*
X9680182Y-5562746D01*
X9680182Y-5562746D02*
X9689706Y-5543698D01*
X9689706Y-5543698D02*
X9699230Y-5534174D01*
X9699230Y-5534174D02*
X9718277Y-5524650D01*
X9718277Y-5524650D02*
X9756373Y-5524650D01*
X9756373Y-5524650D02*
X9775420Y-5534174D01*
X9851611Y-5734174D02*
X9861135Y-5724650D01*
X9861135Y-5724650D02*
X9880182Y-5696079D01*
X9880182Y-5696079D02*
X9889706Y-5677031D01*
X9889706Y-5677031D02*
X9899230Y-5648460D01*
X9899230Y-5648460D02*
X9908754Y-5600841D01*
X9908754Y-5600841D02*
X9908754Y-5562746D01*
X9908754Y-5562746D02*
X9899230Y-5515127D01*
X9899230Y-5515127D02*
X9889706Y-5486555D01*
X9889706Y-5486555D02*
X9880182Y-5467508D01*
X9880182Y-5467508D02*
X9861135Y-5438936D01*
X9861135Y-5438936D02*
X9851611Y-5429412D01*
D14*
X3197500Y-5770500D02*
X3197500Y-5890500D01*
X3137500Y-5830500D02*
X3257500Y-5830500D01*
D11*
X3623039Y-5921984D02*
X3508753Y-5921984D01*
X3565896Y-5921984D02*
X3565896Y-5721984D01*
X3565896Y-5721984D02*
X3546848Y-5750555D01*
X3546848Y-5750555D02*
X3527801Y-5769603D01*
X3527801Y-5769603D02*
X3508753Y-5779127D01*
X3708753Y-5902936D02*
X3718277Y-5912460D01*
X3718277Y-5912460D02*
X3708753Y-5921984D01*
X3708753Y-5921984D02*
X3699229Y-5912460D01*
X3699229Y-5912460D02*
X3708753Y-5902936D01*
X3708753Y-5902936D02*
X3708753Y-5921984D01*
X3794467Y-5741031D02*
X3803991Y-5731508D01*
X3803991Y-5731508D02*
X3823039Y-5721984D01*
X3823039Y-5721984D02*
X3870658Y-5721984D01*
X3870658Y-5721984D02*
X3889705Y-5731508D01*
X3889705Y-5731508D02*
X3899229Y-5741031D01*
X3899229Y-5741031D02*
X3908753Y-5760079D01*
X3908753Y-5760079D02*
X3908753Y-5779127D01*
X3908753Y-5779127D02*
X3899229Y-5807698D01*
X3899229Y-5807698D02*
X3784943Y-5921984D01*
X3784943Y-5921984D02*
X3908753Y-5921984D01*
X4032562Y-5721984D02*
X4051610Y-5721984D01*
X4051610Y-5721984D02*
X4070658Y-5731508D01*
X4070658Y-5731508D02*
X4080182Y-5741031D01*
X4080182Y-5741031D02*
X4089705Y-5760079D01*
X4089705Y-5760079D02*
X4099229Y-5798174D01*
X4099229Y-5798174D02*
X4099229Y-5845793D01*
X4099229Y-5845793D02*
X4089705Y-5883888D01*
X4089705Y-5883888D02*
X4080182Y-5902936D01*
X4080182Y-5902936D02*
X4070658Y-5912460D01*
X4070658Y-5912460D02*
X4051610Y-5921984D01*
X4051610Y-5921984D02*
X4032562Y-5921984D01*
X4032562Y-5921984D02*
X4013515Y-5912460D01*
X4013515Y-5912460D02*
X4003991Y-5902936D01*
X4003991Y-5902936D02*
X3994467Y-5883888D01*
X3994467Y-5883888D02*
X3984943Y-5845793D01*
X3984943Y-5845793D02*
X3984943Y-5798174D01*
X3984943Y-5798174D02*
X3994467Y-5760079D01*
X3994467Y-5760079D02*
X4003991Y-5741031D01*
X4003991Y-5741031D02*
X4013515Y-5731508D01*
X4013515Y-5731508D02*
X4032562Y-5721984D01*
X4223039Y-5721984D02*
X4242086Y-5721984D01*
X4242086Y-5721984D02*
X4261134Y-5731508D01*
X4261134Y-5731508D02*
X4270658Y-5741031D01*
X4270658Y-5741031D02*
X4280182Y-5760079D01*
X4280182Y-5760079D02*
X4289705Y-5798174D01*
X4289705Y-5798174D02*
X4289705Y-5845793D01*
X4289705Y-5845793D02*
X4280182Y-5883888D01*
X4280182Y-5883888D02*
X4270658Y-5902936D01*
X4270658Y-5902936D02*
X4261134Y-5912460D01*
X4261134Y-5912460D02*
X4242086Y-5921984D01*
X4242086Y-5921984D02*
X4223039Y-5921984D01*
X4223039Y-5921984D02*
X4203991Y-5912460D01*
X4203991Y-5912460D02*
X4194467Y-5902936D01*
X4194467Y-5902936D02*
X4184943Y-5883888D01*
X4184943Y-5883888D02*
X4175420Y-5845793D01*
X4175420Y-5845793D02*
X4175420Y-5798174D01*
X4175420Y-5798174D02*
X4184943Y-5760079D01*
X4184943Y-5760079D02*
X4194467Y-5741031D01*
X4194467Y-5741031D02*
X4203991Y-5731508D01*
X4203991Y-5731508D02*
X4223039Y-5721984D01*
X4375420Y-5921984D02*
X4375420Y-5788650D01*
X4375420Y-5807698D02*
X4384944Y-5798174D01*
X4384944Y-5798174D02*
X4403991Y-5788650D01*
X4403991Y-5788650D02*
X4432563Y-5788650D01*
X4432563Y-5788650D02*
X4451610Y-5798174D01*
X4451610Y-5798174D02*
X4461134Y-5817222D01*
X4461134Y-5817222D02*
X4461134Y-5921984D01*
X4461134Y-5817222D02*
X4470658Y-5798174D01*
X4470658Y-5798174D02*
X4489705Y-5788650D01*
X4489705Y-5788650D02*
X4518277Y-5788650D01*
X4518277Y-5788650D02*
X4537325Y-5798174D01*
X4537325Y-5798174D02*
X4546848Y-5817222D01*
X4546848Y-5817222D02*
X4546848Y-5921984D01*
X4642086Y-5921984D02*
X4642086Y-5788650D01*
X4642086Y-5807698D02*
X4651610Y-5798174D01*
X4651610Y-5798174D02*
X4670658Y-5788650D01*
X4670658Y-5788650D02*
X4699229Y-5788650D01*
X4699229Y-5788650D02*
X4718277Y-5798174D01*
X4718277Y-5798174D02*
X4727801Y-5817222D01*
X4727801Y-5817222D02*
X4727801Y-5921984D01*
X4727801Y-5817222D02*
X4737325Y-5798174D01*
X4737325Y-5798174D02*
X4756372Y-5788650D01*
X4756372Y-5788650D02*
X4784944Y-5788650D01*
X4784944Y-5788650D02*
X4803991Y-5798174D01*
X4803991Y-5798174D02*
X4813515Y-5817222D01*
X4813515Y-5817222D02*
X4813515Y-5921984D01*
X5203991Y-5712460D02*
X5032563Y-5969603D01*
X5461134Y-5721984D02*
X5480182Y-5721984D01*
X5480182Y-5721984D02*
X5499229Y-5731508D01*
X5499229Y-5731508D02*
X5508753Y-5741031D01*
X5508753Y-5741031D02*
X5518277Y-5760079D01*
X5518277Y-5760079D02*
X5527801Y-5798174D01*
X5527801Y-5798174D02*
X5527801Y-5845793D01*
X5527801Y-5845793D02*
X5518277Y-5883888D01*
X5518277Y-5883888D02*
X5508753Y-5902936D01*
X5508753Y-5902936D02*
X5499229Y-5912460D01*
X5499229Y-5912460D02*
X5480182Y-5921984D01*
X5480182Y-5921984D02*
X5461134Y-5921984D01*
X5461134Y-5921984D02*
X5442087Y-5912460D01*
X5442087Y-5912460D02*
X5432563Y-5902936D01*
X5432563Y-5902936D02*
X5423039Y-5883888D01*
X5423039Y-5883888D02*
X5413515Y-5845793D01*
X5413515Y-5845793D02*
X5413515Y-5798174D01*
X5413515Y-5798174D02*
X5423039Y-5760079D01*
X5423039Y-5760079D02*
X5432563Y-5741031D01*
X5432563Y-5741031D02*
X5442087Y-5731508D01*
X5442087Y-5731508D02*
X5461134Y-5721984D01*
X5613515Y-5902936D02*
X5623039Y-5912460D01*
X5623039Y-5912460D02*
X5613515Y-5921984D01*
X5613515Y-5921984D02*
X5603991Y-5912460D01*
X5603991Y-5912460D02*
X5613515Y-5902936D01*
X5613515Y-5902936D02*
X5613515Y-5921984D01*
X5746848Y-5721984D02*
X5765896Y-5721984D01*
X5765896Y-5721984D02*
X5784944Y-5731508D01*
X5784944Y-5731508D02*
X5794467Y-5741031D01*
X5794467Y-5741031D02*
X5803991Y-5760079D01*
X5803991Y-5760079D02*
X5813515Y-5798174D01*
X5813515Y-5798174D02*
X5813515Y-5845793D01*
X5813515Y-5845793D02*
X5803991Y-5883888D01*
X5803991Y-5883888D02*
X5794467Y-5902936D01*
X5794467Y-5902936D02*
X5784944Y-5912460D01*
X5784944Y-5912460D02*
X5765896Y-5921984D01*
X5765896Y-5921984D02*
X5746848Y-5921984D01*
X5746848Y-5921984D02*
X5727801Y-5912460D01*
X5727801Y-5912460D02*
X5718277Y-5902936D01*
X5718277Y-5902936D02*
X5708753Y-5883888D01*
X5708753Y-5883888D02*
X5699229Y-5845793D01*
X5699229Y-5845793D02*
X5699229Y-5798174D01*
X5699229Y-5798174D02*
X5708753Y-5760079D01*
X5708753Y-5760079D02*
X5718277Y-5741031D01*
X5718277Y-5741031D02*
X5727801Y-5731508D01*
X5727801Y-5731508D02*
X5746848Y-5721984D01*
X5984944Y-5788650D02*
X5984944Y-5921984D01*
X5937325Y-5712460D02*
X5889706Y-5855317D01*
X5889706Y-5855317D02*
X6013515Y-5855317D01*
X6070658Y-5721984D02*
X6203991Y-5721984D01*
X6203991Y-5721984D02*
X6118277Y-5921984D01*
X6270658Y-5741031D02*
X6280182Y-5731508D01*
X6280182Y-5731508D02*
X6299229Y-5721984D01*
X6299229Y-5721984D02*
X6346848Y-5721984D01*
X6346848Y-5721984D02*
X6365896Y-5731508D01*
X6365896Y-5731508D02*
X6375420Y-5741031D01*
X6375420Y-5741031D02*
X6384944Y-5760079D01*
X6384944Y-5760079D02*
X6384944Y-5779127D01*
X6384944Y-5779127D02*
X6375420Y-5807698D01*
X6375420Y-5807698D02*
X6261134Y-5921984D01*
X6261134Y-5921984D02*
X6384944Y-5921984D01*
X6461134Y-5721984D02*
X6461134Y-5760079D01*
X6537325Y-5721984D02*
X6537325Y-5760079D01*
X6832563Y-5998174D02*
X6823039Y-5988650D01*
X6823039Y-5988650D02*
X6803991Y-5960079D01*
X6803991Y-5960079D02*
X6794468Y-5941031D01*
X6794468Y-5941031D02*
X6784944Y-5912460D01*
X6784944Y-5912460D02*
X6775420Y-5864841D01*
X6775420Y-5864841D02*
X6775420Y-5826746D01*
X6775420Y-5826746D02*
X6784944Y-5779127D01*
X6784944Y-5779127D02*
X6794468Y-5750555D01*
X6794468Y-5750555D02*
X6803991Y-5731508D01*
X6803991Y-5731508D02*
X6823039Y-5702936D01*
X6823039Y-5702936D02*
X6832563Y-5693412D01*
X6899229Y-5741031D02*
X6908753Y-5731508D01*
X6908753Y-5731508D02*
X6927801Y-5721984D01*
X6927801Y-5721984D02*
X6975420Y-5721984D01*
X6975420Y-5721984D02*
X6994468Y-5731508D01*
X6994468Y-5731508D02*
X7003991Y-5741031D01*
X7003991Y-5741031D02*
X7013515Y-5760079D01*
X7013515Y-5760079D02*
X7013515Y-5779127D01*
X7013515Y-5779127D02*
X7003991Y-5807698D01*
X7003991Y-5807698D02*
X6889706Y-5921984D01*
X6889706Y-5921984D02*
X7013515Y-5921984D01*
X7251610Y-5921984D02*
X7251610Y-5721984D01*
X7337325Y-5921984D02*
X7337325Y-5817222D01*
X7337325Y-5817222D02*
X7327801Y-5798174D01*
X7327801Y-5798174D02*
X7308753Y-5788650D01*
X7308753Y-5788650D02*
X7280182Y-5788650D01*
X7280182Y-5788650D02*
X7261134Y-5798174D01*
X7261134Y-5798174D02*
X7251610Y-5807698D01*
X7461134Y-5921984D02*
X7442087Y-5912460D01*
X7442087Y-5912460D02*
X7432563Y-5902936D01*
X7432563Y-5902936D02*
X7423039Y-5883888D01*
X7423039Y-5883888D02*
X7423039Y-5826746D01*
X7423039Y-5826746D02*
X7432563Y-5807698D01*
X7432563Y-5807698D02*
X7442087Y-5798174D01*
X7442087Y-5798174D02*
X7461134Y-5788650D01*
X7461134Y-5788650D02*
X7489706Y-5788650D01*
X7489706Y-5788650D02*
X7508753Y-5798174D01*
X7508753Y-5798174D02*
X7518277Y-5807698D01*
X7518277Y-5807698D02*
X7527801Y-5826746D01*
X7527801Y-5826746D02*
X7527801Y-5883888D01*
X7527801Y-5883888D02*
X7518277Y-5902936D01*
X7518277Y-5902936D02*
X7508753Y-5912460D01*
X7508753Y-5912460D02*
X7489706Y-5921984D01*
X7489706Y-5921984D02*
X7461134Y-5921984D01*
X7642087Y-5921984D02*
X7623039Y-5912460D01*
X7623039Y-5912460D02*
X7613515Y-5893412D01*
X7613515Y-5893412D02*
X7613515Y-5721984D01*
X7794468Y-5912460D02*
X7775420Y-5921984D01*
X7775420Y-5921984D02*
X7737325Y-5921984D01*
X7737325Y-5921984D02*
X7718277Y-5912460D01*
X7718277Y-5912460D02*
X7708753Y-5893412D01*
X7708753Y-5893412D02*
X7708753Y-5817222D01*
X7708753Y-5817222D02*
X7718277Y-5798174D01*
X7718277Y-5798174D02*
X7737325Y-5788650D01*
X7737325Y-5788650D02*
X7775420Y-5788650D01*
X7775420Y-5788650D02*
X7794468Y-5798174D01*
X7794468Y-5798174D02*
X7803991Y-5817222D01*
X7803991Y-5817222D02*
X7803991Y-5836269D01*
X7803991Y-5836269D02*
X7708753Y-5855317D01*
X7880182Y-5912460D02*
X7899230Y-5921984D01*
X7899230Y-5921984D02*
X7937325Y-5921984D01*
X7937325Y-5921984D02*
X7956372Y-5912460D01*
X7956372Y-5912460D02*
X7965896Y-5893412D01*
X7965896Y-5893412D02*
X7965896Y-5883888D01*
X7965896Y-5883888D02*
X7956372Y-5864841D01*
X7956372Y-5864841D02*
X7937325Y-5855317D01*
X7937325Y-5855317D02*
X7908753Y-5855317D01*
X7908753Y-5855317D02*
X7889706Y-5845793D01*
X7889706Y-5845793D02*
X7880182Y-5826746D01*
X7880182Y-5826746D02*
X7880182Y-5817222D01*
X7880182Y-5817222D02*
X7889706Y-5798174D01*
X7889706Y-5798174D02*
X7908753Y-5788650D01*
X7908753Y-5788650D02*
X7937325Y-5788650D01*
X7937325Y-5788650D02*
X7956372Y-5798174D01*
X8032563Y-5998174D02*
X8042087Y-5988650D01*
X8042087Y-5988650D02*
X8061134Y-5960079D01*
X8061134Y-5960079D02*
X8070658Y-5941031D01*
X8070658Y-5941031D02*
X8080182Y-5912460D01*
X8080182Y-5912460D02*
X8089706Y-5864841D01*
X8089706Y-5864841D02*
X8089706Y-5826746D01*
X8089706Y-5826746D02*
X8080182Y-5779127D01*
X8080182Y-5779127D02*
X8070658Y-5750555D01*
X8070658Y-5750555D02*
X8061134Y-5731508D01*
X8061134Y-5731508D02*
X8042087Y-5702936D01*
X8042087Y-5702936D02*
X8032563Y-5693412D01*
X8394468Y-5998174D02*
X8384944Y-5988650D01*
X8384944Y-5988650D02*
X8365896Y-5960079D01*
X8365896Y-5960079D02*
X8356372Y-5941031D01*
X8356372Y-5941031D02*
X8346849Y-5912460D01*
X8346849Y-5912460D02*
X8337325Y-5864841D01*
X8337325Y-5864841D02*
X8337325Y-5826746D01*
X8337325Y-5826746D02*
X8346849Y-5779127D01*
X8346849Y-5779127D02*
X8356372Y-5750555D01*
X8356372Y-5750555D02*
X8365896Y-5731508D01*
X8365896Y-5731508D02*
X8384944Y-5702936D01*
X8384944Y-5702936D02*
X8394468Y-5693412D01*
X8470658Y-5788650D02*
X8470658Y-5921984D01*
X8470658Y-5807698D02*
X8480182Y-5798174D01*
X8480182Y-5798174D02*
X8499230Y-5788650D01*
X8499230Y-5788650D02*
X8527801Y-5788650D01*
X8527801Y-5788650D02*
X8546849Y-5798174D01*
X8546849Y-5798174D02*
X8556373Y-5817222D01*
X8556373Y-5817222D02*
X8556373Y-5921984D01*
X8680182Y-5921984D02*
X8661134Y-5912460D01*
X8661134Y-5912460D02*
X8651611Y-5902936D01*
X8651611Y-5902936D02*
X8642087Y-5883888D01*
X8642087Y-5883888D02*
X8642087Y-5826746D01*
X8642087Y-5826746D02*
X8651611Y-5807698D01*
X8651611Y-5807698D02*
X8661134Y-5798174D01*
X8661134Y-5798174D02*
X8680182Y-5788650D01*
X8680182Y-5788650D02*
X8708754Y-5788650D01*
X8708754Y-5788650D02*
X8727801Y-5798174D01*
X8727801Y-5798174D02*
X8737325Y-5807698D01*
X8737325Y-5807698D02*
X8746849Y-5826746D01*
X8746849Y-5826746D02*
X8746849Y-5883888D01*
X8746849Y-5883888D02*
X8737325Y-5902936D01*
X8737325Y-5902936D02*
X8727801Y-5912460D01*
X8727801Y-5912460D02*
X8708754Y-5921984D01*
X8708754Y-5921984D02*
X8680182Y-5921984D01*
X8803992Y-5788650D02*
X8880182Y-5788650D01*
X8832563Y-5721984D02*
X8832563Y-5893412D01*
X8832563Y-5893412D02*
X8842087Y-5912460D01*
X8842087Y-5912460D02*
X8861134Y-5921984D01*
X8861134Y-5921984D02*
X8880182Y-5921984D01*
X9099230Y-5788650D02*
X9099230Y-5988650D01*
X9099230Y-5798174D02*
X9118277Y-5788650D01*
X9118277Y-5788650D02*
X9156373Y-5788650D01*
X9156373Y-5788650D02*
X9175420Y-5798174D01*
X9175420Y-5798174D02*
X9184944Y-5807698D01*
X9184944Y-5807698D02*
X9194468Y-5826746D01*
X9194468Y-5826746D02*
X9194468Y-5883888D01*
X9194468Y-5883888D02*
X9184944Y-5902936D01*
X9184944Y-5902936D02*
X9175420Y-5912460D01*
X9175420Y-5912460D02*
X9156373Y-5921984D01*
X9156373Y-5921984D02*
X9118277Y-5921984D01*
X9118277Y-5921984D02*
X9099230Y-5912460D01*
X9308754Y-5921984D02*
X9289706Y-5912460D01*
X9289706Y-5912460D02*
X9280182Y-5893412D01*
X9280182Y-5893412D02*
X9280182Y-5721984D01*
X9470658Y-5921984D02*
X9470658Y-5817222D01*
X9470658Y-5817222D02*
X9461135Y-5798174D01*
X9461135Y-5798174D02*
X9442087Y-5788650D01*
X9442087Y-5788650D02*
X9403992Y-5788650D01*
X9403992Y-5788650D02*
X9384944Y-5798174D01*
X9470658Y-5912460D02*
X9451611Y-5921984D01*
X9451611Y-5921984D02*
X9403992Y-5921984D01*
X9403992Y-5921984D02*
X9384944Y-5912460D01*
X9384944Y-5912460D02*
X9375420Y-5893412D01*
X9375420Y-5893412D02*
X9375420Y-5874365D01*
X9375420Y-5874365D02*
X9384944Y-5855317D01*
X9384944Y-5855317D02*
X9403992Y-5845793D01*
X9403992Y-5845793D02*
X9451611Y-5845793D01*
X9451611Y-5845793D02*
X9470658Y-5836269D01*
X9537325Y-5788650D02*
X9613515Y-5788650D01*
X9565896Y-5721984D02*
X9565896Y-5893412D01*
X9565896Y-5893412D02*
X9575420Y-5912460D01*
X9575420Y-5912460D02*
X9594468Y-5921984D01*
X9594468Y-5921984D02*
X9613515Y-5921984D01*
X9756373Y-5912460D02*
X9737325Y-5921984D01*
X9737325Y-5921984D02*
X9699230Y-5921984D01*
X9699230Y-5921984D02*
X9680182Y-5912460D01*
X9680182Y-5912460D02*
X9670658Y-5893412D01*
X9670658Y-5893412D02*
X9670658Y-5817222D01*
X9670658Y-5817222D02*
X9680182Y-5798174D01*
X9680182Y-5798174D02*
X9699230Y-5788650D01*
X9699230Y-5788650D02*
X9737325Y-5788650D01*
X9737325Y-5788650D02*
X9756373Y-5798174D01*
X9756373Y-5798174D02*
X9765896Y-5817222D01*
X9765896Y-5817222D02*
X9765896Y-5836269D01*
X9765896Y-5836269D02*
X9670658Y-5855317D01*
X9937325Y-5921984D02*
X9937325Y-5721984D01*
X9937325Y-5912460D02*
X9918277Y-5921984D01*
X9918277Y-5921984D02*
X9880182Y-5921984D01*
X9880182Y-5921984D02*
X9861135Y-5912460D01*
X9861135Y-5912460D02*
X9851611Y-5902936D01*
X9851611Y-5902936D02*
X9842087Y-5883888D01*
X9842087Y-5883888D02*
X9842087Y-5826746D01*
X9842087Y-5826746D02*
X9851611Y-5807698D01*
X9851611Y-5807698D02*
X9861135Y-5798174D01*
X9861135Y-5798174D02*
X9880182Y-5788650D01*
X9880182Y-5788650D02*
X9918277Y-5788650D01*
X9918277Y-5788650D02*
X9937325Y-5798174D01*
X10013516Y-5998174D02*
X10023039Y-5988650D01*
X10023039Y-5988650D02*
X10042087Y-5960079D01*
X10042087Y-5960079D02*
X10051611Y-5941031D01*
X10051611Y-5941031D02*
X10061135Y-5912460D01*
X10061135Y-5912460D02*
X10070658Y-5864841D01*
X10070658Y-5864841D02*
X10070658Y-5826746D01*
X10070658Y-5826746D02*
X10061135Y-5779127D01*
X10061135Y-5779127D02*
X10051611Y-5750555D01*
X10051611Y-5750555D02*
X10042087Y-5731508D01*
X10042087Y-5731508D02*
X10023039Y-5702936D01*
X10023039Y-5702936D02*
X10013516Y-5693412D01*
M02*
