%TF.GenerationSoftware,KiCad,Pcbnew,8.0.1-8.0.1-0~ubuntu20.04.1*%
%TF.CreationDate,2024-06-12T16:16:27+01:00*%
%TF.ProjectId,smolpad,736d6f6c-7061-4642-9e6b-696361645f70,rev?*%
%TF.SameCoordinates,Original*%
%TF.FileFunction,Soldermask,Bot*%
%TF.FilePolarity,Negative*%
%FSLAX46Y46*%
G04 Gerber Fmt 4.6, Leading zero omitted, Abs format (unit mm)*
G04 Created by KiCad (PCBNEW 8.0.1-8.0.1-0~ubuntu20.04.1) date 2024-06-12 16:16:27*
%MOMM*%
%LPD*%
G01*
G04 APERTURE LIST*
%ADD10C,1.050000*%
%ADD11C,1.200000*%
%ADD12C,0.990600*%
%ADD13R,3.600000X3.600000*%
%ADD14R,1.000000X1.000000*%
%ADD15R,0.240000X0.530000*%
%ADD16R,0.280000X0.530000*%
G04 APERTURE END LIST*
D10*
%TO.C,SW1*%
X34200000Y-41200000D03*
D11*
X45800000Y-36740000D03*
X45800000Y-43260000D03*
%TD*%
D12*
%TO.C,J1*%
X50400000Y-40210000D03*
X49384000Y-35130000D03*
X51416000Y-35130000D03*
%TD*%
%TO.C,C1*%
G36*
G01*
X36920000Y-36570000D02*
X36920000Y-36230000D01*
G75*
G02*
X37060000Y-36090000I140000J0D01*
G01*
X37340000Y-36090000D01*
G75*
G02*
X37480000Y-36230000I0J-140000D01*
G01*
X37480000Y-36570000D01*
G75*
G02*
X37340000Y-36710000I-140000J0D01*
G01*
X37060000Y-36710000D01*
G75*
G02*
X36920000Y-36570000I0J140000D01*
G01*
G37*
G36*
G01*
X37880000Y-36570000D02*
X37880000Y-36230000D01*
G75*
G02*
X38020000Y-36090000I140000J0D01*
G01*
X38300000Y-36090000D01*
G75*
G02*
X38440000Y-36230000I0J-140000D01*
G01*
X38440000Y-36570000D01*
G75*
G02*
X38300000Y-36710000I-140000J0D01*
G01*
X38020000Y-36710000D01*
G75*
G02*
X37880000Y-36570000I0J140000D01*
G01*
G37*
%TD*%
%TO.C,RGB2*%
G36*
G01*
X34950000Y-35337500D02*
X34950000Y-35612500D01*
G75*
G02*
X34812500Y-35750000I-137500J0D01*
G01*
X34537500Y-35750000D01*
G75*
G02*
X34400000Y-35612500I0J137500D01*
G01*
X34400000Y-35337500D01*
G75*
G02*
X34537500Y-35200000I137500J0D01*
G01*
X34812500Y-35200000D01*
G75*
G02*
X34950000Y-35337500I0J-137500D01*
G01*
G37*
G36*
G01*
X34000000Y-35337500D02*
X34000000Y-35612500D01*
G75*
G02*
X33862500Y-35750000I-137500J0D01*
G01*
X33587500Y-35750000D01*
G75*
G02*
X33450000Y-35612500I0J137500D01*
G01*
X33450000Y-35337500D01*
G75*
G02*
X33587500Y-35200000I137500J0D01*
G01*
X33862500Y-35200000D01*
G75*
G02*
X34000000Y-35337500I0J-137500D01*
G01*
G37*
G36*
G01*
X34000000Y-34387500D02*
X34000000Y-34662500D01*
G75*
G02*
X33862500Y-34800000I-137500J0D01*
G01*
X33587500Y-34800000D01*
G75*
G02*
X33450000Y-34662500I0J137500D01*
G01*
X33450000Y-34387500D01*
G75*
G02*
X33587500Y-34250000I137500J0D01*
G01*
X33862500Y-34250000D01*
G75*
G02*
X34000000Y-34387500I0J-137500D01*
G01*
G37*
G36*
G01*
X34950000Y-34387500D02*
X34950000Y-34662500D01*
G75*
G02*
X34812500Y-34800000I-137500J0D01*
G01*
X34537500Y-34800000D01*
G75*
G02*
X34400000Y-34662500I0J137500D01*
G01*
X34400000Y-34387500D01*
G75*
G02*
X34537500Y-34250000I137500J0D01*
G01*
X34812500Y-34250000D01*
G75*
G02*
X34950000Y-34387500I0J-137500D01*
G01*
G37*
%TD*%
%TO.C,RGB1*%
G36*
G01*
X46550000Y-35337500D02*
X46550000Y-35612500D01*
G75*
G02*
X46412500Y-35750000I-137500J0D01*
G01*
X46137500Y-35750000D01*
G75*
G02*
X46000000Y-35612500I0J137500D01*
G01*
X46000000Y-35337500D01*
G75*
G02*
X46137500Y-35200000I137500J0D01*
G01*
X46412500Y-35200000D01*
G75*
G02*
X46550000Y-35337500I0J-137500D01*
G01*
G37*
G36*
G01*
X45600000Y-35337500D02*
X45600000Y-35612500D01*
G75*
G02*
X45462500Y-35750000I-137500J0D01*
G01*
X45187500Y-35750000D01*
G75*
G02*
X45050000Y-35612500I0J137500D01*
G01*
X45050000Y-35337500D01*
G75*
G02*
X45187500Y-35200000I137500J0D01*
G01*
X45462500Y-35200000D01*
G75*
G02*
X45600000Y-35337500I0J-137500D01*
G01*
G37*
G36*
G01*
X45600000Y-34387500D02*
X45600000Y-34662500D01*
G75*
G02*
X45462500Y-34800000I-137500J0D01*
G01*
X45187500Y-34800000D01*
G75*
G02*
X45050000Y-34662500I0J137500D01*
G01*
X45050000Y-34387500D01*
G75*
G02*
X45187500Y-34250000I137500J0D01*
G01*
X45462500Y-34250000D01*
G75*
G02*
X45600000Y-34387500I0J-137500D01*
G01*
G37*
G36*
G01*
X46550000Y-34387500D02*
X46550000Y-34662500D01*
G75*
G02*
X46412500Y-34800000I-137500J0D01*
G01*
X46137500Y-34800000D01*
G75*
G02*
X46000000Y-34662500I0J137500D01*
G01*
X46000000Y-34387500D01*
G75*
G02*
X46137500Y-34250000I137500J0D01*
G01*
X46412500Y-34250000D01*
G75*
G02*
X46550000Y-34387500I0J-137500D01*
G01*
G37*
%TD*%
%TO.C,U1*%
G36*
G01*
X44050000Y-40987500D02*
X44050000Y-41112500D01*
G75*
G02*
X43987500Y-41175000I-62500J0D01*
G01*
X43312500Y-41175000D01*
G75*
G02*
X43250000Y-41112500I0J62500D01*
G01*
X43250000Y-40987500D01*
G75*
G02*
X43312500Y-40925000I62500J0D01*
G01*
X43987500Y-40925000D01*
G75*
G02*
X44050000Y-40987500I0J-62500D01*
G01*
G37*
G36*
G01*
X44050000Y-41487500D02*
X44050000Y-41612500D01*
G75*
G02*
X43987500Y-41675000I-62500J0D01*
G01*
X43312500Y-41675000D01*
G75*
G02*
X43250000Y-41612500I0J62500D01*
G01*
X43250000Y-41487500D01*
G75*
G02*
X43312500Y-41425000I62500J0D01*
G01*
X43987500Y-41425000D01*
G75*
G02*
X44050000Y-41487500I0J-62500D01*
G01*
G37*
G36*
G01*
X44050000Y-41987500D02*
X44050000Y-42112500D01*
G75*
G02*
X43987500Y-42175000I-62500J0D01*
G01*
X43312500Y-42175000D01*
G75*
G02*
X43250000Y-42112500I0J62500D01*
G01*
X43250000Y-41987500D01*
G75*
G02*
X43312500Y-41925000I62500J0D01*
G01*
X43987500Y-41925000D01*
G75*
G02*
X44050000Y-41987500I0J-62500D01*
G01*
G37*
G36*
G01*
X44050000Y-42487500D02*
X44050000Y-42612500D01*
G75*
G02*
X43987500Y-42675000I-62500J0D01*
G01*
X43312500Y-42675000D01*
G75*
G02*
X43250000Y-42612500I0J62500D01*
G01*
X43250000Y-42487500D01*
G75*
G02*
X43312500Y-42425000I62500J0D01*
G01*
X43987500Y-42425000D01*
G75*
G02*
X44050000Y-42487500I0J-62500D01*
G01*
G37*
G36*
G01*
X44050000Y-42987500D02*
X44050000Y-43112500D01*
G75*
G02*
X43987500Y-43175000I-62500J0D01*
G01*
X43312500Y-43175000D01*
G75*
G02*
X43250000Y-43112500I0J62500D01*
G01*
X43250000Y-42987500D01*
G75*
G02*
X43312500Y-42925000I62500J0D01*
G01*
X43987500Y-42925000D01*
G75*
G02*
X44050000Y-42987500I0J-62500D01*
G01*
G37*
G36*
G01*
X44050000Y-43487500D02*
X44050000Y-43612500D01*
G75*
G02*
X43987500Y-43675000I-62500J0D01*
G01*
X43312500Y-43675000D01*
G75*
G02*
X43250000Y-43612500I0J62500D01*
G01*
X43250000Y-43487500D01*
G75*
G02*
X43312500Y-43425000I62500J0D01*
G01*
X43987500Y-43425000D01*
G75*
G02*
X44050000Y-43487500I0J-62500D01*
G01*
G37*
G36*
G01*
X44050000Y-43987500D02*
X44050000Y-44112500D01*
G75*
G02*
X43987500Y-44175000I-62500J0D01*
G01*
X43312500Y-44175000D01*
G75*
G02*
X43250000Y-44112500I0J62500D01*
G01*
X43250000Y-43987500D01*
G75*
G02*
X43312500Y-43925000I62500J0D01*
G01*
X43987500Y-43925000D01*
G75*
G02*
X44050000Y-43987500I0J-62500D01*
G01*
G37*
G36*
G01*
X44050000Y-44487500D02*
X44050000Y-44612500D01*
G75*
G02*
X43987500Y-44675000I-62500J0D01*
G01*
X43312500Y-44675000D01*
G75*
G02*
X43250000Y-44612500I0J62500D01*
G01*
X43250000Y-44487500D01*
G75*
G02*
X43312500Y-44425000I62500J0D01*
G01*
X43987500Y-44425000D01*
G75*
G02*
X44050000Y-44487500I0J-62500D01*
G01*
G37*
G36*
G01*
X43075000Y-44912500D02*
X43075000Y-45587500D01*
G75*
G02*
X43012500Y-45650000I-62500J0D01*
G01*
X42887500Y-45650000D01*
G75*
G02*
X42825000Y-45587500I0J62500D01*
G01*
X42825000Y-44912500D01*
G75*
G02*
X42887500Y-44850000I62500J0D01*
G01*
X43012500Y-44850000D01*
G75*
G02*
X43075000Y-44912500I0J-62500D01*
G01*
G37*
G36*
G01*
X42575000Y-44912500D02*
X42575000Y-45587500D01*
G75*
G02*
X42512500Y-45650000I-62500J0D01*
G01*
X42387500Y-45650000D01*
G75*
G02*
X42325000Y-45587500I0J62500D01*
G01*
X42325000Y-44912500D01*
G75*
G02*
X42387500Y-44850000I62500J0D01*
G01*
X42512500Y-44850000D01*
G75*
G02*
X42575000Y-44912500I0J-62500D01*
G01*
G37*
G36*
G01*
X42075000Y-44912500D02*
X42075000Y-45587500D01*
G75*
G02*
X42012500Y-45650000I-62500J0D01*
G01*
X41887500Y-45650000D01*
G75*
G02*
X41825000Y-45587500I0J62500D01*
G01*
X41825000Y-44912500D01*
G75*
G02*
X41887500Y-44850000I62500J0D01*
G01*
X42012500Y-44850000D01*
G75*
G02*
X42075000Y-44912500I0J-62500D01*
G01*
G37*
G36*
G01*
X41575000Y-44912500D02*
X41575000Y-45587500D01*
G75*
G02*
X41512500Y-45650000I-62500J0D01*
G01*
X41387500Y-45650000D01*
G75*
G02*
X41325000Y-45587500I0J62500D01*
G01*
X41325000Y-44912500D01*
G75*
G02*
X41387500Y-44850000I62500J0D01*
G01*
X41512500Y-44850000D01*
G75*
G02*
X41575000Y-44912500I0J-62500D01*
G01*
G37*
G36*
G01*
X41075000Y-44912500D02*
X41075000Y-45587500D01*
G75*
G02*
X41012500Y-45650000I-62500J0D01*
G01*
X40887500Y-45650000D01*
G75*
G02*
X40825000Y-45587500I0J62500D01*
G01*
X40825000Y-44912500D01*
G75*
G02*
X40887500Y-44850000I62500J0D01*
G01*
X41012500Y-44850000D01*
G75*
G02*
X41075000Y-44912500I0J-62500D01*
G01*
G37*
G36*
G01*
X40575000Y-44912500D02*
X40575000Y-45587500D01*
G75*
G02*
X40512500Y-45650000I-62500J0D01*
G01*
X40387500Y-45650000D01*
G75*
G02*
X40325000Y-45587500I0J62500D01*
G01*
X40325000Y-44912500D01*
G75*
G02*
X40387500Y-44850000I62500J0D01*
G01*
X40512500Y-44850000D01*
G75*
G02*
X40575000Y-44912500I0J-62500D01*
G01*
G37*
G36*
G01*
X40075000Y-44912500D02*
X40075000Y-45587500D01*
G75*
G02*
X40012500Y-45650000I-62500J0D01*
G01*
X39887500Y-45650000D01*
G75*
G02*
X39825000Y-45587500I0J62500D01*
G01*
X39825000Y-44912500D01*
G75*
G02*
X39887500Y-44850000I62500J0D01*
G01*
X40012500Y-44850000D01*
G75*
G02*
X40075000Y-44912500I0J-62500D01*
G01*
G37*
G36*
G01*
X39575000Y-44912500D02*
X39575000Y-45587500D01*
G75*
G02*
X39512500Y-45650000I-62500J0D01*
G01*
X39387500Y-45650000D01*
G75*
G02*
X39325000Y-45587500I0J62500D01*
G01*
X39325000Y-44912500D01*
G75*
G02*
X39387500Y-44850000I62500J0D01*
G01*
X39512500Y-44850000D01*
G75*
G02*
X39575000Y-44912500I0J-62500D01*
G01*
G37*
G36*
G01*
X39150000Y-44487500D02*
X39150000Y-44612500D01*
G75*
G02*
X39087500Y-44675000I-62500J0D01*
G01*
X38412500Y-44675000D01*
G75*
G02*
X38350000Y-44612500I0J62500D01*
G01*
X38350000Y-44487500D01*
G75*
G02*
X38412500Y-44425000I62500J0D01*
G01*
X39087500Y-44425000D01*
G75*
G02*
X39150000Y-44487500I0J-62500D01*
G01*
G37*
G36*
G01*
X39150000Y-43987500D02*
X39150000Y-44112500D01*
G75*
G02*
X39087500Y-44175000I-62500J0D01*
G01*
X38412500Y-44175000D01*
G75*
G02*
X38350000Y-44112500I0J62500D01*
G01*
X38350000Y-43987500D01*
G75*
G02*
X38412500Y-43925000I62500J0D01*
G01*
X39087500Y-43925000D01*
G75*
G02*
X39150000Y-43987500I0J-62500D01*
G01*
G37*
G36*
G01*
X39150000Y-43487500D02*
X39150000Y-43612500D01*
G75*
G02*
X39087500Y-43675000I-62500J0D01*
G01*
X38412500Y-43675000D01*
G75*
G02*
X38350000Y-43612500I0J62500D01*
G01*
X38350000Y-43487500D01*
G75*
G02*
X38412500Y-43425000I62500J0D01*
G01*
X39087500Y-43425000D01*
G75*
G02*
X39150000Y-43487500I0J-62500D01*
G01*
G37*
G36*
G01*
X39150000Y-42987500D02*
X39150000Y-43112500D01*
G75*
G02*
X39087500Y-43175000I-62500J0D01*
G01*
X38412500Y-43175000D01*
G75*
G02*
X38350000Y-43112500I0J62500D01*
G01*
X38350000Y-42987500D01*
G75*
G02*
X38412500Y-42925000I62500J0D01*
G01*
X39087500Y-42925000D01*
G75*
G02*
X39150000Y-42987500I0J-62500D01*
G01*
G37*
G36*
G01*
X39150000Y-42487500D02*
X39150000Y-42612500D01*
G75*
G02*
X39087500Y-42675000I-62500J0D01*
G01*
X38412500Y-42675000D01*
G75*
G02*
X38350000Y-42612500I0J62500D01*
G01*
X38350000Y-42487500D01*
G75*
G02*
X38412500Y-42425000I62500J0D01*
G01*
X39087500Y-42425000D01*
G75*
G02*
X39150000Y-42487500I0J-62500D01*
G01*
G37*
G36*
G01*
X39150000Y-41987500D02*
X39150000Y-42112500D01*
G75*
G02*
X39087500Y-42175000I-62500J0D01*
G01*
X38412500Y-42175000D01*
G75*
G02*
X38350000Y-42112500I0J62500D01*
G01*
X38350000Y-41987500D01*
G75*
G02*
X38412500Y-41925000I62500J0D01*
G01*
X39087500Y-41925000D01*
G75*
G02*
X39150000Y-41987500I0J-62500D01*
G01*
G37*
G36*
G01*
X39150000Y-41487500D02*
X39150000Y-41612500D01*
G75*
G02*
X39087500Y-41675000I-62500J0D01*
G01*
X38412500Y-41675000D01*
G75*
G02*
X38350000Y-41612500I0J62500D01*
G01*
X38350000Y-41487500D01*
G75*
G02*
X38412500Y-41425000I62500J0D01*
G01*
X39087500Y-41425000D01*
G75*
G02*
X39150000Y-41487500I0J-62500D01*
G01*
G37*
G36*
G01*
X39150000Y-40987500D02*
X39150000Y-41112500D01*
G75*
G02*
X39087500Y-41175000I-62500J0D01*
G01*
X38412500Y-41175000D01*
G75*
G02*
X38350000Y-41112500I0J62500D01*
G01*
X38350000Y-40987500D01*
G75*
G02*
X38412500Y-40925000I62500J0D01*
G01*
X39087500Y-40925000D01*
G75*
G02*
X39150000Y-40987500I0J-62500D01*
G01*
G37*
G36*
G01*
X39575000Y-40012500D02*
X39575000Y-40687500D01*
G75*
G02*
X39512500Y-40750000I-62500J0D01*
G01*
X39387500Y-40750000D01*
G75*
G02*
X39325000Y-40687500I0J62500D01*
G01*
X39325000Y-40012500D01*
G75*
G02*
X39387500Y-39950000I62500J0D01*
G01*
X39512500Y-39950000D01*
G75*
G02*
X39575000Y-40012500I0J-62500D01*
G01*
G37*
G36*
G01*
X40075000Y-40012500D02*
X40075000Y-40687500D01*
G75*
G02*
X40012500Y-40750000I-62500J0D01*
G01*
X39887500Y-40750000D01*
G75*
G02*
X39825000Y-40687500I0J62500D01*
G01*
X39825000Y-40012500D01*
G75*
G02*
X39887500Y-39950000I62500J0D01*
G01*
X40012500Y-39950000D01*
G75*
G02*
X40075000Y-40012500I0J-62500D01*
G01*
G37*
G36*
G01*
X40575000Y-40012500D02*
X40575000Y-40687500D01*
G75*
G02*
X40512500Y-40750000I-62500J0D01*
G01*
X40387500Y-40750000D01*
G75*
G02*
X40325000Y-40687500I0J62500D01*
G01*
X40325000Y-40012500D01*
G75*
G02*
X40387500Y-39950000I62500J0D01*
G01*
X40512500Y-39950000D01*
G75*
G02*
X40575000Y-40012500I0J-62500D01*
G01*
G37*
G36*
G01*
X41075000Y-40012500D02*
X41075000Y-40687500D01*
G75*
G02*
X41012500Y-40750000I-62500J0D01*
G01*
X40887500Y-40750000D01*
G75*
G02*
X40825000Y-40687500I0J62500D01*
G01*
X40825000Y-40012500D01*
G75*
G02*
X40887500Y-39950000I62500J0D01*
G01*
X41012500Y-39950000D01*
G75*
G02*
X41075000Y-40012500I0J-62500D01*
G01*
G37*
G36*
G01*
X41575000Y-40012500D02*
X41575000Y-40687500D01*
G75*
G02*
X41512500Y-40750000I-62500J0D01*
G01*
X41387500Y-40750000D01*
G75*
G02*
X41325000Y-40687500I0J62500D01*
G01*
X41325000Y-40012500D01*
G75*
G02*
X41387500Y-39950000I62500J0D01*
G01*
X41512500Y-39950000D01*
G75*
G02*
X41575000Y-40012500I0J-62500D01*
G01*
G37*
G36*
G01*
X42075000Y-40012500D02*
X42075000Y-40687500D01*
G75*
G02*
X42012500Y-40750000I-62500J0D01*
G01*
X41887500Y-40750000D01*
G75*
G02*
X41825000Y-40687500I0J62500D01*
G01*
X41825000Y-40012500D01*
G75*
G02*
X41887500Y-39950000I62500J0D01*
G01*
X42012500Y-39950000D01*
G75*
G02*
X42075000Y-40012500I0J-62500D01*
G01*
G37*
G36*
G01*
X42575000Y-40012500D02*
X42575000Y-40687500D01*
G75*
G02*
X42512500Y-40750000I-62500J0D01*
G01*
X42387500Y-40750000D01*
G75*
G02*
X42325000Y-40687500I0J62500D01*
G01*
X42325000Y-40012500D01*
G75*
G02*
X42387500Y-39950000I62500J0D01*
G01*
X42512500Y-39950000D01*
G75*
G02*
X42575000Y-40012500I0J-62500D01*
G01*
G37*
G36*
G01*
X43075000Y-40012500D02*
X43075000Y-40687500D01*
G75*
G02*
X43012500Y-40750000I-62500J0D01*
G01*
X42887500Y-40750000D01*
G75*
G02*
X42825000Y-40687500I0J62500D01*
G01*
X42825000Y-40012500D01*
G75*
G02*
X42887500Y-39950000I62500J0D01*
G01*
X43012500Y-39950000D01*
G75*
G02*
X43075000Y-40012500I0J-62500D01*
G01*
G37*
D13*
X41200000Y-42800000D03*
%TD*%
D14*
%TO.C,TP3*%
X36400000Y-38600000D03*
%TD*%
%TO.C,RGB3*%
G36*
G01*
X45462500Y-45750000D02*
X45187500Y-45750000D01*
G75*
G02*
X45050000Y-45612500I0J137500D01*
G01*
X45050000Y-45337500D01*
G75*
G02*
X45187500Y-45200000I137500J0D01*
G01*
X45462500Y-45200000D01*
G75*
G02*
X45600000Y-45337500I0J-137500D01*
G01*
X45600000Y-45612500D01*
G75*
G02*
X45462500Y-45750000I-137500J0D01*
G01*
G37*
G36*
G01*
X45462500Y-44800000D02*
X45187500Y-44800000D01*
G75*
G02*
X45050000Y-44662500I0J137500D01*
G01*
X45050000Y-44387500D01*
G75*
G02*
X45187500Y-44250000I137500J0D01*
G01*
X45462500Y-44250000D01*
G75*
G02*
X45600000Y-44387500I0J-137500D01*
G01*
X45600000Y-44662500D01*
G75*
G02*
X45462500Y-44800000I-137500J0D01*
G01*
G37*
G36*
G01*
X46412500Y-44800000D02*
X46137500Y-44800000D01*
G75*
G02*
X46000000Y-44662500I0J137500D01*
G01*
X46000000Y-44387500D01*
G75*
G02*
X46137500Y-44250000I137500J0D01*
G01*
X46412500Y-44250000D01*
G75*
G02*
X46550000Y-44387500I0J-137500D01*
G01*
X46550000Y-44662500D01*
G75*
G02*
X46412500Y-44800000I-137500J0D01*
G01*
G37*
G36*
G01*
X46412500Y-45750000D02*
X46137500Y-45750000D01*
G75*
G02*
X46000000Y-45612500I0J137500D01*
G01*
X46000000Y-45337500D01*
G75*
G02*
X46137500Y-45200000I137500J0D01*
G01*
X46412500Y-45200000D01*
G75*
G02*
X46550000Y-45337500I0J-137500D01*
G01*
X46550000Y-45612500D01*
G75*
G02*
X46412500Y-45750000I-137500J0D01*
G01*
G37*
%TD*%
%TO.C,R1*%
G36*
G01*
X44215000Y-37620000D02*
X44585000Y-37620000D01*
G75*
G02*
X44720000Y-37755000I0J-135000D01*
G01*
X44720000Y-38025000D01*
G75*
G02*
X44585000Y-38160000I-135000J0D01*
G01*
X44215000Y-38160000D01*
G75*
G02*
X44080000Y-38025000I0J135000D01*
G01*
X44080000Y-37755000D01*
G75*
G02*
X44215000Y-37620000I135000J0D01*
G01*
G37*
G36*
G01*
X44215000Y-38640000D02*
X44585000Y-38640000D01*
G75*
G02*
X44720000Y-38775000I0J-135000D01*
G01*
X44720000Y-39045000D01*
G75*
G02*
X44585000Y-39180000I-135000J0D01*
G01*
X44215000Y-39180000D01*
G75*
G02*
X44080000Y-39045000I0J135000D01*
G01*
X44080000Y-38775000D01*
G75*
G02*
X44215000Y-38640000I135000J0D01*
G01*
G37*
%TD*%
%TO.C,RGB4*%
G36*
G01*
X33450000Y-44662500D02*
X33450000Y-44387500D01*
G75*
G02*
X33587500Y-44250000I137500J0D01*
G01*
X33862500Y-44250000D01*
G75*
G02*
X34000000Y-44387500I0J-137500D01*
G01*
X34000000Y-44662500D01*
G75*
G02*
X33862500Y-44800000I-137500J0D01*
G01*
X33587500Y-44800000D01*
G75*
G02*
X33450000Y-44662500I0J137500D01*
G01*
G37*
G36*
G01*
X34400000Y-44662500D02*
X34400000Y-44387500D01*
G75*
G02*
X34537500Y-44250000I137500J0D01*
G01*
X34812500Y-44250000D01*
G75*
G02*
X34950000Y-44387500I0J-137500D01*
G01*
X34950000Y-44662500D01*
G75*
G02*
X34812500Y-44800000I-137500J0D01*
G01*
X34537500Y-44800000D01*
G75*
G02*
X34400000Y-44662500I0J137500D01*
G01*
G37*
G36*
G01*
X34400000Y-45612500D02*
X34400000Y-45337500D01*
G75*
G02*
X34537500Y-45200000I137500J0D01*
G01*
X34812500Y-45200000D01*
G75*
G02*
X34950000Y-45337500I0J-137500D01*
G01*
X34950000Y-45612500D01*
G75*
G02*
X34812500Y-45750000I-137500J0D01*
G01*
X34537500Y-45750000D01*
G75*
G02*
X34400000Y-45612500I0J137500D01*
G01*
G37*
G36*
G01*
X33450000Y-45612500D02*
X33450000Y-45337500D01*
G75*
G02*
X33587500Y-45200000I137500J0D01*
G01*
X33862500Y-45200000D01*
G75*
G02*
X34000000Y-45337500I0J-137500D01*
G01*
X34000000Y-45612500D01*
G75*
G02*
X33862500Y-45750000I-137500J0D01*
G01*
X33587500Y-45750000D01*
G75*
G02*
X33450000Y-45612500I0J137500D01*
G01*
G37*
%TD*%
%TO.C,TP2*%
X38400000Y-38600000D03*
%TD*%
%TO.C,R2*%
G36*
G01*
X39220000Y-33185000D02*
X39220000Y-32815000D01*
G75*
G02*
X39355000Y-32680000I135000J0D01*
G01*
X39625000Y-32680000D01*
G75*
G02*
X39760000Y-32815000I0J-135000D01*
G01*
X39760000Y-33185000D01*
G75*
G02*
X39625000Y-33320000I-135000J0D01*
G01*
X39355000Y-33320000D01*
G75*
G02*
X39220000Y-33185000I0J135000D01*
G01*
G37*
G36*
G01*
X40240000Y-33185000D02*
X40240000Y-32815000D01*
G75*
G02*
X40375000Y-32680000I135000J0D01*
G01*
X40645000Y-32680000D01*
G75*
G02*
X40780000Y-32815000I0J-135000D01*
G01*
X40780000Y-33185000D01*
G75*
G02*
X40645000Y-33320000I-135000J0D01*
G01*
X40375000Y-33320000D01*
G75*
G02*
X40240000Y-33185000I0J135000D01*
G01*
G37*
%TD*%
%TO.C,C2*%
G36*
G01*
X41830000Y-37640000D02*
X42170000Y-37640000D01*
G75*
G02*
X42310000Y-37780000I0J-140000D01*
G01*
X42310000Y-38060000D01*
G75*
G02*
X42170000Y-38200000I-140000J0D01*
G01*
X41830000Y-38200000D01*
G75*
G02*
X41690000Y-38060000I0J140000D01*
G01*
X41690000Y-37780000D01*
G75*
G02*
X41830000Y-37640000I140000J0D01*
G01*
G37*
G36*
G01*
X41830000Y-38600000D02*
X42170000Y-38600000D01*
G75*
G02*
X42310000Y-38740000I0J-140000D01*
G01*
X42310000Y-39020000D01*
G75*
G02*
X42170000Y-39160000I-140000J0D01*
G01*
X41830000Y-39160000D01*
G75*
G02*
X41690000Y-39020000I0J140000D01*
G01*
X41690000Y-38740000D01*
G75*
G02*
X41830000Y-38600000I140000J0D01*
G01*
G37*
%TD*%
%TO.C,TP1*%
X40400000Y-38600000D03*
%TD*%
D15*
%TO.C,U2*%
X38400000Y-35200000D03*
X38000000Y-35200000D03*
X37600000Y-35200000D03*
D16*
X37600000Y-34464000D03*
X38000000Y-34464000D03*
X38400000Y-34464000D03*
%TD*%
D14*
%TO.C,TP5*%
X36400000Y-42600000D03*
%TD*%
%TO.C,TP4*%
X36400000Y-40600000D03*
%TD*%
%TO.C,TP6*%
X36400000Y-44600000D03*
%TD*%
%TO.C,C3*%
G36*
G01*
X43370000Y-39160000D02*
X43030000Y-39160000D01*
G75*
G02*
X42890000Y-39020000I0J140000D01*
G01*
X42890000Y-38740000D01*
G75*
G02*
X43030000Y-38600000I140000J0D01*
G01*
X43370000Y-38600000D01*
G75*
G02*
X43510000Y-38740000I0J-140000D01*
G01*
X43510000Y-39020000D01*
G75*
G02*
X43370000Y-39160000I-140000J0D01*
G01*
G37*
G36*
G01*
X43370000Y-38200000D02*
X43030000Y-38200000D01*
G75*
G02*
X42890000Y-38060000I0J140000D01*
G01*
X42890000Y-37780000D01*
G75*
G02*
X43030000Y-37640000I140000J0D01*
G01*
X43370000Y-37640000D01*
G75*
G02*
X43510000Y-37780000I0J-140000D01*
G01*
X43510000Y-38060000D01*
G75*
G02*
X43370000Y-38200000I-140000J0D01*
G01*
G37*
%TD*%
%TO.C,C4*%
G36*
G01*
X37120000Y-33170000D02*
X37120000Y-32830000D01*
G75*
G02*
X37260000Y-32690000I140000J0D01*
G01*
X37540000Y-32690000D01*
G75*
G02*
X37680000Y-32830000I0J-140000D01*
G01*
X37680000Y-33170000D01*
G75*
G02*
X37540000Y-33310000I-140000J0D01*
G01*
X37260000Y-33310000D01*
G75*
G02*
X37120000Y-33170000I0J140000D01*
G01*
G37*
G36*
G01*
X38080000Y-33170000D02*
X38080000Y-32830000D01*
G75*
G02*
X38220000Y-32690000I140000J0D01*
G01*
X38500000Y-32690000D01*
G75*
G02*
X38640000Y-32830000I0J-140000D01*
G01*
X38640000Y-33170000D01*
G75*
G02*
X38500000Y-33310000I-140000J0D01*
G01*
X38220000Y-33310000D01*
G75*
G02*
X38080000Y-33170000I0J140000D01*
G01*
G37*
%TD*%
M02*
