%TF.GenerationSoftware,KiCad,Pcbnew,8.0.1-8.0.1-0~ubuntu20.04.1*%
%TF.CreationDate,2024-06-12T16:16:27+01:00*%
%TF.ProjectId,smolpad,736d6f6c-7061-4642-9e6b-696361645f70,rev?*%
%TF.SameCoordinates,Original*%
%TF.FileFunction,Profile,NP*%
%FSLAX46Y46*%
G04 Gerber Fmt 4.6, Leading zero omitted, Abs format (unit mm)*
G04 Created by KiCad (PCBNEW 8.0.1-8.0.1-0~ubuntu20.04.1) date 2024-06-12 16:16:27*
%MOMM*%
%LPD*%
G01*
G04 APERTURE LIST*
%TA.AperFunction,Profile*%
%ADD10C,0.050000*%
%TD*%
G04 APERTURE END LIST*
D10*
X47400000Y-39400000D02*
G75*
G02*
X48200000Y-39400000I400000J0D01*
G01*
X43345000Y-32800000D02*
X43345000Y-32225000D01*
X47400000Y-45800000D02*
G75*
G02*
X46600000Y-46600000I-800000J0D01*
G01*
X48200000Y-37000000D02*
X48200000Y-33400000D01*
X36655000Y-32800000D02*
G75*
G02*
X36055000Y-33400000I-600000J0D01*
G01*
X53000000Y-41800000D02*
X48200000Y-41800000D01*
X47400000Y-37000000D02*
X47400000Y-34200000D01*
X43945000Y-33400000D02*
G75*
G02*
X43345000Y-32800000I0J600000D01*
G01*
X32600000Y-34200000D02*
X32600000Y-45800000D01*
X48200000Y-37000000D02*
G75*
G02*
X47400000Y-37000000I-400000J0D01*
G01*
X48200000Y-41800000D02*
X48200000Y-39400000D01*
X36655000Y-32800000D02*
X36655000Y-32225000D01*
X32600000Y-34200000D02*
G75*
G02*
X33400000Y-33400000I800000J0D01*
G01*
X46599999Y-33400000D02*
G75*
G02*
X47400000Y-34200000I1J-800000D01*
G01*
X46599999Y-33400000D02*
X43945000Y-33400000D01*
X53000000Y-33400000D02*
X53000000Y-41800000D01*
X33400001Y-46600000D02*
G75*
G02*
X32600000Y-45800000I-1J800000D01*
G01*
X33400000Y-33400000D02*
X36055000Y-33400000D01*
X48200000Y-33400000D02*
X53000000Y-33400000D01*
X47400000Y-45800000D02*
X47400000Y-39400000D01*
X33400001Y-46600000D02*
X46600000Y-46600000D01*
%TO.C,J2*%
X36655000Y-29025000D02*
X36655000Y-28575000D01*
X36655000Y-32225000D02*
X36655000Y-30525000D01*
X36905000Y-27775000D02*
X36655000Y-28575000D01*
X36905000Y-27775000D02*
X43095000Y-27775000D01*
X36955000Y-29325000D02*
X36955000Y-30225000D01*
X43045000Y-29325000D02*
X43045000Y-30225000D01*
X43345000Y-28575000D02*
X43095000Y-27775000D01*
X43345000Y-29025000D02*
X43345000Y-28575000D01*
X43345000Y-32225000D02*
X43345000Y-30525000D01*
X36655000Y-29025000D02*
G75*
G02*
X36955000Y-29325000I0J-300000D01*
G01*
X36955000Y-30225000D02*
G75*
G02*
X36655000Y-30525000I-300000J0D01*
G01*
X43045000Y-29325000D02*
G75*
G02*
X43345000Y-29025000I300000J0D01*
G01*
X43345000Y-30525000D02*
G75*
G02*
X43045000Y-30225000I0J300000D01*
G01*
%TD*%
M02*
