  0
SECTION
  2
HEADER
  9
$ANGBASE
  50
0.0
  9
$ANGDIR
  70
1
  9
$MEASUREMENT
  70
1
  0
ENDSEC
  0
SECTION
  2
TABLES
  0
TABLE
  2
LTYPE
  70
4
  0
LTYPE
  5
40F
  2
CONTINUOUS
  70
0
  3
Solid line
  72
65
  73
0
  40
0.0
  0
LTYPE
  5
410
  2
DASHDOT
 70
0
  3
Dash Dot ____ _ ____ _
 72
65
 73
4
 40
2.0
 49
1.25
 49
-0.25
 49
0.25
 49
-0.25
  0
LTYPE
  5
411
  2
DASHED
 70
0
  3
Dashed __ __ __ __ __
 72
65
 73
2
 40
0.75
 49
0.5
 49
-0.25
  0
LTYPE
  5
43B
  2
DOTTED
 70
0
  3
Dotted .  .  .  .
 72
65
 73
2
 40
0.2
 49
0.0
 49
-0.2
  0
ENDTAB
  0
TABLE
  2
STYLE
  70
4
  0
STYLE
  2
KICAD
  70
0
  40
0
  41
1
  42
1
  50
0
  71
0
  3
isocp.shx
  0
STYLE
  2
KICADB
  70
0
  40
0
  41
1
  42
1
  50
0
  71
0
  3
isocp.shx
  0
STYLE
  2
KICADI
  70
0
  40
0
  41
1
  42
1
  50
15
  71
0
  3
isocp.shx
  0
STYLE
  2
KICADBI
  70
0
  40
0
  41
1
  42
1
  50
15
  71
0
  3
isocp.shx
  0
ENDTAB
  0
TABLE
  2
LAYER
  70
1
  0
LAYER
  2
BLACK
  70
0
  62
7
  6
CONTINUOUS
  0
ENDTAB
  0
ENDSEC
  0
SECTION
  2
ENTITIES
0
ARC
8
BLACK
10
47.7999999999999972
20
-39.3999999999999986
40
0.4
50
0.00000000
51
180.00000000
0
LINE
8
BLACK
6
CONTINUOUS
10
43.3449999999999989
20
-32.7999999999999972
11
43.3449999999999989
21
-32.2250000000000014
0
ARC
8
BLACK
10
46.6000000000000014
20
-45.7999999999999972
40
0.7999999999999999
50
-90.00000000
51
-0.00000000
0
LINE
8
BLACK
6
CONTINUOUS
10
48.1999999999999957
20
-37.
11
48.1999999999999957
21
-33.3999999999999986
0
ARC
8
BLACK
10
36.0549999999999997
20
-32.7999999999999972
40
0.6
50
-90.00000000
51
-0.00000000
0
LINE
8
BLACK
6
CONTINUOUS
10
53.
20
-41.7999999999999972
11
48.1999999999999957
21
-41.7999999999999972
0
LINE
8
BLACK
6
CONTINUOUS
10
47.3999999999999986
20
-37.
11
47.3999999999999986
21
-34.1999999999999957
0
ARC
8
BLACK
10
43.9450000000000003
20
-32.7999999999999972
40
0.6
50
-180.00000000
51
-90.00000000
0
LINE
8
BLACK
6
CONTINUOUS
10
32.6000000000000014
20
-34.1999999999999957
11
32.6000000000000014
21
-45.7999999999999972
0
ARC
8
BLACK
10
47.7999999999999972
20
-37.
40
0.4
50
-180.00000000
51
-0.00000000
0
LINE
8
BLACK
6
CONTINUOUS
10
48.1999999999999957
20
-41.7999999999999972
11
48.1999999999999957
21
-39.3999999999999986
0
LINE
8
BLACK
6
CONTINUOUS
10
36.6550000000000011
20
-32.7999999999999972
11
36.6550000000000011
21
-32.2250000000000014
0
ARC
8
BLACK
10
33.3999999999999986
20
-34.1999999999999957
40
0.7999999999999999
50
90.00000000
51
180.00000000
0
ARC
8
BLACK
10
46.6000000000000014
20
-34.1999999999999957
40
0.800000000000625
50
0.00000000
51
90.00007162
0
LINE
8
BLACK
6
CONTINUOUS
10
46.5999989999999968
20
-33.3999999999999986
11
43.9450000000000003
21
-33.3999999999999986
0
LINE
8
BLACK
6
CONTINUOUS
10
53.
20
-33.3999999999999986
11
53.
21
-41.7999999999999972
0
ARC
8
BLACK
10
33.3999999999999986
20
-45.7999999999999972
40
0.800000000000625
50
-180.00000000
51
-89.99992838
0
LINE
8
BLACK
6
CONTINUOUS
10
33.3999999999999986
20
-33.3999999999999986
11
36.0549999999999997
21
-33.3999999999999986
0
LINE
8
BLACK
6
CONTINUOUS
10
48.1999999999999957
20
-33.3999999999999986
11
53.
21
-33.3999999999999986
0
LINE
8
BLACK
6
CONTINUOUS
10
47.3999999999999986
20
-45.7999999999999972
11
47.3999999999999986
21
-39.3999999999999986
0
LINE
8
BLACK
6
CONTINUOUS
10
33.4000009999999961
20
-46.6000000000000014
11
46.6000000000000014
21
-46.6000000000000014
0
LINE
8
BLACK
6
CONTINUOUS
10
36.6550000000000011
20
-29.0249999999999986
11
36.6550000000000011
21
-28.5749999999999993
0
LINE
8
BLACK
6
CONTINUOUS
10
36.6550000000000011
20
-32.2250000000000014
11
36.6550000000000011
21
-30.5249999999999986
0
LINE
8
BLACK
6
CONTINUOUS
10
36.9050000000000011
20
-27.7749999999999986
11
36.6550000000000011
21
-28.5749999999999993
0
LINE
8
BLACK
6
CONTINUOUS
10
36.9050000000000011
20
-27.7749999999999986
11
43.0949999999999989
21
-27.7749999999999986
0
LINE
8
BLACK
6
CONTINUOUS
10
36.9549999999999983
20
-29.3249999999999993
11
36.9549999999999983
21
-30.2249999999999979
0
LINE
8
BLACK
6
CONTINUOUS
10
43.0449999999999946
20
-29.3249999999999993
11
43.0449999999999946
21
-30.2249999999999979
0
LINE
8
BLACK
6
CONTINUOUS
10
43.3449999999999989
20
-28.5749999999999993
11
43.0949999999999989
21
-27.7749999999999986
0
LINE
8
BLACK
6
CONTINUOUS
10
43.3449999999999989
20
-29.0249999999999986
11
43.3449999999999989
21
-28.5749999999999993
0
LINE
8
BLACK
6
CONTINUOUS
10
43.3449999999999989
20
-32.2250000000000014
11
43.3449999999999989
21
-30.5249999999999986
0
ARC
8
BLACK
10
36.6550000000000011
20
-29.3249999999999993
40
0.3
50
0.00000000
51
90.00000000
0
ARC
8
BLACK
10
36.6550000000000011
20
-30.2249999999999979
40
0.3
50
-90.00000000
51
-0.00000000
0
ARC
8
BLACK
10
43.3449999999999989
20
-29.3249999999999993
40
0.3
50
90.00000000
51
180.00000000
0
ARC
8
BLACK
10
43.3449999999999989
20
-30.2249999999999979
40
0.3
50
-180.00000000
51
-90.00000000
  0
ENDSEC
  0
EOF
